<svg xmlns="http://www.w3.org/2000/svg" viewBox="0 0 48 48"><defs><style>.cls-1{fill:#dad7e5;}.cls-2{fill:#edebf2;}.cls-3{fill:#6fabe6;}.cls-4{fill:#82bcf4;}.cls-5{fill:#ffde76;}.cls-6{fill:#7c7d7d;}.cls-7{fill:#919191;}.cls-8{fill:#db5669;}.cls-9{fill:#f26674;}</style></defs><title>Renewable energy Windmill Turbin</title><g id="Renewable_energy_Windmill_Turbin" data-name="Renewable energy Windmill Turbin"><path class="cls-1" d="M25,37H20a1,1,0,0,1,0-2h5A1,1,0,0,1,25,37Z"/><path class="cls-1" d="M16.85,3.14l-.7,9.77a3,3,0,0,0-4.3,0l-.7-9.77a2,2,0,0,1,2-2.14h1.7A2,2,0,0,1,16.85,3.14Z"/><path class="cls-1" d="M13.26,17.9,5.15,23.39a2,2,0,0,1-2.85-.65l-.85-1.48a2,2,0,0,1,.86-2.8l8.81-4.28A3,3,0,0,0,13.26,17.9Z"/><path class="cls-2" d="M11.71,16.94,5.15,21.39a2,2,0,0,1-2.85-.65c-1.3-2.25-2.51-1,8.82-6.56A3,3,0,0,0,11.71,16.94Z"/><path class="cls-1" d="M26.55,21.26l-.85,1.48a2,2,0,0,1-2.85.65L14.74,17.9a3,3,0,0,0,2.14-3.72l8.81,4.28A2,2,0,0,1,26.55,21.26Z"/><path class="cls-1" d="M21,45v2H7V45a3,3,0,0,1,2.13-2.87c.68-.2.57-.13,8.87-.13A3,3,0,0,1,21,45Z"/><path class="cls-2" d="M21,45H11a2.06,2.06,0,0,1-1.87-2.87c.68-.2.57-.13,8.87-.13A3,3,0,0,1,21,45Z"/><path class="cls-1" d="M16.5,42h-5l.87-23.5c1.31-.88.57-.5,1.63-.5s.3-.39,1.63.5C16.56,43.5,16.4,39.28,16.5,42Z"/><path class="cls-2" d="M16.43,40a2.82,2.82,0,0,1-2.82-2.93c.79-21.14.18-19.81,2-18.57Z"/><rect class="cls-3" x="25" y="33" width="22" height="14"/><path class="cls-4" d="M47,33V45H30a3,3,0,0,1-3-3V33Z"/><path class="cls-5" d="M35.17,42.45l1-1.45H34a1,1,0,0,1-.83-1.55l2-3a1,1,0,0,1,1.66,1.1l-1,1.45c2.22,0,2.66-.14,3,.53s0,.92-2.05,4A1,1,0,0,1,35.17,42.45Z"/><path class="cls-6" d="M20,35v2a1,1,0,0,1-1,1H16.35l-.15-4H19A1,1,0,0,1,20,35Z"/><path class="cls-7" d="M20,35v2a2.78,2.78,0,0,1-2.76-3H19A1,1,0,0,1,20,35Z"/><rect class="cls-8" x="27" y="29" width="4" height="4"/><rect class="cls-8" x="41" y="29" width="4" height="4"/><path class="cls-9" d="M45,29v3a3,3,0,0,1-3-3Z"/><path class="cls-9" d="M31,29v3a3,3,0,0,1-3-3Z"/><path class="cls-4" d="M47,10H29a3,3,0,0,1-3-3c0-3,4-3.92,4-2a1,1,0,0,1-1,1,1,1,0,0,0,0,2H47A1,1,0,0,1,47,10Z"/><path class="cls-4" d="M45,6H35a3,3,0,0,1-3-3c0-3,4-3.92,4-2a1,1,0,0,1-1,1,1,1,0,0,0,0,2H45A1,1,0,0,1,45,6Z"/><path class="cls-4" d="M33,18a3,3,0,0,1,0-6H43a1,1,0,0,1,0,2H33a1,1,0,0,0,0,2A1,1,0,0,1,33,18Z"/><path class="cls-6" d="M17,15a3,3,0,1,1-5-2.25A3,3,0,0,1,17,15Z"/><path class="cls-7" d="M17,15.24c-2.2,2-5.51-.31-5-2.49A3,3,0,0,1,17,15.24Z"/><path class="cls-2" d="M16.83,16,24,19.47a2,2,0,0,1,.86,2.79c-1.3,2.25.35,2.71-10.09-4.36A3,3,0,0,0,16.83,16Z"/><path class="cls-2" d="M13.46,12.05l-.57-7.91a2,2,0,0,1,2-2.14c2.59,0,2.17-1.65,1.27,10.92A3,3,0,0,0,13.46,12.05Z"/></g></svg>