<?xml version="1.0" encoding="utf-8"?>
<!-- Generator: Adobe Illustrator 22.1.0, SVG Export Plug-In . SVG Version: 6.00 Build 0)  -->
<svg version="1.1" id="Layer_1" xmlns="http://www.w3.org/2000/svg" xmlns:xlink="http://www.w3.org/1999/xlink" x="0px" y="0px"
	 viewBox="0 0 512 512" style="enable-background:new 0 0 512 512;" xml:space="preserve">
<style type="text/css">
	.st0{fill:#FCE575;}
	.st1{fill:#FFD551;}
	.st2{fill:#FFA730;}
	.st3{fill:#E58D23;}
	.st4{fill:#FF624B;}
	.st5{fill:#FFF4C1;}
	.st6{fill:#FCDA4F;}
	.st7{fill:#FF4B34;}
	.st8{fill:#CCC033;}
	.st9{fill:#99AF17;}
	.st10{fill:#FF9079;}
	.st11{fill:#EACF32;}
	.st12{fill:#F9BB32;}
	.st13{fill:#FFEA63;}
	.st14{fill:#FFEACF;}
	.st15{fill:#FFD59A;}
	.st16{fill:#FFC34C;}
	.st17{fill:#A56021;}
	.st18{fill:#FFDF74;}
	.st19{fill:#BF6C0D;}
	.st20{fill:#FFB74B;}
	.st21{fill:#8C4C17;}
	.st22{fill:#FCF9DE;}
	.st23{fill:#DB9C2E;}
	.st24{fill:#FFF9DC;}
	.st25{fill:none;}
</style>
<g>
	<g>
		<g>
			<path class="st17" d="M309.501,470.675H118.379c-19.299,0-35-18.993-35-42.338v-57.283c0-2.761,2.238-5,5-5s5,2.239,5,5v57.283
				c0,17.831,11.215,32.338,25,32.338h191.122c2.762,0,5,2.239,5,5S312.263,470.675,309.501,470.675z"/>
		</g>
	</g>
	<g>
		<g>
			<path class="st16" d="M112.581,372.682H64.177c-4.418,0-8-3.582-8-8V329.12h64.404v35.562
				C120.581,369.101,116.999,372.682,112.581,372.682z"/>
		</g>
	</g>
	<g>
		<g>
			<path class="st2" d="M76.177,364.682V329.12h-20v35.562c0,4.418,3.582,8,8,8h20C79.759,372.682,76.177,369.101,76.177,364.682z"
				/>
		</g>
	</g>
	<g>
		<g>
			<path class="st16" d="M116.788,173.841H59.97v-41.829c0-5.523,4.477-10,10-10h36.817c5.523,0,10,4.477,10,10V173.841z"/>
		</g>
	</g>
	<g>
		<g>
			<path class="st2" d="M97.97,122.012h-28c-5.523,0-10,4.477-10,10v41.829h28v-41.829C87.97,126.489,92.448,122.012,97.97,122.012z
				"/>
		</g>
	</g>
	<g>
		<g>
			<path class="st10" d="M125.15,358.186H51.608c-8.284,0-15-6.716-15-15v-184.38c0-8.284,6.716-15,15-15h73.543
				c8.284,0,15,6.716,15,15v184.38C140.15,351.471,133.435,358.186,125.15,358.186z"/>
		</g>
	</g>
	<g>
		<g>
			<path class="st4" d="M69.608,343.186v-184.38c0-8.284,6.716-15,15-15h-33c-8.284,0-15,6.716-15,15v184.38c0,8.284,6.716,15,15,15
				h33C76.323,358.186,69.608,351.471,69.608,343.186z"/>
		</g>
	</g>
	<g>
		<g>
			<path class="st18" d="M170.882,264.284c-3.792,0-7.206-2.397-8.495-5.965l-2.157-5.972c-1.693-4.686,0.741-9.875,5.427-11.568
				l154.802-55.937l6.953,19.243l-13.353,8.227l-54.365,32.883c-5.248,3.175-10.971,5.331-17.008,6.409l-70.214,12.54
				C171.949,264.237,171.414,264.284,170.882,264.284C170.882,264.284,170.882,264.284,170.882,264.284z"/>
		</g>
	</g>
	<g>
		<g>
			<path class="st1" d="M192.387,258.319l-2.157-5.972c-1.693-4.686,0.741-9.875,5.427-11.568l128.267-46.348l-3.465-9.588
				l-154.802,55.937c-4.686,1.693-7.12,6.883-5.427,11.568l2.157,5.972c1.289,3.568,4.703,5.965,8.495,5.965c0,0,0,0,0.001,0
				c0.531,0,1.066-0.048,1.59-0.141l21.012-3.753C193.042,259.755,192.658,259.07,192.387,258.319z"/>
		</g>
	</g>
	<g>
		<g>
			<path class="st1" d="M279.075,199.796c1.21,10.357,7.628,19.141,16.562,23.659l18.423-11.143l13.353-8.227l-6.953-19.243
				L279.075,199.796z"/>
		</g>
	</g>
	<g>
		<g>
			<path class="st18" d="M463.652,274.809c-1.334,0-2.624-0.288-3.834-0.856l-149.016-69.909l8.691-18.524l15.258,3.625
				l61.694,15.19c5.955,1.466,11.525,3.988,16.558,7.495l58.514,40.781c3.621,2.523,4.889,7.254,3.014,11.251l-2.696,5.748
				C470.354,272.768,467.141,274.809,463.652,274.809L463.652,274.809z"/>
		</g>
	</g>
	<g>
		<g>
			<path class="st1" d="M359.832,196.239c0-0.31-0.014-0.617-0.023-0.925l-25.057-6.169l-15.258-3.625l-8.691,18.523l36.235,16.999
				C354.775,215.508,359.832,206.456,359.832,196.239z"/>
		</g>
	</g>
	<g>
		<g>
			<path class="st18" d="M311.27,201.081l-3.2-15.354l-12.45-62.304c-1.202-6.014-1.285-12.129-0.247-18.174l12.067-70.296
				c0.746-4.349,4.491-7.507,8.905-7.507h6.349c4.982,0,9.036,4.053,9.036,9.036v164.599H311.27z"/>
		</g>
	</g>
	<g>
		<g>
			<path class="st1" d="M315.62,123.423c-1.202-6.014-1.285-12.129-0.247-18.174l12.067-70.296c0.288-1.677,1.025-3.174,2.071-4.384
				c-1.658-1.909-4.096-3.123-6.817-3.123h-6.349c-4.414,0-8.159,3.157-8.905,7.507l-12.067,70.296
				c-1.038,6.045-0.955,12.159,0.247,18.174l12.45,62.304l3.2,15.354h20l-3.2-15.354L315.62,123.423z"/>
		</g>
	</g>
	<g>
		<g>
			<polygon class="st3" points="296.219,449.688 342.738,449.688 330.609,196.217 308.349,196.217 			"/>
		</g>
	</g>
	<g>
		<g>
			<polygon class="st19" points="308.349,196.217 296.219,449.688 316.219,449.688 328.349,196.217 			"/>
		</g>
	</g>
	<g>
		<g>
			<path class="st13" d="M319.346,226.725c-16.81,0-30.485-13.676-30.485-30.486s13.676-30.486,30.485-30.486
				c16.81,0,30.486,13.676,30.486,30.486S336.156,226.725,319.346,226.725z"/>
		</g>
	</g>
	<g>
		<g>
			<path class="st20" d="M319.346,215.42c-10.577,0-19.181-8.605-19.181-19.181c0-10.577,8.604-19.181,19.181-19.181
				c10.577,0,19.182,8.605,19.182,19.181C338.528,206.816,329.923,215.42,319.346,215.42z"/>
		</g>
	</g>
	<g>
		<g>
			<path class="st17" d="M356.145,484.553h-73.333c-4.418,0-8-3.582-8-8v-19.261c0-4.418,3.582-8,8-8h73.333c4.418,0,8,3.582,8,8
				v19.261C364.145,480.971,360.564,484.553,356.145,484.553z"/>
		</g>
	</g>
	<g>
		<g>
			<path class="st5" d="M51.135,338.659V163.333c0-2.761,2.239-5,5-5h64.488c2.761,0,5,2.239,5,5v175.326c0,2.761-2.239,5-5,5
				H56.135C53.373,343.659,51.135,341.421,51.135,338.659z"/>
		</g>
	</g>
	<g>
		<g>
			<path class="st18" d="M85.724,252.987c-0.597,0-1.203-0.107-1.793-0.334c-2.577-0.991-3.864-3.884-2.873-6.461l11.408-29.682
				c0.061-0.158,0.245-0.638-0.251-1.108c-0.495-0.471-0.965-0.262-1.121-0.193c-3.954,1.759-8.442,1.088-11.71-1.752
				c-3.268-2.84-4.557-7.19-3.365-11.352l8.208-28.688c0.76-2.655,3.534-4.19,6.182-3.432c2.655,0.76,4.191,3.528,3.432,6.182
				l-8.208,28.688c-0.118,0.416-0.014,0.77,0.313,1.054s0.692,0.338,1.086,0.163c4.09-1.818,8.826-1.002,12.071,2.079
				c3.244,3.081,4.304,7.77,2.698,11.947L90.392,249.78C89.628,251.767,87.732,252.987,85.724,252.987z"/>
		</g>
	</g>
	<g>
		<g>
			<path class="st2" d="M311.165,196.239c0-8.665,5.778-15.997,13.681-18.368c-1.744-0.523-3.588-0.813-5.5-0.813
				c-10.577,0-19.181,8.605-19.181,19.181c0,10.577,8.604,19.181,19.181,19.181c1.912,0,3.756-0.29,5.5-0.813
				C316.943,212.236,311.165,204.904,311.165,196.239z"/>
		</g>
	</g>
	<g>
		<g>
			<path class="st21" d="M314.813,471.292c0-4.418,3.582-8,8-8h41.333v-6c0-4.418-3.582-8-8-8h-73.333c-4.418,0-8,3.582-8,8v19.261
				c0,4.418,3.582,8,8,8h32V471.292z"/>
		</g>
	</g>
	<g>
		<g>
			<path class="st0" d="M69.631,158.333H56.135c-2.761,0-5,2.239-5,5v175.326c0,2.761,2.239,5,5,5h13.497
				c-0.005-0.158-0.024-0.313-0.024-0.473v-184.38C69.608,158.647,69.626,158.492,69.631,158.333z"/>
		</g>
	</g>
	<g>
		<g>
			<path class="st16" d="M114.581,339.659H62.696c-4.418,0-8-3.582-8-8v-6.771c0-4.418,3.582-8,8-8h51.884c4.418,0,8,3.582,8,8
				v6.771C122.581,336.077,118.999,339.659,114.581,339.659z"/>
		</g>
	</g>
	<g>
		<g>
			<path class="st16" d="M114.581,307.203H62.696c-4.418,0-8-3.582-8-8v-6.771c0-4.418,3.582-8,8-8h51.884c4.418,0,8,3.582,8,8
				v6.771C122.581,303.621,118.999,307.203,114.581,307.203z"/>
		</g>
	</g>
	<g>
		<g>
			<path class="st16" d="M114.581,274.771H62.696c-4.418,0-8-3.582-8-8v-11.053h67.884v11.053
				C122.581,271.19,118.999,274.771,114.581,274.771z"/>
		</g>
	</g>
	<g>
		<g>
			<path class="st12" d="M54.696,255.718v11.053c0,4.418,3.582,8,8,8h6.911v-19.053H54.696z"/>
		</g>
	</g>
	<g>
		<g>
			<path class="st12" d="M62.696,284.432c-4.418,0-8,3.582-8,8v6.771c0,4.418,3.582,8,8,8h6.911v-22.771H62.696z"/>
		</g>
	</g>
	<g>
		<g>
			<path class="st12" d="M62.696,316.888c-4.418,0-8,3.582-8,8v6.771c0,4.418,3.582,8,8,8h6.911v-22.771H62.696z"/>
		</g>
	</g>
	<g>
		<g>
			<path class="st2" d="M329.729,442.364c-3.287,0-5.967-2.648-5.999-5.942l-0.461-47.311c-0.032-3.314,2.628-6.026,5.941-6.058
				c0.02,0,0.04,0,0.06,0c3.287,0,5.967,2.648,5.999,5.942l0.461,47.311c0.032,3.314-2.628,6.026-5.941,6.058
				C329.77,442.364,329.749,442.364,329.729,442.364z"/>
		</g>
	</g>
	<g>
		<g>
			<circle class="st1" cx="211.921" cy="245.986" r="7.5"/>
		</g>
	</g>
	<g>
		<g>
			<circle class="st2" cx="324.846" cy="191.86" r="7.5"/>
		</g>
	</g>
	<g>
		<g>
			<path class="st5" d="M461.994,263.6c-1.029,0-2.071-0.265-3.024-0.822l-32.667-19.113c-2.86-1.673-3.822-5.349-2.148-8.209
				c1.673-2.86,5.346-3.822,8.209-2.149l32.667,19.113c2.859,1.673,3.822,5.349,2.148,8.209
				C466.063,262.537,464.056,263.6,461.994,263.6z"/>
		</g>
	</g>
</g>
</svg>
