<?xml version="1.0" encoding="iso-8859-1"?>
<!-- Generator: Adobe Illustrator 19.0.1, SVG Export Plug-In . SVG Version: 6.00 Build 0)  -->
<svg version="1.1" id="Toys" xmlns="http://www.w3.org/2000/svg" xmlns:xlink="http://www.w3.org/1999/xlink" x="0px" y="0px"
	 viewBox="0 0 128 128" style="enable-background:new 0 0 128 128;" xml:space="preserve">
<g id="row3_1_" style="display:none;">
	<path id="icon:4_1_" style="display:inline;" d="M94.17,58.495H93.5v-5.72c0-2.2-1.8-4-4-4H65.67v-16.5
		c2.21-0.64,3.83-2.68,3.83-5.11c0-2.95-2.38-5.33-5.33-5.33c-2.96,0-5.34,2.38-5.34,5.33c0,2.43,1.62,4.47,3.84,5.11v16.5H38.38
		c-2.2,0-4,1.8-4,4v5.72h-0.55c-2.2,0-4,1.8-4,4v32.24c0,2.2,1.8,4,4,4h0.55v3.43c0,2.2,1.8,4,4,4H89.5c2.2,0,4-1.8,4-4v-3.43h0.67
		c2.2,0,4-1.8,4-4v-32.24C98.17,60.295,96.37,58.495,94.17,58.495z M45,63.335c0-2.76,2.24-5,5-5s5,2.24,5,5s-2.24,5-5,5
		S45,66.095,45,63.335z M78,94.365h-1.08c0.06-0.29,0.09-0.6,0.08-0.91c-0.06-2.21-1.9-3.98-4.11-3.96
		c-2.21,0.03-3.95,1.84-3.89,4.05c0.01,0.28,0.04,0.55,0.11,0.82h-1.19c0.06-0.29,0.09-0.6,0.08-0.91c-0.06-2.21-1.9-3.98-4.11-3.96
		c-2.21,0.03-3.95,1.84-3.89,4.05c0.01,0.28,0.04,0.55,0.11,0.82h-1.19c0.06-0.29,0.09-0.6,0.08-0.91c-0.06-2.21-1.9-3.98-4.11-3.96
		c-2.21,0.03-3.95,1.84-3.89,4.05c0.01,0.28,0.04,0.55,0.11,0.82H50v-16.2h1.21c-0.15,0.43-0.22,0.89-0.21,1.38
		c0.06,2.21,1.9,3.98,4.11,3.95c2.21-0.02,3.95-1.83,3.89-4.04c-0.01-0.45-0.1-0.89-0.25-1.29h1.46c-0.15,0.43-0.22,0.89-0.21,1.38
		c0.06,2.21,1.9,3.98,4.11,3.95c2.21-0.02,3.95-1.83,3.89-4.04c-0.01-0.45-0.1-0.89-0.25-1.29h1.46c-0.15,0.43-0.22,0.89-0.21,1.38
		c0.06,2.21,1.9,3.98,4.11,3.95c2.21-0.02,3.95-1.83,3.89-4.04c-0.01-0.45-0.1-0.89-0.25-1.29H78V94.365z M78,68.335
		c-2.76,0-5-2.24-5-5s2.24-5,5-5s5,2.24,5,5S80.76,68.335,78,68.335z"/>
	<path id="icon:3_3_" style="display:inline;" d="M53.342,90.453c-0.56-5.51-5.24-9.817-10.93-9.817s-10.369,4.307-10.93,9.817
		c-0.033,0.372-0.055,0.732-0.055,1.115c0,6.034,4.921,10.932,10.984,10.932s10.984-4.897,10.984-10.932
		C53.397,91.186,53.375,90.825,53.342,90.453z M42.412,95.941c-2.428,0-4.394-1.957-4.394-4.373c0-2.416,1.966-4.373,4.394-4.373
		c2.428,0,4.394,1.957,4.394,4.373C46.806,93.984,44.84,95.941,42.412,95.941z M109.362,90.453c-0.56-5.51-5.24-9.817-10.93-9.817
		c-5.69,0-10.369,4.307-10.93,9.817c-0.033,0.372-0.055,0.732-0.055,1.115c0,6.034,4.921,10.932,10.984,10.932
		s10.984-4.897,10.984-10.932C109.417,91.186,109.395,90.825,109.362,90.453z M98.433,95.941c-2.428,0-4.394-1.957-4.394-4.373
		c0-2.416,1.966-4.373,4.394-4.373c2.428,0,4.394,1.957,4.394,4.373C102.826,93.984,100.86,95.941,98.433,95.941z M116.085,76.636
		c-0.044-1.793-0.077-3.837-0.077-6.012c0-7.018-5.767-12.757-12.819-12.757h-3.46c0.055-0.481,0.077-0.962,0.077-1.454
		c0-11.773-13.522-21.316-30.207-21.316c-16.576,0-30.031,9.423-30.196,21.087L27.396,44.224c2.779-0.076,6.151-1.651,8.974-4.46
		c4.427-4.405,5.822-10.177,3.109-12.877c-2.713-2.711-8.524-1.323-12.951,3.083c-2.823,2.809-4.405,6.165-4.482,8.931l-3.021-3.006
		l-2.329,2.328l2.79,2.777c-2.68,0.219-5.833,1.782-8.491,4.427c-4.438,4.416-5.822,10.188-3.109,12.899
		c2.713,2.689,8.513,1.312,12.951-3.105c2.658-2.645,4.218-5.783,4.449-8.45l11.149,11.096h-0.428c-3.526,0-6.733,1.432-9.051,3.75
		c-2.329,2.307-3.768,5.499-3.768,9.008c0,2.175-0.033,4.22-0.077,6.012h-5.415v13.479h10.512c0.725-7.16,6.81-12.757,14.203-12.757
		s13.478,5.597,14.203,12.757H84.23c0.725-7.16,6.81-12.757,14.203-12.757s13.478,5.597,14.203,12.757h8.864V76.636H116.085z
		 M29.121,32.549c1.615-1.596,3.954-1.858,5.251-0.579c1.274,1.279,1.022,3.618-0.582,5.214c-1.615,1.607-3.976,1.869-5.251,0.59
		C27.243,36.495,27.506,34.156,29.121,32.549z M18.257,52.652c-1.626,1.607-3.976,1.858-5.251,0.579
		c-1.296-1.279-1.033-3.618,0.582-5.225c1.615-1.596,3.954-1.858,5.251-0.579C20.114,48.706,19.861,51.045,18.257,52.652z
		 M66.666,58.326H45.773c0-7.608,9.139-16.714,20.892-16.714V58.326z M72.136,58.326V41.611c11.753,0,20.892,9.106,20.892,16.714
		H72.136z"/>
	<path id="icon:2_2_" style="display:inline;" d="M87.335,23L70.33,53.89h35.267L87.335,23z M39.404,23L22.4,53.89h37.267L39.404,23
		z M102.512,68.815V57.73H73.416v11.085H54.581V57.73H25.485v11.085H17.5V105h38.911V91.421c0-3.979,3.285-7.235,7.299-7.235h0.579
		c4.014,0,7.299,3.256,7.299,7.235V105H110.5V68.815H102.512z M31.489,94.281h-7.748v-9.432c0-2.118,1.747-3.84,3.874-3.84
		c1.058,0,2.037,0.426,2.736,1.128c0.699,0.693,1.138,1.653,1.138,2.712V94.281z M45.228,94.281H37.48v-9.432
		c0-1.059,0.439-2.019,1.138-2.712c0.699-0.703,1.677-1.128,2.736-1.128c2.127,0,3.874,1.722,3.874,3.84V94.281z M88.863,94.281
		h-7.748v-9.432c0-2.118,1.747-3.84,3.874-3.84c1.058,0,2.037,0.426,2.736,1.128c0.699,0.693,1.138,1.653,1.138,2.712V94.281z
		 M102.602,94.281h-7.748v-9.432c0-1.059,0.439-2.019,1.138-2.712c0.699-0.703,1.677-1.128,2.736-1.128
		c2.127,0,3.874,1.722,3.874,3.84V94.281z"/>
	<path id="icon:1_2_" style="display:inline;" d="M104.42,67.475v-6.68h-8.71v-9.66H92.5v9.66h-8.72v6.68
		c-2.55,1.36-4.82,3.21-6.73,5.44h-6.66v-11.55h-3.21l-1.67-47.93h-3.02l-1.67,47.93h-3.49v11.55h-6.38
		c-1.91-2.23-4.18-4.08-6.73-5.44v-6.68H35.5v-9.66h-3.21v9.66h-8.71v6.68c-7.61,4.06-12.83,12.5-12.83,22.24
		c0,13.72,10.36,24.85,23.15,24.85c4.63,0,8.94-1.46,12.55-3.98h35.1c3.61,2.52,7.92,3.98,12.55,3.98
		c12.79,0,23.15-11.13,23.15-24.85C117.25,79.975,112.03,71.535,104.42,67.475z M32.25,106.165c-8.27,0-15-6.73-15-15
		c0-8.27,6.73-15,15-15s15,6.73,15,15C47.25,99.435,40.52,106.165,32.25,106.165z M74.51,95.965H53.49v-4.97h21.02V95.965z
		 M74.51,86.305H53.49v-4.97h21.02V86.305z M95.25,106.165c-8.27,0-15-6.73-15-15c0-8.27,6.73-15,15-15s15,6.73,15,15
		C110.25,99.435,103.52,106.165,95.25,106.165z M32.25,79.165c-6.62,0-12,5.38-12,12s5.38,12,12,12s12-5.38,12-12
		S38.87,79.165,32.25,79.165z M37.75,96.665h-11v-11h11V96.665z M95.25,79.165c-6.62,0-12,5.38-12,12s5.38,12,12,12s12-5.38,12-12
		S101.87,79.165,95.25,79.165z M100.75,96.665h-11v-11h11V96.665z"/>
</g>
<g id="row2_1_">
	<path id="icon:4_3_" style="display:none;" d="M110,26.5v10H96v25.81h-4V36.5H66.93v43h-4v-43H36v25.81h-4V36.5H18v-10H110z
		 M33.856,66.895l-7.313-5.84l2.484,9.023l-7.814,5.151l9.349,0.426l2.484,9.023l3.294-8.76l9.349,0.426l-7.313-5.84l3.294-8.76
		L33.856,66.895z M86,72.833c0-4.418,3.582-8,8-8s8,3.582,8,8c0,4.418-3.582,8-8,8S86,77.252,86,72.833z M80.33,96.5
		c0,1.75-0.3,3.43-0.86,5c-2.05-5.82-7.6-10-14.14-10c-6.53,0-12.09,4.18-14.14,10c-0.56-1.57-0.86-3.25-0.86-5
		c0-8.28,6.72-15,15-15C73.62,81.5,80.33,88.22,80.33,96.5z"/>
	<path id="icon:3_4_" d="M103,38.5H25c-5.5,0-10,4.5-10,10v31c0,5.5,4.5,10,10,10h78c5.5,0,10-4.5,10-10v-31
		C113,43,108.5,38.5,103,38.5z M99.65,51.5c2.21,0,4,1.79,4,4c0,2.21-1.79,4-4,4s-4-1.79-4-4C95.65,53.29,97.44,51.5,99.65,51.5z
		 M35.27,66.5h-6.18v6.19h-5V66.5H17.9v-5h6.19v-6.19h5v6.19h6.18V66.5z M87,81H37V47h50V81z M92.15,67c-2.21,0-4-1.79-4-4
		c0-2.21,1.79-4,4-4s4,1.79,4,4C96.15,65.21,94.36,67,92.15,67z M99.65,74.5c-2.21,0-4-1.79-4-4c0-2.21,1.79-4,4-4s4,1.79,4,4
		C103.65,72.71,101.86,74.5,99.65,74.5z M107.15,67c-2.21,0-4-1.79-4-4c0-2.21,1.79-4,4-4s4,1.79,4,4
		C111.15,65.21,109.36,67,107.15,67z"/>
	<path id="icon:2_3_" style="display:none;" d="M64.847,102H48.153V81.869C36.229,78.229,28,67.164,28,54.564
		C28,38.814,40.785,26,56.5,26S85,38.814,85,54.564c0,12.6-8.229,23.664-20.153,27.305V102z M51.153,99h10.693V79.577l1.121-0.293
		c5.036-1.316,9.389-4.093,12.656-7.808L37.38,71.48c3.267,3.713,7.619,6.488,12.653,7.804l1.121,0.293V99z M91,84
		c-4.971,0-9,4.029-9,9s4.029,9,9,9s9-4.029,9-9S95.971,84,91,84z"/>
	<path id="icon:1_3_" style="display:none;" d="M92,29v10.5h-8v-2.804c0-1.997-1.635-3.768-3.631-3.694
		c-0.909,0.034-1.738,0.417-2.339,1.028C77.39,34.66,77,35.54,77,36.5v3h-4v-2.804c0-1.997-1.635-3.768-3.631-3.694
		c-0.909,0.034-1.738,0.417-2.339,1.028C66.39,34.66,66,35.54,66,36.5v3h-4l0-2.804c0-1.997-1.635-3.768-3.631-3.694
		c-0.909,0.034-1.738,0.417-2.339,1.028C55.39,34.66,55,35.54,55,36.5v3h-4v-3c0-0.96-0.39-1.84-1.03-2.47
		c-0.601-0.611-1.43-0.994-2.339-1.028C45.635,32.928,44,34.699,44,36.696l0,2.804h-8V29c0-1.657-1.343-3-3-3h0
		c-1.657,0-3,1.343-3,3v70c0,1.657,1.343,3,3,3h0c1.657,0,3-1.343,3-3V83.5h4v2.9c0,1.67,1.129,3.19,2.765,3.525
		C45.015,90.385,47,88.67,47,86.5v-3h4l0,2.804c0,1.997,1.635,3.768,3.631,3.694c0.909-0.034,1.738-0.417,2.339-1.028
		C57.61,88.34,58,87.46,58,86.5v-3h34V99c0,1.657,1.343,3,3,3l0,0c1.657,0,3-1.343,3-3V29c0-1.657-1.343-3-3-3l0,0
		C93.343,26,92,27.343,92,29z M92,79.5H58v-3c0-1.93-1.57-3.5-3.5-3.5c-0.96,0-1.84,0.39-2.47,1.03C51.39,74.66,51,75.54,51,76.5v3
		h-4v-3c0-0.96-0.39-1.84-1.03-2.47C45.34,73.39,44.46,73,43.5,73c-1.93,0-3.5,1.57-3.5,3.5v3h-4v-16h30v3c0,1.93,1.57,3.5,3.5,3.5
		c0.96,0,1.84-0.39,2.47-1.03C72.61,68.34,73,67.46,73,66.5v-3h4v3c0,1.93,1.57,3.5,3.5,3.5c0.96,0,1.84-0.39,2.47-1.03
		C83.61,68.34,84,67.46,84,66.5v-3h8V79.5z M92,59.5h-8v-3c0-1.93-1.57-3.5-3.5-3.5c-0.96,0-1.84,0.39-2.47,1.03
		C77.39,54.66,77,55.54,77,56.5v3h-4v-3c0-1.93-1.57-3.5-3.5-3.5c-0.96,0-1.84,0.39-2.47,1.03C66.39,54.66,66,55.54,66,56.5v3H36
		v-16h8v3c0,1.93,1.57,3.5,3.5,3.5s3.5-1.57,3.5-3.5v-3h4v3c0,1.93,1.57,3.5,3.5,3.5c0.96,0,1.84-0.39,2.47-1.03
		C61.61,48.34,62,47.46,62,46.5v-3h4v3c0,1.93,1.57,3.5,3.5,3.5c0.96,0,1.84-0.39,2.47-1.03C72.61,48.34,73,47.46,73,46.5v-3h4v3
		c0,1.93,1.57,3.5,3.5,3.5c0.96,0,1.84-0.39,2.47-1.03C83.61,48.34,84,47.46,84,46.5v-3h8V59.5z"/>
</g>
<g id="row1_1_">
	<path id="icon:3_1_" style="display:none;" d="M57,93.25h14l-6.592,8L57,93.25z M55.073,90.75h18.402l4.524-5H50L55.073,90.75z
		 M48.935,83.75h30.674l4.392-5H44L48.935,83.75z M42.443,76.75h43.658l4.399-5h-53L42.443,76.75z M96.46,52.83h-2.47
		c-1.64-5.99-12.1-10.74-25.34-11.49V39.1c1.87-1.2,3.12-3.26,3.12-5.62c0-3.72-3.08-6.73-6.87-6.73c-3.8,0-6.88,3.01-6.88,6.73
		c0,2.36,1.24,4.44,3.13,5.63v2.23c-13.24,0.75-23.71,5.5-25.35,11.49h-4.26c-2.78,0-5.04,2.22-5.04,4.93v2.37
		c0,2.72,2.26,4.93,5.04,4.93l4.17,4.46h57.03l3.72-4.46c2.78,0,5.04-2.21,5.04-4.93v-2.37C101.5,55.05,99.24,52.83,96.46,52.83z"/>
	<path id="icon:3" style="display:none;" d="M92.243,44.495c-0.369-0.017-0.746-0.026-1.123-0.026H70.144V40H57.856v4.469H36.889
		C24.803,44.469,15,54.211,15,66.239C15,78.259,24.803,88,36.889,88c6.644,0,12.595-2.942,16.605-7.577h21.02
		C78.525,85.058,84.476,88,91.12,88C103.205,88,113,78.259,113,66.239C113,54.586,103.802,45.08,92.243,44.495z M45.508,69.748
		h-5.512v5.473h-7.627v-5.473h-5.503v-7.585h5.503V56.69h7.627v5.473h5.512V69.748z M62.552,53.512c0,0.672-0.553,1.231-1.238,1.231
		h-5.731c-0.676,0-1.238-0.559-1.238-1.231v-1.03c0-0.672,0.562-1.231,1.238-1.231h5.731c0.685,0,1.238,0.559,1.238,1.231V53.512z
		 M73.654,53.512c0,0.672-0.562,1.231-1.237,1.231h-5.731c-0.685,0-1.237-0.559-1.237-1.231v-1.03c0-0.672,0.553-1.231,1.237-1.231
		h5.731c0.676,0,1.237,0.559,1.237,1.231V53.512z M81.799,69.748c-2.106,0-3.818-1.702-3.818-3.797c0-2.086,1.711-3.788,3.818-3.788
		c2.106,0,3.809,1.702,3.809,3.788C85.608,68.046,83.905,69.748,81.799,69.748z M91.12,79.018c-2.106,0-3.818-1.702-3.818-3.797
		c0-2.095,1.711-3.788,3.818-3.788c2.106,0,3.809,1.693,3.809,3.788C94.929,77.316,93.226,79.018,91.12,79.018z M91.12,60.478
		c-2.106,0-3.818-1.693-3.818-3.788s1.711-3.797,3.818-3.797c2.106,0,3.809,1.702,3.809,3.797S93.226,60.478,91.12,60.478z
		 M100.432,69.748c-2.098,0-3.809-1.702-3.809-3.797c0-2.086,1.711-3.788,3.809-3.788c2.106,0,3.818,1.702,3.818,3.788
		C104.25,68.046,102.538,69.748,100.432,69.748z"/>
	<path id="icon:2" style="display:none;" d="M102.037,38.41c-4.215,2.546-11.132,1.005-15.663-0.475
		C84.523,28.282,76.18,21,66.161,21c-11.376,0-20.597,9.395-20.597,20.984c0,7.707,4.074,14.44,10.149,18.088
		c3.065,1.84-2.454,12.466-25.767-9.325c-1.344-1.254-19.167,28.447,5.659,47.78c23.689,18.448,50.778,3.228,54.549-12.037
		c4.115-16.654-12.39-27.128-11.526-27.801c1.34-1.038,2.549-2.241,3.599-3.579c2.997-0.078,7.293-0.512,12.567-1.942
		C105.432,50.286,108.715,34.375,102.037,38.41z M75.894,81.638c-0.742,5.954-6.668,11.705-15.278,10.617
		c-17.619-2.232-18.787-16.488-18.787-16.488s7.732,5.331,21.956-4.727C70.544,66.257,76.809,74.365,75.894,81.638z M74.084,43.022
		c-2.123,0-3.848-1.808-3.848-4.035c0-2.228,1.725-4.035,3.848-4.035s3.848,1.808,3.848,4.035
		C77.931,41.214,76.207,43.022,74.084,43.022z"/>
	<path id="icon:1" style="display:none;" d="M88.595,85.887c-4.58-0.866-9.121,2.906-10.164,8.429
		c-1.033,5.523,1.828,10.698,6.398,11.563c4.57,0.856,9.121-2.916,10.154-8.439C96.027,91.917,93.165,86.743,88.595,85.887z
		 M48.585,94.316c-1.033-5.523-5.584-9.294-10.154-8.429c-4.57,0.856-7.432,6.03-6.398,11.553c1.043,5.523,5.584,9.294,10.164,8.439
		C46.767,105.013,49.629,99.839,48.585,94.316z M102.027,65.845l-1.123-2.239c-1.103-2.199-3.805-3.105-5.991-1.99l-11.475,5.752
		c-0.348-0.428-0.835-0.906-1.331-1.353c6.408-4.438,10.492-11.135,10.492-18.639c0-2.597-0.487-5.085-1.391-7.424
		c2.941-1.602,4.948-4.767,4.948-8.419c0-5.264-4.183-9.533-9.349-9.533c-3.448,0-6.468,1.901-8.077,4.737
		c-4.362-2.219-9.468-3.493-14.943-3.493c-5.047,0-9.786,1.085-13.909,2.995C48.198,23.682,45.337,22,42.098,22
		c-5.166,0-9.359,4.269-9.359,9.533c0,3.194,1.54,6.021,3.895,7.752c-1.073,2.528-1.659,5.254-1.659,8.09
		c0,7.284,3.855,13.812,9.945,18.241c-0.487,0.408-1.063,0.916-1.351,1.254l-10.482-5.254c-2.186-1.115-4.888-0.209-5.991,1.99
		l-1.123,2.239c-1.103,2.209-0.209,4.916,1.987,6.011l10.601,5.324c-0.07,0.547-2.007,4.12-1.848,5.314
		c0.338-0.099,0.686-0.179,1.033-0.249c6.418-1.204,12.777,3.931,14.188,11.444c0.189,1.005,0.278,2.01,0.278,2.985
		c0,2.289-0.497,4.458-1.391,6.349c3.189,1.602,8.733,2.498,12.489,2.498c3.875,0,9.538-0.955,12.807-2.657
		c-1.212-2.677-1.649-5.891-1.023-9.175c1.411-7.513,7.779-12.648,14.178-11.444c0.209,0.04,0.417,0.09,0.626,0.139
		c0.159-1.164-1.769-4.199-1.808-4.528l11.952-6.001C102.236,70.761,103.13,68.054,102.027,65.845z M50.374,39.335
		c0-1.741,1.411-3.155,3.149-3.155c1.729,0,3.14,1.413,3.14,3.155s-1.411,3.145-3.14,3.145
		C51.785,42.48,50.374,41.076,50.374,39.335z M64.114,64.959c-6.716,0-12.171-4.667-12.171-10.409c0-3.682,2.235-6.916,5.613-8.777
		c0.427,3.662,3.15,6.498,6.438,6.498c3.328,0,6.07-2.896,6.448-6.618c3.507,1.831,5.842,5.125,5.842,8.896
		C76.285,60.292,70.84,64.959,64.114,64.959z M75.381,42.48c-1.739,0-3.149-1.403-3.149-3.145s1.411-3.155,3.149-3.155
		c1.729,0,3.14,1.413,3.14,3.155S77.11,42.48,75.381,42.48z M70.95,55.715c0,2.975-3.12,5.404-6.955,5.404
		c-3.835,0-6.955-2.428-6.955-5.404h0.994c0,2.309,2.414,4.199,5.464,4.388v-6.011h0.994v6.011c3.06-0.189,5.464-2.08,5.464-4.388
		H70.95z"/>
</g>
</svg>
