<?xml version="1.0" encoding="iso-8859-1"?>
<!-- Generator: Adobe Illustrator 19.0.0, SVG Export Plug-In . SVG Version: 6.00 Build 0)  -->
<svg xmlns="http://www.w3.org/2000/svg" xmlns:xlink="http://www.w3.org/1999/xlink" version="1.1" id="Layer_1" x="0px" y="0px" viewBox="0 0 512 512" style="enable-background:new 0 0 512 512;" xml:space="preserve">
<path style="fill:#065B75;" d="M433.314,330.796v-87.309h58.033c7.228,0,13.108,5.88,13.108,13.108v61.093  c0,7.228-5.88,13.108-13.108,13.108H433.314z"/>
<path style="fill:#054F60;" d="M474.113,264.027v-20.539h-40.799v87.309h58.033c7.239,0,13.108-5.869,13.108-13.108V294.37l0,0  C487.697,294.369,474.113,280.784,474.113,264.027z"/>
<path style="fill:#427AA1;" d="M425.466,200.371h-66.904H69.601l-0.031-0.2c0,0-7.732,0.196-7.817,0.2H32.64  c-13.837,0-25.094,11.258-25.094,25.094v123.352c0,13.837,11.258,25.094,25.094,25.094h392.826  c13.837,0,25.094-11.258,25.094-25.094V225.465C450.56,211.628,439.302,200.371,425.466,200.371z"/>
<path style="fill:#17688C;" d="M91.924,356.227c-13.837,0-25.094-11.258-25.094-25.094V207.78c0-2.638,0.412-5.179,1.17-7.57  c-2.264,0.057-6.186,0.157-6.246,0.161H32.64c-13.837,0-25.094,11.258-25.094,25.094v123.352c0,13.837,11.258,25.094,25.094,25.094  h392.826c11.259,0,20.809-7.454,23.978-17.685L91.924,356.227L91.924,356.227z"/>
<path style="fill:#A5BE00;" d="M352.548,232.708H75.611H50.353c-5.783,0-10.471,4.688-10.471,10.471v87.926  c0,5.783,4.688,10.471,10.471,10.471h25.258h276.937h55.204c5.783,0,10.471-4.688,10.471-10.471v-87.926  c0-5.783-4.688-10.471-10.471-10.471H352.548z"/>
<path style="fill:#679436;" d="M279.969,298.417c-16.975,0-33.635-5.742-46.911-16.171l-6.792-5.333l-0.1,0.099l-0.365-0.465  l-0.388-0.305l0.083-0.083l-5.336-6.78c-1.32-1.678-2.64-3.541-4.035-5.695v-0.001c-1.642-2.535-1.837-5.745-0.514-8.461  l0.001-0.001c4.985-10.231,7.513-21.252,7.513-32.754c0-11.503-2.528-22.524-7.513-32.756l0,0c-1.323-2.716-1.129-5.926,0.513-8.461  l0,0c2.955-4.565,6.351-8.777,10.09-12.517c25.027-25.028,105.07-29.633,129.006-30.449l0,0c4.991-0.17,9.081,3.921,8.911,8.911l0,0  c-0.816,23.936-5.422,103.979-30.451,129.007c-14.323,14.325-33.397,22.214-53.709,22.215  C279.971,298.417,279.97,298.417,279.969,298.417z"/>
<path style="fill:#557C18;" d="M279.738,282.268l-6.792-5.333l-0.1,0.099l-0.365-0.465l-0.388-0.305l0.083-0.083l-5.336-6.78  c-1.32-1.678-2.64-3.541-4.035-5.695v-0.001c-1.642-2.536-1.837-5.745-0.514-8.461l0.001-0.001  c4.985-10.231,7.513-21.252,7.513-32.754c0-11.503-2.528-22.524-7.513-32.756c-1.323-2.716-1.129-5.926,0.513-8.461l0,0  c2.955-4.565,6.351-8.777,10.09-12.517c16.438-16.439,56.614-24.067,89.034-27.598c-1.639-1.83-4.042-2.963-6.71-2.873l0,0  c-23.936,0.816-103.979,5.422-129.006,30.449c-3.74,3.74-7.136,7.952-10.09,12.517l0,0c-1.642,2.536-1.837,5.746-0.513,8.461  c4.985,10.231,7.513,21.253,7.513,32.756c0,11.502-2.528,22.523-7.513,32.754v0.001c-1.323,2.715-1.127,5.925,0.514,8.461v0.001  c1.395,2.154,2.715,4.017,4.035,5.695l5.336,6.78l-0.083,0.083l0.388,0.305l0.365,0.465l0.1-0.099l6.792,5.333  c13.276,10.429,29.936,16.171,46.911,16.171c0.001,0,0.002,0,0.003,0c8.062,0,15.922-1.263,23.374-3.658  C294.829,292.023,286.803,287.816,279.738,282.268z"/>
<path style="fill:#679436;" d="M148.211,298.459c-20.299,0-39.382-7.905-53.735-22.259c-25.028-25.028-29.633-105.07-30.449-129.006  l0,0c-0.17-4.991,3.921-9.081,8.911-8.911l0,0c23.936,0.816,103.978,5.422,129.007,30.449  c14.353,14.352,22.259,33.435,22.259,53.734c0,17.213-5.607,33.432-16.215,46.904l-5.336,6.777l0.091,0.091l-0.427,0.335  l-0.335,0.427l-0.091-0.091l-6.777,5.336C181.643,292.852,165.423,298.459,148.211,298.459z"/>
<path style="fill:#557C18;" d="M146.399,276.201c-25.028-25.028-29.633-105.07-30.449-129.006l0,0  c-0.071-2.076,0.604-3.99,1.766-5.513c-18.912-2.253-35.794-3.092-44.776-3.399l0,0c-4.991-0.17-9.082,3.921-8.912,8.912l0,0  c0.816,23.936,5.422,103.978,30.449,129.006c14.352,14.353,33.436,22.259,53.735,22.259c9.011,0,17.744-1.551,25.96-4.538  C163.852,290.179,154.39,284.193,146.399,276.201z"/>
<path d="M491.346,235.941h-33.241v-10.476c0-17.998-14.642-32.64-32.64-32.64h-57.311c3.44-28.847,3.709-53.057,3.72-54.122  c0.02-2.171-0.832-4.258-2.367-5.794c-1.535-1.535-3.579-2.36-5.794-2.367c-1.119,0.011-27.764,0.306-58.502,4.26  c-42.444,5.461-70.817,15.082-84.331,28.595c-2.432,2.432-4.702,5.007-6.808,7.702c-2.098-2.677-4.348-5.258-6.791-7.7  c-13.514-13.515-41.887-23.136-84.331-28.597c-30.737-3.954-57.383-4.249-58.502-4.26h-0.077c-2.143,0-4.199,0.852-5.717,2.367  c-1.535,1.536-2.388,3.623-2.367,5.794c0.01,1.065,0.281,25.277,3.72,54.122H32.64c-17.998,0-32.64,14.642-32.64,32.64v123.352  c0,17.998,14.642,32.64,32.64,32.64h392.826c17.998,0,32.64-14.642,32.64-32.64v-10.476h33.241c11.388,0,20.654-9.266,20.654-20.654  v-61.093C512,245.207,502.734,235.941,491.346,235.941z M232.312,174.832c20.366-20.367,89.411-26.779,123.202-27.93  c-1.151,33.792-7.564,102.837-27.929,123.202c-24.329,24.331-62.787,26.107-89.201,5.361l52.536-52.535h42.382  c4.466,0,8.084-3.618,8.084-8.084s-3.618-8.084-8.084-8.084h-26.213l16.686-16.686c3.157-3.158,3.157-8.276,0-11.433  c-3.158-3.156-8.276-3.156-11.433,0l-47.174,47.174v-26.212c0-4.466-3.618-8.084-8.084-8.084s-8.084,3.618-8.084,8.084v42.381  l-22.062,22.062c-1.278-1.624-2.453-3.32-3.572-5.048c5.476-11.24,8.384-23.66,8.384-36.531c0-12.872-2.908-25.292-8.384-36.533  C225.941,181.954,228.925,178.218,232.312,174.832z M195.846,174.831C195.846,174.832,195.846,174.832,195.846,174.831  c12.726,12.725,19.733,29.642,19.733,47.636c0,15.271-5.063,29.754-14.366,41.568l-22.053-22.053v-42.381  c0-4.466-3.618-8.084-8.084-8.084s-8.084,3.618-8.084,8.084v26.212l-47.174-47.174c-3.158-3.156-8.276-3.156-11.433,0  c-3.157,3.158-3.157,8.276,0,11.433l16.686,16.686H94.858c-4.466,0-8.084,3.618-8.084,8.084c0,4.466,3.618,8.084,8.084,8.084h42.381  l52.54,52.54c-11.814,9.303-26.298,14.366-41.568,14.366c-17.994,0-34.913-7.007-47.636-19.733  c-20.366-20.366-26.778-89.41-27.929-123.202C106.436,148.053,175.481,154.466,195.846,174.831z M441.937,348.817  c0,9.097-7.375,16.471-16.471,16.471H32.64c-9.097,0-16.471-7.375-16.471-16.471V225.465c0-9.097,7.375-16.471,16.471-16.471h29.339  c0.083,0,0.164-0.01,0.246-0.012c0.895,5.686,1.876,11.075,2.939,16.18H40.421c-4.465,0-8.084,3.62-8.084,8.084v107.789  c0,4.465,3.62,8.084,8.084,8.084h235.224c4.465,0,8.084-3.62,8.084-8.084l0,0c0-4.465-3.62-8.084-8.084-8.084H48.505v-91.621h20.576  c5.247,18.635,11.953,32.099,20.06,40.205c15.944,15.945,37.199,24.651,59.777,24.465c20.783-0.171,40.694-8.402,56.072-22.384  l2.289-2.081c0.006-0.007,0.013-0.015,0.019-0.022c2.434-2.436,4.678-5.009,6.769-7.678c2.107,2.696,4.381,5.27,6.81,7.699  c16.288,16.287,37.676,24.427,59.071,24.427c21.389,0,42.785-8.145,59.069-24.427c8.108-8.108,14.814-21.571,20.061-40.207H409.6  v91.621h-94.577c-4.465,0-8.084,3.62-8.084,8.084l0,0c0,4.465,3.62,8.084,8.084,8.084h102.661c4.465,0,8.084-3.62,8.084-8.084  V233.246c0-4.465-3.62-8.084-8.084-8.084h-54.688c1.062-5.102,2.043-10.487,2.937-16.168h59.532c9.097,0,16.471,7.375,16.471,16.471  L441.937,348.817L441.937,348.817z M495.832,317.688c0,2.474-2.011,4.485-4.485,4.485h-33.241V252.11h33.241  c2.474,0,4.485,2.011,4.485,4.485V317.688z"/>
<g>
</g>
<g>
</g>
<g>
</g>
<g>
</g>
<g>
</g>
<g>
</g>
<g>
</g>
<g>
</g>
<g>
</g>
<g>
</g>
<g>
</g>
<g>
</g>
<g>
</g>
<g>
</g>
<g>
</g>
</svg>
