<?xml version="1.0" encoding="utf-8"?>
<!-- Generator: Adobe Illustrator 16.0.0, SVG Export Plug-In . SVG Version: 6.00 Build 0)  -->
<!DOCTYPE svg PUBLIC "-//W3C//DTD SVG 1.1//EN" "http://www.w3.org/Graphics/SVG/1.1/DTD/svg11.dtd">
<svg version="1.1" id="Layer_1" xmlns="http://www.w3.org/2000/svg" xmlns:xlink="http://www.w3.org/1999/xlink" x="0px" y="0px"
	 width="128px" height="128px" viewBox="0 0 128 128" enable-background="new 0 0 128 128" xml:space="preserve">
<g>
	<g>
		<path fill="#282D33" d="M50.407,118.063l-3.454-1.905L59.792,77.87H21.683L77.785,9.111l3.454,1.904l-12.84,38.289h38.11
			L50.407,118.063z M30.13,73.86h35.236l-11.117,33.15l43.814-53.697H62.825l11.117-33.151L30.13,73.86z"/>
	</g>
	<g>
		<polygon fill="#282D33" points="55.074,25.854 52.104,23.16 61.382,12.931 52.104,2.692 55.074,0 66.794,12.932 		"/>
	</g>
	<g>
		<polygon fill="#282D33" points="72.367,128 60.647,115.067 72.368,102.146 75.339,104.841 66.061,115.069 75.34,125.308 		"/>
	</g>
	<g>
		<path fill="#282D33" d="M34.515,109.319C18.801,99.427,9.418,82.526,9.418,64.108c0-29.516,24.253-53.528,54.063-53.528v4.01
			c-27.6,0-50.053,22.214-50.053,49.518c0,17.031,8.681,32.664,23.222,41.817L34.515,109.319z"/>
	</g>
	<g>
		<path fill="#282D33" d="M64.509,117.357v-4.01c27.605,0,50.063-22.214,50.063-49.519c0-17.017-8.688-32.654-23.238-41.828
			l2.138-3.392c15.724,9.912,25.11,26.817,25.11,45.22C118.582,93.345,94.325,117.357,64.509,117.357z"/>
	</g>
</g>
</svg>
