<?xml version="1.0" encoding="utf-8"?>
<!-- Generator: Adobe Illustrator 24.0.0, SVG Export Plug-In . SVG Version: 6.00 Build 0)  -->
<svg version="1.1" xmlns="http://www.w3.org/2000/svg" xmlns:xlink="http://www.w3.org/1999/xlink" x="0px" y="0px"
	 viewBox="0 0 256 256" enable-background="new 0 0 256 256" xml:space="preserve">
<g id="Layer_2">
</g>
<g id="Layer_1">
	<g>
	</g>
	<g>
		<path fill="#72C2E9" d="M251.12,60.75v141.13c0,5.52-4.48,10-10,10h-85.21v-5.4c0-2.33-1.89-4.2-4.2-4.21c-0.01,0-0.01,0-0.01,0
			h-46.05c-2.22,0-4.2,1.84-4.2,4.2v5.41H14.88c-5.52,0-10-4.48-10-10V60.75c0-5.52,4.48-10.009,10-10.009h226.24
			C246.64,50.741,251.12,55.23,251.12,60.75z"/>
		<path fill="#4BA5C8" d="M162.91,206.48v5.4h-7v-5.4c0-2.33-1.89-4.2-4.2-4.21c-0.01,0-0.01,0-0.01,0h-46.05
			c-2.22,0-4.2,1.84-4.2,4.2v5.41h-7v-5.41c0-0.7,0.06-1.39,0.19-2.05l-1.62-0.76c-6.92-3.23-9.94-11.49-6.72-18.41
			c2.28-4.87,7.22-8.02,12.59-8.02c0.23,0,0.46,0.01,0.69,0.02v-11.79c0-10.54,8.58-19.12,19.12-19.12h19.95
			c10.55,0,19.13,8.58,19.13,19.12v31.62C160.87,199.08,162.91,202.55,162.91,206.48z"/>
		<path fill="#FC5D3D" d="M171.825,22.069v28.672h-14.123V25.328H98.298v25.413H84.176V22.069c0-6,4.864-10.864,10.864-10.864
			h65.921C166.961,11.205,171.825,16.069,171.825,22.069z"/>
		<path fill="#7D7B79" d="M55.57,36.705H35.32c-2.761,0-5,2.239-5,5v9.036h30.25v-9.036C60.57,38.944,58.331,36.705,55.57,36.705z"
			/>
		<path fill="#7D7B79" d="M220.68,36.705h-20.25c-2.761,0-5,2.239-5,5v9.036h30.25v-9.036
			C225.68,38.944,223.441,36.705,220.68,36.705z"/>
		<path fill="#EFC020" d="M163.15,134.56c-2.36,2.3-3.43,5.61-2.87,8.85l3.09,18.05c0.82,4.8-1.8,8.93-5.59,10.74
			c-2.1,1-4.56,1.29-7,0.58v-7.32c0-6.69-5.44-12.12-12.13-12.12H118.7c-6.69,0-12.12,5.43-12.12,12.12v6.81
			c-2.36,1.07-4.81,1.13-7,0.46c-4.5-1.39-7.87-5.91-6.95-11.27l3.09-18.05c0.56-3.24-0.51-6.55-2.87-8.85l-13.11-12.78
			c-5.94-5.78-2.66-15.86,5.54-17.06l18.12-2.63c3.26-0.47,6.07-2.52,7.53-5.47l8.1-16.42c3.67-7.43,14.27-7.43,17.94,0l8.1,16.42
			c1.46,2.95,4.27,5,7.53,5.47l18.12,2.63c8.2,1.2,11.48,11.28,5.54,17.06L163.15,134.56z"/>
		<path fill="#E8A61E" d="M157.78,165.46v6.74c-2.1,1-4.56,1.29-7,0.58v-7.32c0-6.69-5.44-12.12-12.13-12.12H118.7
			c-6.69,0-12.12,5.43-12.12,12.12v6.81c-2.36,1.07-4.81,1.13-7,0.46v-7.27c0-10.54,8.58-19.12,19.12-19.12h19.95
			C149.2,146.34,157.78,154.92,157.78,165.46z"/>
		<path fill="#FC5D3D" d="M160.866,244.795v-22.456c0-1.433-1.162-2.592-2.595-2.592H99.088c-1.433,0-2.595,1.158-2.595,2.592
			v22.456H160.866z"/>
		<path fill="#FFB69F" d="M150.78,165.46v36.81h-44.2l-10.6-4.95c-3.43-1.6-4.93-5.68-3.33-9.12c1.61-3.45,5.73-4.92,9.13-3.32
			l4.8,2.24v-21.66c0-6.69,5.43-12.12,12.12-12.12h19.95C145.34,153.34,150.78,158.77,150.78,165.46z"/>
		<path fill="#EFEFEF" d="M155.91,206.48v13.267h-54.46V206.47c0-2.36,1.98-4.2,4.2-4.2h46.05c0,0,0,0,0.01,0
			C154.02,202.28,155.91,204.15,155.91,206.48z"/>
		<path fill="#F0C020" d="M74.433,165.567c-3.683-1.217-7.487-2.281-9.623-11.48c-1.967,8.473-5.118,9.992-9.623,11.48
			c7.347,2.428,8.455,6.447,9.623,11.48C66.823,168.371,70.153,166.981,74.433,165.567z"/>
		<path d="M62.401,177.606c-1.067-4.599-1.771-7.637-7.989-9.691c-2.259-0.746-2.254-3.952,0-4.697
			c3.743-1.237,6.216-2.054,7.989-9.692c0.589-2.538,4.228-2.545,4.818,0c1.813,7.811,4.522,8.549,7.989,9.691
			c2.259,0.746,2.254,3.952,0,4.697c-3.609,1.192-6.218,2.054-7.989,9.691C66.627,180.156,62.993,180.157,62.401,177.606z
			 M60.987,165.623c1.78,1.222,2.996,2.618,3.872,4.094c1.061-1.875,2.29-3.166,3.659-4.128c-1.312-0.939-2.583-2.269-3.699-4.279
			C63.716,163.295,62.427,164.636,60.987,165.623z"/>
		<path fill="#F0C020" d="M200.813,80.516c-3.683-1.217-7.487-2.281-9.623-11.481c-1.967,8.473-5.118,9.992-9.623,11.481
			c7.347,2.428,8.455,6.447,9.623,11.48C193.203,83.32,196.533,81.93,200.813,80.516z"/>
		<path d="M188.78,92.555c-1.067-4.599-1.771-7.637-7.989-9.691c-2.259-0.746-2.254-3.952,0-4.697
			c3.743-1.237,6.216-2.054,7.989-9.692c0.589-2.538,4.228-2.545,4.818,0c1.813,7.811,4.522,8.549,7.989,9.691
			c2.259,0.746,2.254,3.952,0,4.697c-3.609,1.192-6.218,2.054-7.989,9.691C193.007,95.105,189.373,95.106,188.78,92.555z
			 M187.367,80.572c1.78,1.222,2.996,2.618,3.872,4.094c1.061-1.875,2.29-3.166,3.659-4.128c-1.312-0.939-2.583-2.269-3.699-4.279
			C190.096,78.244,188.807,79.584,187.367,80.572z"/>
		<g>
			<g>
				<path fill="#C5E5FE" d="M79.333,203.39h-46c-1.381,0-2.5-1.119-2.5-2.5s1.119-2.5,2.5-2.5h46c1.381,0,2.5,1.119,2.5,2.5
					S80.714,203.39,79.333,203.39z M23.333,203.39H18.33c-1.381,0-2.5-1.119-2.5-2.5s1.119-2.5,2.5-2.5h5.003
					c1.381,0,2.5,1.119,2.5,2.5S24.714,203.39,23.333,203.39z"/>
			</g>
			<g>
				<path fill="#C5E5FE" d="M240.12,203.39h-71.787c-1.381,0-2.5-1.119-2.5-2.5s1.119-2.5,2.5-2.5h69.287V61.75
					c0-1.381,1.119-2.5,2.5-2.5s2.5,1.119,2.5,2.5v139.14C242.62,202.271,241.501,203.39,240.12,203.39z"/>
			</g>
			<g>
				<path fill="#F8E5B0" d="M147.636,142.037c-0.01-1.309,0.059-2.533,0.292-3.957c0.223-1.363,1.507-2.287,2.871-2.063
					c1.362,0.223,2.286,1.508,2.063,2.87c-0.183,1.121-0.233,2.06-0.228,3.076c0.021,1.381-1.082,2.517-2.462,2.537
					C148.703,144.5,147.655,143.351,147.636,142.037z M152.822,131.388c-1.088-0.851-1.281-2.422-0.431-3.51
					c1.229-1.574,1.149-1.404,11.516-11.517l-13.092-1.9c-7.321-1.054-13.661-5.655-16.954-12.308
					c-8.521-17.264-8.363-16.577-8.363-17.519c0-2.646,3.58-3.47,4.746-1.106l8.1,16.409c2.562,5.175,7.492,8.755,13.188,9.575
					l18.106,2.629c2.046,0.297,2.868,2.818,1.387,4.264c-14.345,13.991-13.708,13.29-14.692,14.551
					C155.481,132.044,153.911,132.237,152.822,131.388z"/>
			</g>
			<g>
				<path fill="#FFCBC2" d="M146.708,234.77h-8.69c-1.381,0-2.5-1.119-2.5-2.5s1.119-2.5,2.5-2.5h8.69c1.381,0,2.5,1.119,2.5,2.5
					S148.089,234.77,146.708,234.77z M128.018,234.77h-18c-1.381,0-2.5-1.119-2.5-2.5s1.119-2.5,2.5-2.5h18
					c1.381,0,2.5,1.119,2.5,2.5S129.399,234.77,128.018,234.77z"/>
			</g>
			<g>
				<g>
					<g>
						<g>
							<g>
								<g>
									<g>
										<path fill="#C5E5FE" d="M79.333,203.39h-46c-1.381,0-2.5-1.119-2.5-2.5s1.119-2.5,2.5-2.5h46c1.381,0,2.5,1.119,2.5,2.5
											S80.714,203.39,79.333,203.39z M23.333,203.39H18.33c-1.381,0-2.5-1.119-2.5-2.5s1.119-2.5,2.5-2.5h5.003
											c1.381,0,2.5,1.119,2.5,2.5S24.714,203.39,23.333,203.39z"/>
									</g>
									<g>
										<path fill="#C5E5FE" d="M240.12,203.39h-71.787c-1.381,0-2.5-1.119-2.5-2.5s1.119-2.5,2.5-2.5h69.287V61.75
											c0-1.381,1.119-2.5,2.5-2.5s2.5,1.119,2.5,2.5v139.14C242.62,202.271,241.501,203.39,240.12,203.39z"/>
									</g>
								</g>
							</g>
						</g>
					</g>
					<g>
						<path fill="#F8E5B0" d="M147.636,142.037c-0.01-1.309,0.059-2.533,0.292-3.957c0.223-1.363,1.507-2.287,2.871-2.063
							c1.362,0.223,2.286,1.508,2.063,2.87c-0.183,1.121-0.233,2.06-0.228,3.076c0.021,1.381-1.082,2.517-2.462,2.537
							C148.703,144.5,147.655,143.351,147.636,142.037z M152.822,131.388c-1.088-0.851-1.281-2.422-0.431-3.51
							c1.229-1.574,1.149-1.404,11.516-11.517l-13.092-1.9c-7.321-1.054-13.661-5.655-16.954-12.308
							c-8.521-17.264-8.363-16.577-8.363-17.519c0-2.646,3.58-3.47,4.746-1.106l8.1,16.409c2.562,5.175,7.492,8.755,13.188,9.575
							l18.106,2.629c2.046,0.297,2.868,2.818,1.387,4.264c-14.345,13.991-13.708,13.29-14.692,14.551
							C155.481,132.044,153.911,132.237,152.822,131.388z"/>
					</g>
					<g>
						<g>
							<path fill="#FFCBC2" d="M146.708,234.77h-8.69c-1.381,0-2.5-1.119-2.5-2.5s1.119-2.5,2.5-2.5h8.69c1.381,0,2.5,1.119,2.5,2.5
								S148.089,234.77,146.708,234.77z M128.018,234.77h-18c-1.381,0-2.5-1.119-2.5-2.5s1.119-2.5,2.5-2.5h18
								c1.381,0,2.5,1.119,2.5,2.5S129.399,234.77,128.018,234.77z"/>
						</g>
					</g>
				</g>
			</g>
			<circle cx="229.06" cy="211.88" r="2.5"/>
			<path d="M253.62,201.88V60.75c0-6.9-5.61-12.51-12.5-12.51h-12.94v-6.53c0-4.141-3.36-7.5-7.5-7.51h-20.25
				c-4.14,0.01-7.5,3.369-7.5,7.51v6.53h-18.6V22.069c-0.01-7.369-6-13.359-13.37-13.369h-8.81c-1.38,0-2.5,1.13-2.5,2.5
				c0,1.38,1.12,2.51,2.5,2.51c0.01,0,0.01-0.01,0.01-0.01h8.8c4.61,0.01,8.36,3.76,8.36,8.369V48.24h-9.12V25.33
				c0-1.335-1.074-2.5-2.5-2.5H98.3c-1.423,0-2.5,1.162-2.5,2.5v22.91h-9.13l0.01-26.171c0-4.609,3.76-8.359,8.36-8.369h37.11
				c1.38,0,2.5-1.12,2.5-2.5c0-1.37-1.12-2.49-2.5-2.49L95.04,8.7c-7.37,0.01-13.36,6-13.37,13.369V48.24h-18.6v-6.53
				c0-4.141-3.36-7.5-7.5-7.51H35.32c-4.14,0.01-7.5,3.369-7.5,7.51v6.53H14.88c-6.89,0-12.5,5.609-12.5,12.51v141.13
				c0,6.89,5.61,12.5,12.5,12.5h84.07v2.881c-2.744,0.075-4.957,2.318-4.957,5.078v22.456c0,1.381,1.119,2.5,2.5,2.5
				s2.5-1.119,2.5-2.5v-22.456c0-0.052,0.042-0.092,0.095-0.092c6.524,0,52.547,0,59.184,0c0.053,0,0.095,0.04,0.095,0.092v22.456
				c0,1.381,1.119,2.5,2.5,2.5s2.5-1.119,2.5-2.5v-22.456c0-2.76-2.213-5.003-4.957-5.078v-2.881h60.65c1.38,0,2.5-1.12,2.5-2.5
				s-1.12-2.5-2.5-2.5h-60.65v-2.9c0-3.143-2.192-5.791-5.129-6.51v-24.307c7.8,0.143,13.942-6.934,12.549-14.622l-3.09-18.05
				c-0.424-2.617,0.493-5.017,2.15-6.641l13.11-12.78c7.394-7.153,3.384-19.815-6.92-21.319l-18.12-2.63
				c-2.44-0.351-4.55-1.891-5.65-4.11l-8.1-16.42c-4.562-9.274-17.853-9.286-22.42,0l-7.31,14.83c-0.62,1.229-0.11,2.74,1.13,3.35
				c1.22,0.601,2.75,0.07,3.35-1.14l7.31-14.82c2.773-5.589,10.685-5.592,13.46,0l8.1,16.42c1.83,3.69,5.35,6.25,9.41,6.83
				l18.12,2.63c6.224,0.912,8.571,8.478,4.16,12.801L161.4,132.77c-3.045,2.968-4.286,7.264-3.58,11.07l3.09,18.04
				c0.8,5-3.137,8.918-7.629,8.777v-5.197c0-8.062-6.563-14.62-14.63-14.62c-7.26,0-13.051,0-19.95,0
				c-8.062,0-14.62,6.559-14.62,14.62v5.02c-4.969,1.121-9.877-3.132-8.99-8.59l3.09-18.06c0.689-3.904-0.585-8.143-3.59-11.061
				l-13.1-12.779c-4.418-4.3-2.096-11.886,4.15-12.801l9.67-1.399c1.424-0.217,2.307-1.528,2.11-2.83
				c-0.19-1.34-1.48-2.311-2.83-2.12l-9.67,1.41c-10.286,1.502-14.334,14.147-6.92,21.319l13.11,12.78
				c1.644,1.61,2.583,4.024,2.15,6.63l-3.1,18.061c-1.432,8.497,5.799,15.585,13.92,14.513v7.641l-1.236-0.576
				c-4.667-2.195-10.266-0.175-12.461,4.527c-2.175,4.677-0.139,10.258,4.539,12.44l5.582,2.606
				c-0.994,1.187-1.546,2.686-1.555,4.278v2.91H14.88c-4.13-0.01-7.49-3.37-7.5-7.5V60.75c0.01-4.13,3.37-7.5,7.5-7.51
				c10.413,0,225.367,0,226.24,0c4.13,0.01,7.49,3.38,7.5,7.51v141.13c-0.01,4.13-3.37,7.49-7.5,7.5h-2.06c-1.38,0-2.5,1.12-2.5,2.5
				s1.12,2.5,2.5,2.5h2.06C248.01,214.38,253.62,208.77,253.62,201.88z M153.41,217.247h-49.46V206.47c0-0.89,0.81-1.7,1.7-1.7
				c6.284,0,39.824,0,46.06,0c0.94,0,1.7,0.771,1.7,1.71V217.247z M94.916,189.257c1.018-2.18,3.628-3.134,5.808-2.111l4.8,2.24
				c1.646,0.772,3.557-0.433,3.557-2.266v-21.66c0-4.979,3.85-9.62,10.031-9.62v21.963c0,1.381,1.119,2.5,2.5,2.5s2.5-1.119,2.5-2.5
				V155.84h9.141v21.963c0,1.381,1.119,2.5,2.5,2.5s2.5-1.119,2.5-2.5V155.84c6.133,0,10.028,4.611,10.028,9.62v34.31h-41.146
				l-10.098-4.715C94.854,194.036,93.903,191.435,94.916,189.257z M32.82,48.24v-6.53c0-1.38,1.12-2.5,2.5-2.51h20.25
				c1.38,0.01,2.5,1.13,2.5,2.51v6.53H32.82z M100.8,27.83h54.4v20.41h-54.4V27.83z M197.93,48.24v-6.53c0-1.38,1.12-2.5,2.5-2.51
				h20.25c1.38,0.01,2.5,1.13,2.5,2.51v6.53H197.93z"/>
			<circle cx="142.15" cy="11.2" r="2.5"/>
			<path d="M104.11,99.38c-1.327,0.393-2.074,1.782-1.68,3.11c0.373,1.264,1.745,2.097,3.11,1.68c1.32-0.39,2.07-1.79,1.68-3.11
				C106.84,99.78,105.4,98.99,104.11,99.38z"/>
		</g>
	</g>
</g>
</svg>
