<?xml version="1.0" encoding="utf-8"?>
<!-- Generator: Adobe Illustrator 24.0.0, SVG Export Plug-In . SVG Version: 6.00 Build 0)  -->
<svg version="1.1" id="Layer_1" xmlns="http://www.w3.org/2000/svg" xmlns:xlink="http://www.w3.org/1999/xlink" x="0px" y="0px"
	 viewBox="0 0 256 256" enable-background="new 0 0 256 256" xml:space="preserve">
<g>
</g>
<g>
	<path fill="#EEEEEE" d="M106.83,145.41l-7.6,26.27l-4.34,15H16c-5.52,0-10-4.48-10-10v-97.36c0-5.52,4.48-10,10-10h69.11l-4.38,15
		C68.075,127.63,70.3,120.017,65.5,136.44c-0.65,2.24,1.03,4.49,3.37,4.49h34.59C105.79,140.93,107.48,143.16,106.83,145.41z"/>
	<polygon fill="#AEAEAE" points="77.82,69.319 85.11,69.319 80.73,84.319 73.44,84.319 	"/>
	<polygon fill="#AEAEAE" points="99.23,171.68 94.89,186.68 87.6,186.68 91.94,171.68 	"/>
	<path fill="#EEEEEE" d="M225.48,79.319v97.36c0,5.52-4.47,10-10,10H117.2l10.18-15c37.029-54.501,29.891-43.992,38.13-56.13
		c1.58-2.33-0.08-5.48-2.9-5.48h-35.88c-2.33,0-4.01-2.23-3.37-4.47l6.13-21.28l4.32-15h81.67
		C221.01,69.319,225.48,73.799,225.48,79.319z"/>
	<path fill="#AEAEAE" d="M127.38,171.68h8.46c-8.6,12.66-7.63,11.24-10.18,15h-8.46L127.38,171.68z"/>
	<polygon fill="#AEAEAE" points="141.09,69.319 136.77,84.319 129.49,84.319 133.81,69.319 	"/>
	<path fill="#0BBE6E" d="M106.83,145.41l-7.6,26.27H21v-87.36h59.73C68.075,127.63,70.3,120.017,65.5,136.44
		c-0.65,2.24,1.03,4.49,3.37,4.49h34.59C105.79,140.93,107.48,143.16,106.83,145.41z"/>
	<path fill="#0BBE6E" d="M210.48,84.319v87.36h-83.1c37.029-54.501,29.891-43.992,38.13-56.13c1.58-2.33-0.08-5.48-2.9-5.48h-35.88
		c-2.33,0-4.01-2.23-3.37-4.47l6.13-21.28H210.48z"/>
	<path fill="#AEAEAE" d="M250,109.113v37.787c0,4.04-3.279,7.32-7.32,7.32h-17.202v-52.427h17.202
		C246.721,101.792,250,105.071,250,109.113z"/>
	<rect x="225.478" y="101.792" fill="#868686" width="10.248" height="52.427"/>
	<path fill="#0E9B6D" d="M106.83,145.41l-7.6,26.27h-7.29l6.87-23.75H68.87c-7,0-12.05-6.71-10.09-13.44l14.66-50.17h7.29
		C68.075,127.63,70.3,120.017,65.5,136.44c-0.65,2.24,1.03,4.49,3.37,4.49h34.59C105.79,140.93,107.48,143.16,106.83,145.41z"/>
	<path fill="#0E9B6D" d="M171.3,119.48c-7.81,11.52-1.56,2.3-35.46,52.2h-8.46c37.029-54.501,29.891-43.992,38.13-56.13
		c1.58-2.33-0.08-5.48-2.9-5.48h-35.88c-2.33,0-4.01-2.23-3.37-4.47l6.13-21.28h7.28l-5.4,18.75h31.24
		C171.03,103.069,176.03,112.509,171.3,119.48z"/>
	<path fill="#F0C020" d="M165.51,115.549c-8.012,11.805-1.228,1.817-38.13,56.13l-10.18,15l-14.05,20.68
		c-4.48,6.6-14.75,1.78-12.54-5.89l4.28-14.79l4.34-15l7.6-26.27c0.65-2.25-1.04-4.48-3.37-4.48H68.87c-2.34,0-4.02-2.25-3.37-4.49
		c4.438-15.183,0.654-2.234,15.23-52.12l4.38-15l6.22-21.27c0.43-1.49,1.81-2.52,3.36-2.52H136c2.33,0,4.01,2.23,3.37,4.47
		l-5.56,19.32l-4.32,15l-6.13,21.28c-0.64,2.24,1.04,4.47,3.37,4.47h35.88C165.43,110.069,167.09,113.219,165.51,115.549z"/>
	<path fill="#73FEBB" d="M200.48,164.18h-49.146c-1.381,0-2.5-1.119-2.5-2.5s1.119-2.5,2.5-2.5h46.646V107.32
		c0-1.381,1.119-2.5,2.5-2.5s2.5,1.119,2.5,2.5v54.359C202.98,163.061,201.861,164.18,200.48,164.18z M200.48,99.82
		c-1.381,0-2.5-1.119-2.5-2.5v-3c0-1.381,1.119-2.5,2.5-2.5s2.5,1.119,2.5,2.5v3C202.98,98.701,201.861,99.82,200.48,99.82z"/>
	<path fill="#F7E4B0" d="M104.037,188.262c-1.143-0.775-1.44-2.33-0.665-3.473l1.68-2.474c0.775-1.143,2.33-1.441,3.473-0.665
		c1.143,0.774,1.44,2.329,0.665,3.472l-1.68,2.476C106.734,188.739,105.179,189.037,104.037,188.262z M111.313,177.544
		c-1.143-0.775-1.44-2.33-0.665-3.473c8.617-12.695,6.921-10.194,34.985-51.501H126.73c-10.537,0-18.329-10.109-15.383-20.426
		l13.624-47.307c0.382-1.326,1.768-2.093,3.094-1.711s2.093,1.768,1.71,3.094l-13.623,47.302
		c-2.028,7.106,3.341,14.048,10.577,14.048h23.625c2.002,0,3.194,2.246,2.068,3.905c-30.537,44.945-29.745,43.776-37.638,55.404
		C114.009,178.024,112.452,178.318,111.313,177.544z"/>
	<path fill="#73FEBB" d="M87.6,164.18h-3c-1.381,0-2.5-1.119-2.5-2.5s1.119-2.5,2.5-2.5h3c1.381,0,2.5,1.119,2.5,2.5
		S88.981,164.18,87.6,164.18z M74.6,164.18H31.667c-1.381,0-2.5-1.119-2.5-2.5s1.119-2.5,2.5-2.5H74.6c1.381,0,2.5,1.119,2.5,2.5
		S75.981,164.18,74.6,164.18z"/>
	<circle cx="202.55" cy="69.319" r="2.5"/>
	<path d="M242.68,99.29h-14.7V79.319c0-6.89-5.61-12.5-12.5-12.5h-2.93c-1.38,0-2.5,1.12-2.5,2.5c0,1.381,1.12,2.5,2.5,2.5h2.93
		c4.13,0.011,7.49,3.37,7.5,7.5c0,10.426,0,86.481,0,97.36c-0.01,4.13-3.37,7.49-7.5,7.5h-93.568l6.791-10h81.777
		c1.407,0,2.5-1.14,2.5-2.5c0-10.405,0-77.334,0-87.36c0-1.381-1.119-2.5-2.5-2.5h-77.674l2.88-10h56.864c1.38,0,2.5-1.119,2.5-2.5
		c0-1.369-1.11-2.489-2.48-2.5c-0.01,0-0.01,0-0.02,0h-55.424l4.645-16.13c1.121-3.928-1.884-7.647-5.77-7.66H94.69
		c-2.69,0-5.01,1.74-5.76,4.33l-5.687,19.46H16c-6.893,0-12.5,5.607-12.5,12.5v97.36c0,6.893,5.607,12.5,12.5,12.5h75.566
		l-3.356,11.6c-3.044,10.381,11.033,16.946,17.01,7.98l13.297-19.58h96.964c6.89,0,12.5-5.61,12.5-12.5v-19.96h14.7
		c5.41,0,9.82-4.41,9.82-9.82v-37.79C252.5,103.7,248.09,99.29,242.68,99.29z M16,184.18c-4.136,0-7.5-3.364-7.5-7.5v-97.36
		c0-4.136,3.364-7.5,7.5-7.5h65.781l-2.923,10H21c-1.375,0-2.5,1.12-2.5,2.5v87.36c0,1.383,1.107,2.5,2.5,2.5h32.91
		c1.38,0,2.5-1.12,2.5-2.5s-1.12-2.5-2.5-2.5H23.5v-82.36h53.897L63.1,135.74c-1.125,3.799,1.763,7.678,5.77,7.689h34.59
		c0.656,0,1.165,0.646,0.97,1.29l-7.077,24.46H73.91c-1.38,0-2.5,1.12-2.5,2.5s1.12,2.5,2.5,2.5h21.996l-2.893,10H16z
		 M101.08,205.95c-3.017,4.332-9.508,1.039-8.07-3.78l16.22-56.07c1.116-3.776-1.754-7.658-5.77-7.67H68.87
		c-0.691,0-1.163-0.699-0.97-1.28L93.73,48.75c0.11-0.41,0.52-0.721,0.96-0.721H136c0.6,0,1.158,0.567,0.96,1.301l-16,55.58
		c-1.116,3.763,1.762,7.647,5.77,7.659h35.88c0.8,0,1.279,0.872,0.83,1.58l-16.86,24.811c-0.77,1.14-0.47,2.7,0.67,3.47
		c1.1,0.76,2.72,0.44,3.47-0.66l16.86-24.819c2.713-3.988-0.191-9.365-4.97-9.381h-35.88c-0.58,0-1.128-0.496-0.97-1.279
		l5.607-19.471h76.614c0,16.356,0,63.82,0,82.36h-75.882l7.382-10.87c0.759-1.099,0.512-2.66-0.66-3.47
		c-1.11-0.75-2.72-0.43-3.47,0.66C131.491,161.18,104.915,200.304,101.08,205.95z M247.5,146.899c0,2.65-2.17,4.811-4.82,4.82h-14.7
		v-47.43h14.7c2.65,0.01,4.82,2.17,4.82,4.819V146.899z"/>
	<circle cx="63.91" cy="171.68" r="2.5"/>
	<path d="M141.63,150.71c1.193,0.796,2.732,0.437,3.47-0.67c0.758-1.096,0.527-2.648-0.66-3.471c-1.11-0.75-2.72-0.439-3.47,0.66
		C140.19,148.37,140.49,149.93,141.63,150.71z"/>
</g>
</svg>
