<?xml version="1.0" encoding="utf-8"?>
<!-- Generator: Adobe Illustrator 16.0.0, SVG Export Plug-In . SVG Version: 6.00 Build 0)  -->
<!DOCTYPE svg PUBLIC "-//W3C//DTD SVG 1.1//EN" "http://www.w3.org/Graphics/SVG/1.1/DTD/svg11.dtd">
<svg version="1.1" id="Layer_1" xmlns="http://www.w3.org/2000/svg" xmlns:xlink="http://www.w3.org/1999/xlink" x="0px" y="0px"
	 width="128px" height="128px" viewBox="0 0 128 128" enable-background="new 0 0 128 128" xml:space="preserve">
<g>
	<g>
		<g>
			<path fill="#282D33" d="M102.017,27.573c-0.318-0.29-0.64-0.575-0.966-0.856l-0.524-0.493l2.756-2.908l0.456,0.432
				c0.283,0.242,0.63,0.55,0.974,0.862L102.017,27.573z"/>
		</g>
		<g>
			<path fill="#282D33" d="M64.032,128h-0.03c-1.35,0-2.716-0.045-4.063-0.134l0.266-3.998c1.259,0.084,2.536,0.126,3.798,0.126
				L64.032,128z M68.129,127.862l-0.266-3.997c1.268-0.085,2.549-0.213,3.808-0.384l0.536,3.97
				C70.858,127.634,69.486,127.771,68.129,127.862z M55.862,127.46c-1.349-0.18-2.709-0.409-4.043-0.681l0.799-3.925
				c1.245,0.253,2.516,0.467,3.774,0.636L55.862,127.46z M76.246,126.766l-0.8-3.925c1.238-0.253,2.49-0.553,3.722-0.893
				l1.065,3.861C78.914,126.174,77.573,126.495,76.246,126.766z M47.831,125.827c-1.311-0.361-2.628-0.771-3.913-1.222l1.321-3.78
				c1.2,0.419,2.43,0.803,3.655,1.139L47.831,125.827z M84.147,124.583l-1.326-3.778c1.199-0.422,2.4-0.89,3.567-1.391l1.579,3.682
				C86.718,123.633,85.433,124.132,84.147,124.583z M40.089,123.119c-1.252-0.536-2.503-1.123-3.717-1.743l1.823-3.567
				c1.134,0.58,2.301,1.128,3.471,1.628L40.089,123.119z M91.674,121.354l-1.825-3.565c1.132-0.579,2.257-1.204,3.343-1.856
				l2.064,3.433C94.091,120.064,92.886,120.733,91.674,121.354z M32.783,119.386c-1.163-0.698-2.322-1.446-3.443-2.226l2.286-3.29
				c1.048,0.729,2.131,1.429,3.218,2.081L32.783,119.386z M98.693,117.138l-2.289-3.288c1.039-0.724,2.069-1.494,3.063-2.291
				l2.508,3.123C100.911,115.536,99.807,116.362,98.693,117.138z M26.053,114.702c-1.064-0.853-2.111-1.751-3.112-2.673l2.712-2.947
				c0.935,0.859,1.912,1.699,2.905,2.495L26.053,114.702z M105.082,112.011l-2.711-2.947c0.93-0.855,1.848-1.76,2.727-2.687
				l2.906,2.758C107.063,110.127,106.08,111.095,105.082,112.011z M20.018,109.155c-0.934-0.982-1.849-2.016-2.722-3.068
				l3.086-2.555c0.814,0.982,1.669,1.947,2.54,2.863L20.018,109.155z M110.724,106.065l-3.087-2.553c0.811-0.98,1.597-2,2.337-3.032
				l3.255,2.336C112.435,103.922,111.592,105.016,110.724,106.065z M14.791,102.841c-0.794-1.105-1.56-2.253-2.277-3.41l3.406-2.108
				c0.669,1.08,1.384,2.15,2.124,3.181L14.791,102.841z M115.506,99.401l-3.407-2.106c0.668-1.081,1.307-2.2,1.898-3.323
				l3.545,1.865C116.907,97.043,116.223,98.241,115.506,99.401z M10.478,95.871c-0.636-1.205-1.236-2.446-1.785-3.689l3.664-1.617
				c0.512,1.157,1.071,2.315,1.664,3.439L10.478,95.871z M119.327,92.141l-3.665-1.616c0.512-1.16,0.988-2.356,1.42-3.556
				l3.77,1.355C120.39,89.61,119.876,90.895,119.327,92.141z M7.168,88.374c-0.461-1.278-0.883-2.594-1.255-3.907l3.854-1.091
				c0.347,1.225,0.74,2.449,1.169,3.641L7.168,88.374z M122.104,84.408l-3.854-1.087c0.344-1.222,0.649-2.472,0.905-3.713
				l3.924,0.812C122.802,81.753,122.475,83.095,122.104,84.408z M4.936,80.48c-0.277-1.334-0.512-2.694-0.695-4.044l3.97-0.54
				c0.171,1.257,0.389,2.523,0.647,3.768L4.936,80.48z M123.768,76.376l-3.97-0.537c0.17-1.252,0.297-2.531,0.379-3.803l3.998,0.256
				C124.086,73.657,123.95,75.031,123.768,76.376z M3.831,72.353c-0.084-1.277-0.126-2.581-0.127-3.873l0.001-0.234l4.005,0.027
				v0.206c0,1.204,0.04,2.421,0.118,3.612L3.831,72.353z M120.29,68.213c-0.007-1.274-0.058-2.561-0.152-3.822l3.993-0.3
				c0.103,1.355,0.158,2.735,0.165,4.101L120.29,68.213z M7.859,64.444l-3.995-0.296c0.101-1.362,0.251-2.735,0.445-4.083
				l3.965,0.575C8.093,61.896,7.953,63.175,7.859,64.444z M119.718,60.591c-0.184-1.251-0.415-2.518-0.687-3.763l3.914-0.855
				c0.291,1.336,0.54,2.694,0.735,4.038L119.718,60.591z M8.955,56.875L5.04,56.026c0.289-1.333,0.629-2.671,1.011-3.98l3.846,1.121
				C9.541,54.387,9.224,55.634,8.955,56.875z M118.083,53.124c-0.354-1.213-0.76-2.435-1.202-3.63l3.755-1.394
				c0.477,1.283,0.911,2.594,1.292,3.897L118.083,53.124z M11.095,49.533l-3.759-1.385c0.472-1.279,0.993-2.558,1.553-3.8
				l3.653,1.644C12.021,47.15,11.534,48.341,11.095,49.533z M115.429,45.955c-0.525-1.162-1.097-2.317-1.697-3.432l3.528-1.898
				c0.643,1.196,1.255,2.434,1.818,3.678L115.429,45.955z M14.231,42.559L10.7,40.667c0.642-1.198,1.335-2.392,2.062-3.548
				l3.393,2.131C15.477,40.329,14.83,41.442,14.231,42.559z M111.801,39.216c-0.676-1.072-1.399-2.137-2.15-3.165l3.233-2.365
				c0.806,1.102,1.582,2.244,2.307,3.395L111.801,39.216z M18.3,36.084l-3.237-2.36c0.804-1.101,1.654-2.188,2.53-3.229l3.066,2.577
				C19.843,34.044,19.049,35.058,18.3,36.084z M107.286,33.039c-0.816-0.97-1.68-1.928-2.564-2.846l2.883-2.781
				c0.947,0.983,1.872,2.008,2.747,3.047L107.286,33.039z M23.22,30.229l-2.881-2.782c0.313-0.324,0.63-0.646,0.95-0.963
				l2.821,2.844C23.811,29.625,23.513,29.926,23.22,30.229z"/>
		</g>
		<g>
			<path fill="#282D33" d="M25.46,28.036l-2.723-2.938c0.496-0.459,1.001-0.912,1.515-1.357l2.624,3.027
				C26.396,27.183,25.924,27.606,25.46,28.036z"/>
		</g>
	</g>
	<g>
		<path fill="#282D33" d="M64.002,117.002c-27.101,0-49.148-21.769-49.148-48.523c0-13.961,6.106-27.254,16.753-36.469l0.263-0.228
			L63.997,0l32.356,31.986c10.675,9.248,16.793,22.546,16.793,36.492C113.146,95.233,91.101,117.002,64.002,117.002z M63.995,5.636
			L34.542,34.767l-0.313,0.271c-9.768,8.454-15.369,20.642-15.369,33.44c0,24.547,20.251,44.518,45.143,44.518
			c24.89,0,45.139-19.971,45.139-44.518c0-12.783-5.613-24.978-15.402-33.458l-0.992-0.914L63.995,5.636z"/>
	</g>
	<g>
		<g>
			<path fill="#282D33" d="M70.955,45.268l-7.518,16.479h20.088l-29.269,26.37l7.521-16.482H41.691L70.955,45.268 M82.407,29.653
				l-14.085,12.69L39.057,68.711l-7.615,6.861h10.25h13.963l-4.979,10.91l-7.873,17.252l14.09-12.692l29.269-26.368l7.616-6.861
				H83.525H69.561l4.979-10.91L82.407,29.653L82.407,29.653z"/>
		</g>
	</g>
</g>
</svg>
