<?xml version="1.0" encoding="iso-8859-1"?>
<!-- Generator: Adobe Illustrator 19.0.0, SVG Export Plug-In . SVG Version: 6.00 Build 0)  -->
<svg xmlns="http://www.w3.org/2000/svg" xmlns:xlink="http://www.w3.org/1999/xlink" version="1.1" id="Layer_1" x="0px" y="0px" viewBox="0 0 512 512" style="enable-background:new 0 0 512 512;" xml:space="preserve">
<path style="fill:#065B75;" d="M429.002,299.655v-87.309h62.344c7.228,0,13.108,5.88,13.108,13.108v61.093  c0,7.228-5.88,13.108-13.108,13.108H429.002z"/>
<path style="fill:#054F60;" d="M466.728,232.069v-19.723h-37.726v87.309h62.344c7.239,0,13.108-5.869,13.108-13.108v-16.753l0,0  C483.619,269.795,466.728,252.904,466.728,232.069z"/>
<path style="fill:#427AA1;" d="M425.466,169.229H277.083h-63.01H32.64c-13.837,0-25.094,11.259-25.094,25.096v123.352  c0,13.836,11.258,25.093,25.094,25.093h142.915h57.588h192.323c13.837,0,25.094-11.258,25.094-25.094V194.325  C450.56,180.488,439.302,169.229,425.466,169.229z"/>
<path style="fill:#17688C;" d="M292.426,325.085h-57.588H91.924c-13.837,0-25.094-11.258-25.094-25.094V176.639  c0-2.578,0.392-5.066,1.118-7.409H32.64c-13.837,0-25.094,11.259-25.094,25.096v123.352c0,13.836,11.258,25.093,25.094,25.093  h142.915h57.588h192.323c11.259,0,20.809-7.454,23.978-17.685H292.426z"/>
<path style="fill:#A5BE00;" d="M404.172,309.901H54.824c-8.099,0-14.665-6.565-14.665-14.665v-81.624  c0-8.099,6.565-14.665,14.665-14.665h349.348c8.099,0,14.665,6.565,14.665,14.665v81.624  C418.838,303.336,412.271,309.901,404.172,309.901z"/>
<path style="fill:#FFD94C;" d="M152.302,413.565l47.578-152.255c0.739-2.367-1.028-4.772-3.509-4.772h-52.028  c-3.158,0-4.846-3.72-2.766-6.097L281.187,90.888c2.386-2.728,6.863-0.72,6.413,2.876l-19.695,157.564  c-0.274,2.194,1.437,4.132,3.648,4.132H313.1c3.275,0,4.914,3.959,2.599,6.274L171.916,405.521c-0.06,0.06-0.123,0.119-0.188,0.175  l-13.506,11.74C155.426,419.867,151.197,417.102,152.302,413.565z"/>
<path style="fill:#F7CA3E;" d="M252.33,261.312c0.739-2.367-1.028-4.772-3.509-4.772h-52.028c-3.158,0-4.846-3.72-2.766-6.097  l86.32-98.652l7.253-58.026c0.449-3.597-4.027-5.604-6.413-2.877L141.578,250.443c-2.079,2.377-0.391,6.097,2.766,6.097h52.028  c2.48,0,4.248,2.405,3.509,4.772l-47.578,152.255c-1.105,3.537,3.124,6.3,5.92,3.871l13.507-11.74  c0.065-0.056,0.127-0.114,0.188-0.175l51.418-51.418L252.33,261.312z"/>
<path d="M417.684,194.021h-75.453c-4.466,0-8.084,3.618-8.084,8.084c0,4.466,3.618,8.084,8.084,8.084H409.6v91.621h-67.368  c-4.466,0-8.084,3.618-8.084,8.084s3.618,8.084,8.084,8.084h75.453c4.466,0,8.084-3.618,8.084-8.084V202.105  C425.768,197.641,422.15,194.021,417.684,194.021z"/>
<path d="M126.653,301.81H48.505v-91.621h78.147c4.466,0,8.084-3.618,8.084-8.084c0-4.466-3.618-8.084-8.084-8.084H40.421  c-4.466,0-8.084,3.618-8.084,8.084v107.789c0,4.466,3.618,8.084,8.084,8.084h86.232c4.466,0,8.084-3.618,8.084-8.084  S131.118,301.81,126.653,301.81z"/>
<path d="M491.346,204.8h-33.241v-10.476c0-17.998-14.642-32.64-32.64-32.64h-138.75l9.643-77.144c0.44-3.526-1.472-6.925-4.714-8.38  c-3.244-1.454-7.053-0.62-9.393,2.053l-73.036,83.47H32.64C14.642,161.684,0,176.326,0,194.325v123.352  c0,17.996,14.642,32.639,32.64,32.639h131.523l-23.667,75.736c-1.11,3.552,0.347,7.402,3.53,9.328  c1.298,0.786,2.745,1.167,4.182,1.167c2.09,0,4.161-0.81,5.72-2.367l83.863-83.865h187.673c17.999,0,32.641-14.642,32.641-32.64  V307.2h33.241c11.388,0,20.654-9.266,20.654-20.654v-61.093C512,214.066,502.734,204.8,491.346,204.8z M32.64,334.147  c-9.082,0-16.471-7.389-16.471-16.471V194.325c0-9.082,7.389-16.472,16.471-16.472h162.429l-63.721,72.825  c-2.089,2.388-2.588,5.774-1.278,8.663c1.312,2.89,4.191,4.744,7.362,4.744h53.678l-21.895,70.063H32.64z M441.937,317.676  c0,9.097-7.375,16.471-16.471,16.471H253.96l72.43-72.43c2.755-2.756,3.209-7.167,0.814-10.488c-1.547-2.146-4.12-3.313-6.765-3.313  h-44.503l1.468-11.747c0.604-4.826-3.159-9.088-8.022-9.088l0,0c-4.078,0-7.516,3.036-8.022,7.082l-2.578,20.622  c-0.177,1.412-0.061,2.865,0.47,4.185c1.281,3.18,4.294,5.112,7.526,5.112h34.378L165.727,399.514l44.093-141.102  c1.013-3.24-0.088-6.862-2.99-8.977c-1.427-1.04-3.189-1.52-4.956-1.52h-46.628L277.04,108.722l-10.757,86.062  c-0.604,4.826,3.159,9.088,8.022,9.088l0,0c4.078,0,7.516-3.036,8.022-7.082l2.368-18.938h140.771  c9.097,0,16.471,7.375,16.471,16.471V317.676z M495.832,286.546c0,2.474-2.011,4.485-4.485,4.485h-33.241v-70.063h33.241  c2.474,0,4.485,2.011,4.485,4.485V286.546z"/>
<g>
</g>
<g>
</g>
<g>
</g>
<g>
</g>
<g>
</g>
<g>
</g>
<g>
</g>
<g>
</g>
<g>
</g>
<g>
</g>
<g>
</g>
<g>
</g>
<g>
</g>
<g>
</g>
<g>
</g>
</svg>
