<svg xmlns="http://www.w3.org/2000/svg" viewBox="0 0 48 48"><defs><style>.cls-1{fill:#425b72;}.cls-2{fill:#7c7d7d;}.cls-3{fill:#919191;}.cls-4{fill:#dad7e5;}.cls-5{fill:#edebf2;}.cls-6{fill:#c6c3d8;}.cls-7{fill:#9fdbf3;}.cls-8{fill:#b2e5fb;}</style></defs><title>Electricity</title><g id="Electricity"><path class="cls-1" d="M18,43.16,15.15,25H6.85L4,43.16a1,1,0,0,1-2-.32l3-19A1,1,0,0,1,6,23H16a1,1,0,0,1,1,.84l3,19A1,1,0,0,1,18,43.16Z"/><path class="cls-1" d="M16,25H6a1,1,0,0,1-1-1V10A1,1,0,0,1,6,9H16a1,1,0,0,1,1,1V24A1,1,0,0,1,16,25ZM7,23h8V11H7Z"/><path class="cls-1" d="M16,11c-10.59,0-10.45.2-10.86-.49s-.32-.45,5-10a1,1,0,0,1,1.74,0l5,9A1,1,0,0,1,16,11ZM7.7,9h6.6L11,3.06Z"/><path class="cls-1" d="M2.46,42.16,15.4,33.84,4.91,29.35a1,1,0,0,1,.78-1.84c13.09,5.6,12.76,5.23,12.83,6.07s.63.23-15,10.26A1,1,0,0,1,2.46,42.16Z"/><path class="cls-1" d="M19,44c-.43,0,.74.66-15.07-9.5a1,1,0,0,1,.15-1.76l12.23-5.23a1,1,0,0,1,.78,1.84L6.6,33.84l12.94,8.32A1,1,0,0,1,19,44Z"/><path class="cls-1" d="M20,19V18H2v1a1,1,0,0,1-2,0V17a1,1,0,0,1,1-1H21a1,1,0,0,1,1,1v2A1,1,0,0,1,20,19Z"/><path class="cls-1" d="M19,12V11H3v1a1,1,0,0,1-2,0V10A1,1,0,0,1,2,9H20a1,1,0,0,1,1,1v2A1,1,0,0,1,19,12Z"/><rect class="cls-2" x="1" y="43" width="20" height="4"/><path class="cls-3" d="M21,43v2H5a2,2,0,0,1-2-2Z"/><rect class="cls-2" x="25" y="25" width="22" height="22"/><path class="cls-3" d="M47,25V45H30a3,3,0,0,1-3-3V25Z"/><rect class="cls-2" x="27" y="21" width="18" height="4"/><path class="cls-3" d="M45,21v2H31a2,2,0,0,1-2-2Z"/><rect class="cls-4" x="31" y="39" width="10" height="8"/><path class="cls-5" d="M41,39v6H39a6,6,0,0,1-6-6Z"/><path class="cls-6" d="M42,40H30a1,1,0,0,1,0-2H42A1,1,0,0,1,42,40Z"/><rect class="cls-7" x="38" y="29" width="5" height="6"/><rect class="cls-7" x="29" y="29" width="5" height="6"/><path class="cls-8" d="M34,29v4a3,3,0,0,1-3-3V29Z"/><path class="cls-8" d="M43,29v4a3,3,0,0,1-3-3V29Z"/></g></svg>