<?xml version="1.0" encoding="utf-8"?>
<!-- Generator: Adobe Illustrator 22.1.0, SVG Export Plug-In . SVG Version: 6.00 Build 0)  -->
<svg version="1.1" id="Layer_1" xmlns="http://www.w3.org/2000/svg" xmlns:xlink="http://www.w3.org/1999/xlink" x="0px" y="0px"
	 viewBox="0 0 512 512" style="enable-background:new 0 0 512 512;" xml:space="preserve">
<style type="text/css">
	.st0{fill:#FCE575;}
	.st1{fill:#FFD551;}
	.st2{fill:#FFA730;}
	.st3{fill:#E58D23;}
	.st4{fill:#FF624B;}
	.st5{fill:#FFF4C1;}
	.st6{fill:#FCDA4F;}
	.st7{fill:#FF4B34;}
	.st8{fill:#CCC033;}
	.st9{fill:#99AF17;}
	.st10{fill:#FF9079;}
	.st11{fill:#EACF32;}
	.st12{fill:#F9BB32;}
	.st13{fill:#FFEA63;}
	.st14{fill:#FFEACF;}
	.st15{fill:#FFD59A;}
	.st16{fill:#FFC34C;}
	.st17{fill:#A56021;}
	.st18{fill:#FFDF74;}
	.st19{fill:#BF6C0D;}
	.st20{fill:#FFB74B;}
	.st21{fill:#8C4C17;}
	.st22{fill:#FCF9DE;}
	.st23{fill:#DB9C2E;}
	.st24{fill:#FFF9DC;}
	.st25{fill:none;}
</style>
<g>
	<g>
		<path class="st8" d="M135.1,129.726H88.514V85.225c0-4.418,3.582-8,8-8H127.1c4.418,0,8,3.582,8,8V129.726z"/>
	</g>
	<g>
		<path class="st4" d="M422.377,129.726h-46.586V85.225c0-4.418,3.582-8,8-8h30.586c4.418,0,8,3.582,8,8V129.726z"/>
	</g>
	<g>
		<path class="st7" d="M410.791,77.225h-27c-4.418,0-8,3.582-8,8v44.501h27V85.225C402.791,80.807,406.373,77.225,410.791,77.225z"
			/>
	</g>
	<g>
		<path class="st8" d="M135.1,129.726H88.514V85.225c0-4.418,3.582-8,8-8H127.1c4.418,0,8,3.582,8,8V129.726z"/>
	</g>
	<g>
		<path class="st9" d="M126.514,77.225h-30c-4.418,0-8,3.582-8,8v44.501h30V85.225C118.514,80.807,122.096,77.225,126.514,77.225z"
			/>
	</g>
	<g>
		<path class="st16" d="M424.014,434.775H87.986c-8.284,0-15-6.716-15-15V195.932h366.029v223.843
			C439.014,428.059,432.299,434.775,424.014,434.775z"/>
	</g>
	<g>
		<path class="st2" d="M142.986,225.932h296.029v-30H72.986v223.843c0,8.284,6.716,15,15,15h35V245.932
			C122.986,234.886,131.94,225.932,142.986,225.932z"/>
	</g>
	<g>
		<path class="st5" d="M468.575,195.932H43.425c-5.523,0-10-4.477-10-10v-53.206c0-5.523,4.477-10,10-10h425.15
			c5.523,0,10,4.477,10,10v53.206C478.575,191.455,474.098,195.932,468.575,195.932z"/>
	</g>
	<g>
		<path class="st0" d="M326.803,122.726H185.197V97.03c0-5.523,4.477-10,10-10h121.605c5.523,0,10,4.477,10,10V122.726z"/>
	</g>
	<g>
		<circle class="st5" cx="256" cy="320.353" r="83.983"/>
	</g>
	<g>
		<path class="st18" d="M239.473,413.893c-1.567,0-3.156-0.369-4.64-1.148c-4.89-2.567-6.773-8.612-4.206-13.502l39.001-74.295
			l-28.803,8.972c-5.442,1.697-11.21,0.131-15.05-4.084c-3.839-4.215-4.86-10.102-2.666-15.364l34.641-83.049
			c2.127-5.098,7.984-7.505,13.079-5.38c5.097,2.126,7.506,7.982,5.38,13.079l-30.12,72.21l30.23-9.417
			c5.625-1.753,11.698,0.04,15.47,4.567c3.772,4.527,4.439,10.823,1.701,16.04l-45.155,86.017
			C246.547,411.946,243.071,413.893,239.473,413.893z"/>
	</g>
	<g>
		<path class="st9" d="M127.705,227.073H93.69c-3.313,0-6-2.686-6-6s2.687-6,6-6h34.015c3.313,0,6,2.686,6,6
			S131.019,227.073,127.705,227.073z"/>
	</g>
	<g>
		<path class="st9" d="M109.588,243.599c-3.313,0-6-2.686-6-6v-31.057c0-3.314,2.687-6,6-6s6,2.686,6,6v31.057
			C115.588,240.912,112.902,243.599,109.588,243.599z"/>
	</g>
	<g>
		<path class="st4" d="M420.528,227.073h-34.015c-3.313,0-6-2.686-6-6s2.687-6,6-6h34.015c3.313,0,6,2.686,6,6
			S423.842,227.073,420.528,227.073z"/>
	</g>
	<g>
		<path class="st0" d="M73.425,185.932v-53.206c0-5.523,4.477-10,10-10h-40c-5.523,0-10,4.477-10,10v53.206c0,5.523,4.477,10,10,10
			h40C77.902,195.932,73.425,191.455,73.425,185.932z"/>
	</g>
	<g>
		<path class="st18" d="M235.197,87.03h-40c-5.523,0-10,3.044-10,6.799v28.897h40V93.829
			C225.197,90.074,229.675,87.03,235.197,87.03z"/>
	</g>
	<g>
		<circle class="st2" cx="150.1" cy="253.697" r="15"/>
	</g>
	<g>
		<circle class="st0" cx="96.972" cy="149.758" r="15"/>
	</g>
	<g>
		<path class="st1" d="M420.528,297.61c-3.313,0-6-2.686-6-6v-22.913c0-3.314,2.687-6,6-6s6,2.686,6,6v22.913
			C426.528,294.924,423.842,297.61,420.528,297.61z"/>
	</g>
	<g>
		<path class="st1" d="M420.528,411.364c-3.313,0-6-2.686-6-6v-91.697c0-3.314,2.687-6,6-6s6,2.686,6,6v91.697
			C426.528,408.677,423.842,411.364,420.528,411.364z"/>
	</g>
	<g>
		<path class="st22" d="M451,184.384c-3.313,0-6-2.686-6-6v-43.625c0-3.314,2.687-6,6-6s6,2.686,6,6v43.625
			C457,181.698,454.313,184.384,451,184.384z"/>
	</g>
	<g>
		<path class="st22" d="M309,104.426h-38.744c-3.313,0-6-2.686-6-6s2.687-6,6-6H309c3.313,0,6,2.686,6,6
			S312.313,104.426,309,104.426z"/>
	</g>
</g>
</svg>
