<?xml version="1.0" encoding="utf-8"?>
<!-- Generator: Adobe Illustrator 24.0.0, SVG Export Plug-In . SVG Version: 6.00 Build 0)  -->
<svg version="1.1" id="Layer_1" xmlns="http://www.w3.org/2000/svg" xmlns:xlink="http://www.w3.org/1999/xlink" x="0px" y="0px"
	 viewBox="0 0 256 256" enable-background="new 0 0 256 256" xml:space="preserve">
<g>
</g>
<g>
	<polygon fill="#F0C020" points="166.151,22.197 169.549,48.717 143.029,45.32 126.683,66.477 110.337,45.32 83.817,48.717 
		87.215,22.197 66.057,5.852 187.308,5.852 	"/>
	<path fill="#FC5D3D" d="M156.996,5.852c0,16.745-13.567,30.313-30.313,30.313S96.37,22.597,96.37,5.852H156.996z"/>
	<path fill="#AEAEAE" d="M102.895,73.107H23.371c-3.132,0-5.908,2.015-6.877,4.993L5.711,111.206
		c-1.522,4.674,1.961,9.473,6.877,9.473h101.09c4.916,0,8.4-4.799,6.877-9.473L109.773,78.1
		C108.803,75.122,106.027,73.107,102.895,73.107z"/>
	<path fill="#72C2E9" d="M101.59,120.682v4.93c0,0.308-0.017,0.608-0.05,0.899c-0.45,4.172-3.989,7.428-8.278,7.428H33.003
		c-4.289,0-7.828-3.256-8.278-7.428c-0.033-0.292-0.05-0.591-0.05-0.899v-4.93H101.59z"/>
	<path fill="#4BA5C8" d="M101.59,120.682v4.93c0,0.308-0.017,0.608-0.05,0.899H24.726c-0.033-0.292-0.05-0.591-0.05-0.899v-4.93
		H101.59z"/>
	<path fill="#AEAEAE" d="M232.629,73.107h-79.525c-3.132,0-5.908,2.015-6.877,4.993l-10.783,33.106
		c-1.522,4.674,1.961,9.473,6.877,9.473h101.09c4.916,0,8.4-4.799,6.877-9.473L239.507,78.1
		C238.537,75.122,235.761,73.107,232.629,73.107z"/>
	<path fill="#72C2E9" d="M231.324,120.682v4.93c0,0.308-0.017,0.608-0.05,0.899c-0.45,4.172-3.989,7.428-8.278,7.428h-60.259
		c-4.289,0-7.828-3.256-8.278-7.428c-0.033-0.292-0.05-0.591-0.05-0.899v-4.93H231.324z"/>
	<path fill="#4BA5C8" d="M231.324,120.682v4.93c0,0.308-0.017,0.608-0.05,0.899H154.46c-0.033-0.292-0.05-0.591-0.05-0.899v-4.93
		H231.324z"/>
	<circle fill="#F0C020" cx="48.591" cy="219.073" r="31.077"/>
	<circle fill="#F0C020" cx="126.679" cy="219.073" r="31.077"/>
	<circle fill="#F0C020" cx="204.768" cy="219.073" r="31.077"/>
	<path fill="#F0C020" d="M35.023,167.891c-3.961-1.309-8.051-2.453-10.348-12.345c-2.115,9.112-5.504,10.745-10.348,12.345
		c7.9,2.61,9.092,6.933,10.348,12.345C26.84,170.906,30.421,169.412,35.023,167.891z"/>
	<path d="M22.084,180.837c-1.147-4.945-1.905-8.212-8.591-10.421c-2.43-0.803-2.424-4.25,0-5.051
		c4.025-1.33,6.684-2.209,8.591-10.422c0.633-2.73,4.546-2.737,5.181,0c1.95,8.399,4.863,9.193,8.591,10.421
		c2.43,0.803,2.424,4.25,0,5.051c-3.881,1.282-6.686,2.209-8.591,10.421C26.63,183.58,22.722,183.58,22.084,180.837z
		 M20.565,167.952c1.914,1.314,3.222,2.815,4.164,4.403c1.141-2.017,2.462-3.405,3.934-4.439c-1.411-1.01-2.778-2.44-3.977-4.601
		C23.499,165.448,22.113,166.889,20.565,167.952z"/>
	<path fill="#F0C020" d="M241.672,167.891c-3.961-1.309-8.051-2.453-10.348-12.345c-2.115,9.112-5.504,10.745-10.348,12.345
		c7.9,2.61,9.092,6.933,10.348,12.345C233.489,170.906,237.07,169.412,241.672,167.891z"/>
	<path d="M228.733,180.837c-1.147-4.945-1.905-8.212-8.591-10.421c-2.43-0.803-2.424-4.25,0-5.051
		c4.025-1.33,6.684-2.209,8.591-10.422c0.633-2.73,4.546-2.737,5.181,0c1.95,8.399,4.863,9.193,8.591,10.421
		c2.43,0.803,2.424,4.25,0,5.051c-3.881,1.282-6.686,2.209-8.591,10.421C233.278,183.58,229.371,183.58,228.733,180.837z
		 M227.213,167.952c1.914,1.314,3.222,2.815,4.164,4.403c1.141-2.017,2.462-3.405,3.934-4.439c-1.411-1.01-2.778-2.44-3.977-4.601
		C230.148,165.448,228.762,166.889,227.213,167.952z"/>
	<path fill="#FFCAC2" d="M125.228,26.48c-1.377-0.097-2.416-1.291-2.32-2.668c0.097-1.377,1.287-2.41,2.668-2.32
		c6.846,0.473,12.861-3.445,15.442-9.279c0.557-1.263,2.033-1.834,3.297-1.275c1.263,0.558,1.833,2.035,1.275,3.297
		C142.212,21.876,134.305,27.111,125.228,26.48z M114.655,22.681c-0.921-0.66-1.794-1.402-2.598-2.206
		c-0.976-0.977-0.975-2.56,0.002-3.536c0.978-0.975,2.561-0.974,3.536,0.002c0.61,0.611,1.273,1.174,1.972,1.675
		c1.123,0.804,1.38,2.366,0.576,3.488C117.339,23.228,115.776,23.484,114.655,22.681z"/>
	<path fill="#F7E4B0" d="M44.64,242.309c-1.361-0.23-2.279-1.52-2.049-2.881c0.23-1.361,1.518-2.272,2.881-2.049
		c17.974,3.034,28.882-18.813,16.255-31.441c-0.977-0.976-0.977-2.559,0-3.535c0.976-0.977,2.56-0.977,3.535,0
		C81.267,218.406,67.464,246.155,44.64,242.309z M34.45,237.941c-0.889-0.667-1.74-1.407-2.53-2.197
		c-0.977-0.976-0.977-2.559,0-3.535c0.976-0.977,2.56-0.977,3.535,0c0.624,0.624,1.296,1.207,1.997,1.733
		c1.104,0.829,1.327,2.396,0.499,3.5C37.123,238.545,35.557,238.77,34.45,237.941z"/>
	<path fill="#F7E4B0" d="M122.729,242.309c-1.361-0.23-2.279-1.52-2.049-2.881c0.23-1.361,1.518-2.272,2.881-2.049
		c17.974,3.034,28.882-18.813,16.255-31.441c-0.977-0.976-0.977-2.559,0-3.535c0.976-0.977,2.56-0.977,3.535,0
		C159.356,218.406,145.552,246.155,122.729,242.309z M112.539,237.941c-0.889-0.667-1.74-1.407-2.53-2.197
		c-0.977-0.976-0.977-2.559,0-3.535c0.976-0.977,2.56-0.977,3.535,0c0.624,0.624,1.296,1.207,1.997,1.733
		c1.104,0.829,1.327,2.396,0.499,3.5C115.212,238.545,113.646,238.77,112.539,237.941z"/>
	<path fill="#F7E4B0" d="M200.817,242.309c-1.361-0.23-2.279-1.52-2.049-2.881c0.23-1.361,1.518-2.272,2.881-2.049
		c18.009,3.04,28.848-18.846,16.254-31.441c-0.976-0.976-0.976-2.559,0-3.536c0.977-0.976,2.559-0.976,3.536,0
		C237.378,218.342,223.716,246.167,200.817,242.309z M190.628,237.941c-0.889-0.667-1.74-1.407-2.53-2.197
		c-0.977-0.976-0.977-2.559,0-3.535c0.976-0.977,2.56-0.977,3.535,0c0.624,0.624,1.296,1.207,1.997,1.733
		c1.104,0.829,1.327,2.396,0.499,3.5C193.301,238.545,191.734,238.77,190.628,237.941z"/>
	<path d="M189.29,4.321c-0.82-1.05-2.44-1.27-3.5-0.45h-0.01l-21.16,16.35c-0.7,0.54-1.06,1.42-0.95,2.29l2.99,23.32l-23.31-2.99
		c-0.87-0.11-1.77,0.26-2.3,0.95l-14.37,18.6l-14.37-18.6c-0.53-0.69-1.43-1.06-2.29-0.95l-23.31,2.99l2.98-23.32
		c0.12-0.87-0.25-1.75-0.95-2.29L67.59,3.87c-1.07-0.82-2.69-0.61-3.51,0.45c-0.842,1.089-0.651,2.658,0.45,3.51l20.02,15.47
		l-3.21,25.1c-0.209,1.61,1.16,2.991,2.79,2.8l25.1-3.22l15.48,20.02c0.982,1.296,2.929,1.318,3.95,0l15.47-20.02l25.1,3.22
		c1.593,0.207,3.013-1.16,2.8-2.8l-3.22-25.1l20.03-15.47C189.93,6.99,190.13,5.41,189.29,4.321z"/>
	<path d="M101.33,22.671c1.21-0.66,1.65-2.19,0.99-3.4c-2.26-4.08-3.45-8.72-3.45-13.42c0-1.38-1.12-2.5-2.5-2.5
		c-1.38,0-2.5,1.12-2.5,2.5c0,5.54,1.41,11.02,4.07,15.84C98.622,22.93,100.184,23.322,101.33,22.671z"/>
	<path d="M108.15,29.97c0.92-1.02,0.85-2.6-0.17-3.53c-0.98-0.89-2.64-0.81-3.53,0.17c-0.916,0.997-0.876,2.589,0.17,3.53
		C105.632,31.065,107.2,30.999,108.15,29.97z"/>
	<path d="M113.67,35.981c21.553,9.311,45.83-6.459,45.83-30.13c0-1.38-1.12-2.5-2.5-2.5c-1.38,0-2.5,1.12-2.5,2.5
		c-0.039,19.884-20.523,33.471-38.85,25.54c-1.24-0.53-2.75,0.08-3.28,1.3C111.817,33.96,112.399,35.438,113.67,35.981z"/>
	<circle cx="46.27" cy="133.941" r="2.5"/>
	<path d="M51.838,63.727c0.976,0.977,2.56,0.977,3.535,0c3.502-3.501,3.502-9.2,0-12.702c-1.552-1.553-1.552-4.079,0-5.631
		c0.977-0.976,0.977-2.559,0-3.535c-0.976-0.977-2.56-0.977-3.535,0c-3.502,3.502-3.502,9.2,0,12.702
		c1.553,1.553,1.553,4.079,0,5.632C50.861,61.168,50.861,62.751,51.838,63.727z"/>
	<path d="M70.893,63.727c0.976,0.977,2.56,0.977,3.535,0c3.502-3.501,3.502-9.2,0-12.702c-1.552-1.553-1.552-4.079,0-5.631
		c0.977-0.976,0.977-2.559,0-3.535c-0.976-0.977-2.56-0.977-3.535,0c-3.502,3.502-3.502,9.2,0,12.702
		c1.553,1.553,1.553,4.079,0,5.632C69.916,61.168,69.916,62.751,70.893,63.727z"/>
	<path d="M181.572,63.727c0.976,0.977,2.56,0.977,3.535,0c3.502-3.501,3.502-9.2,0-12.702c-1.552-1.553-1.552-4.079,0-5.631
		c0.977-0.976,0.977-2.559,0-3.535c-0.976-0.977-2.56-0.977-3.535,0c-3.502,3.502-3.502,9.2,0,12.702
		c1.553,1.553,1.553,4.079,0,5.632C180.596,61.168,180.596,62.751,181.572,63.727z"/>
	<path d="M200.627,63.727c0.976,0.977,2.56,0.977,3.535,0c3.502-3.501,3.502-9.2,0-12.702c-1.552-1.553-1.552-4.079,0-5.631
		c0.977-0.976,0.977-2.559,0-3.535c-0.976-0.977-2.56-0.977-3.535,0c-3.502,3.502-3.502,9.2,0,12.702
		c1.553,1.553,1.553,4.079,0,5.632C199.65,61.168,199.65,62.751,200.627,63.727z"/>
	<path d="M252.667,110.431l-10.783-33.106c-1.309-4.019-5.028-6.719-9.254-6.719h-79.525c-4.226,0-7.945,2.7-9.254,6.719
		l-10.782,33.106c-2.051,6.297,2.631,12.748,9.254,12.748h9.588v2.433c0,5.991,4.834,10.828,10.828,10.828h27.936v12.52H65.943
		v-12.519H93.26c5.966-0.011,10.83-4.815,10.83-10.83v-2.432h9.588c6.622,0,11.305-6.45,9.254-12.748L112.15,77.325
		c-1.31-4.019-5.028-6.719-9.254-6.719H23.371c-4.227,0-7.946,2.7-9.254,6.719L3.334,110.431
		c-2.051,6.297,2.632,12.748,9.254,12.748h9.592v2.432c0,6.068,4.893,10.819,10.82,10.83h3.27c1.38,0,2.5-1.12,2.5-2.5
		c0-1.37-1.11-2.49-2.48-2.5c-0.01,0-0.01,0-0.02,0h-3.28c-3.191,0-5.81-2.561-5.81-5.83v-2.43h71.91v2.43
		c0,3.236-2.601,5.83-5.81,5.83c-47.676,0-21.24,0-37.01,0c-1.37,0-2.5,1.12-2.5,2.5s1.13,2.5,2.5,2.5h4.673v15.019
		c0,1.381,1.119,2.5,2.5,2.5h60.74v13.941H58.59c-6.89,0-12.5,5.61-12.5,12.5v5.199c-17.349,1.285-31.076,15.801-31.076,33.473
		c0,18.514,15.063,33.577,33.577,33.577s33.576-15.063,33.576-33.577c0-17.673-13.727-32.189-31.077-33.473v-5.199
		c0.01-4.13,3.37-7.49,7.5-7.5h65.593l-0.003,12.703c-17.349,1.285-31.077,15.797-31.077,33.469
		c0,18.514,15.063,33.577,33.577,33.577s33.576-15.063,33.576-33.577c0-17.672-13.727-32.184-31.076-33.469l0.003-12.703h18.907
		c1.37,0,2.5-1.12,2.5-2.5s-1.13-2.5-2.5-2.5h-18.907v-13.941h63.99c1.381,0,2.5-1.119,2.5-2.5v-15.02h27.324
		c5.984,0,10.828-4.822,10.828-10.828v-2.433h9.588C250.035,123.179,254.717,116.728,252.667,110.431z M42.637,75.607h18.227
		l0.019,11.564H40.743L42.637,75.607z M39.924,92.171h20.968l0.016,9.44h-22.53L39.924,92.171z M18.87,78.874
		c0.637-1.955,2.445-3.268,4.5-3.268h14.194l-1.891,11.564H16.168L18.87,78.874z M30.602,118.179H12.588
		c-3.221,0-5.497-3.137-4.5-6.199l1.749-5.37h22.658L30.602,118.179z M33.312,101.611H11.465l3.075-9.44h20.316L33.312,101.611z
		 M35.665,118.179l1.894-11.568h23.357l0.019,11.568H35.665z M65.864,75.607h17.294l1.855,11.564H65.884L65.864,75.607z
		 M65.892,92.171h19.922l1.514,9.44H65.908L65.892,92.171z M65.936,118.179l-0.019-11.568H88.13l1.855,11.568H65.936z
		 M88.224,75.607h14.671c2.055,0,3.864,1.313,4.5,3.268l2.702,8.296H90.079L88.224,75.607z M90.881,92.171h20.845l3.077,9.446
		c-6.836-0.006-14.423-0.006-22.408-0.006L90.881,92.171z M95.053,118.179l-1.855-11.568h23.232l1.749,5.37
		c0.997,3.063-1.281,6.199-4.5,6.199H95.053z M77.167,219.073c0,15.757-12.819,28.577-28.576,28.577
		c-15.757,0-28.577-12.819-28.577-28.577c0-15.746,12.802-28.558,28.545-28.575C65.747,190.897,77.167,204.319,77.167,219.073z
		 M155.256,219.073c0,15.757-12.819,28.577-28.576,28.577c-15.757,0-28.577-12.819-28.577-28.577
		c0-15.757,12.819-28.576,28.577-28.576C142.437,190.497,155.256,203.316,155.256,219.073z M244.537,101.617
		c-6.837-0.006-14.42-0.006-22.408-0.006l-1.512-9.44h20.844L244.537,101.617z M232.629,75.607c2.055,0,3.864,1.313,4.5,3.268
		l2.702,8.296h-20.016l-1.852-11.564H232.629z M219.726,118.179h-24.051l-0.019-11.568h22.215L219.726,118.179z M217.069,101.611
		h-21.421l-0.016-9.44h19.923L217.069,101.611z M212.898,75.607l1.855,11.564h-19.129l-0.019-11.564H212.898z M190.675,118.179
		h-25.271l1.892-11.568h23.36L190.675,118.179z M172.367,75.607h18.237l0.019,11.564h-20.148L172.367,75.607z M169.658,92.171
		h20.974l0.016,9.44h-22.534L169.658,92.171z M148.604,78.874c0.637-1.955,2.445-3.268,4.5-3.268h14.199l-1.894,11.564h-19.508
		L148.604,78.874z M144.274,92.171c5.642,0,12.613,0,20.318,0l-1.546,9.44h-21.846L144.274,92.171z M142.322,118.179
		c-3.22,0-5.497-3.137-4.5-6.199l1.749-5.37h22.656l-1.894,11.568H142.322z M228.824,125.612c0,3.226-2.602,5.828-5.828,5.828
		h-29.819c-0.002,0-0.003,0-0.005,0s-0.003,0-0.005,0h-30.431c-3.228,0-5.828-2.609-5.828-5.828v-2.43h71.915V125.612z
		 M243.412,118.179h-18.629l-1.853-11.568h23.234l1.749,5.37C248.91,115.042,246.632,118.179,243.412,118.179z"/>
	<path d="M46.82,205.66v0.01l-5.86,12.33c-0.799,1.683,0.436,3.57,2.26,3.57h6.79l-4.16,8.76c-0.567,1.175-0.133,2.696,1.18,3.33
		c1.265,0.596,2.748,0.041,3.33-1.18l5.86-12.34c0.812-1.71-0.481-3.57-2.26-3.57h-6.79l4.16-8.76
		c0.573-1.187,0.118-2.714-1.18-3.32C48.94,203.91,47.4,204.461,46.82,205.66z"/>
	<path d="M124.91,205.671l-5.86,12.33c-0.797,1.679,0.433,3.57,2.26,3.57h6.79l-4.16,8.76c-0.572,1.183-0.125,2.699,1.18,3.33
		c1.278,0.602,2.758,0.025,3.33-1.19l5.86-12.32c0.779-1.664-0.425-3.58-2.26-3.58h-6.79l4.16-8.75c0.59-1.25,0.06-2.74-1.18-3.34
		C127.02,203.91,125.48,204.47,124.91,205.671z"/>
	<path d="M202.99,205.671l-5.85,12.33c-0.784,1.655,0.397,3.57,2.26,3.57h6.79l-4.16,8.76c-0.6,1.24-0.06,2.74,1.18,3.33
		c1.268,0.598,2.753,0.035,3.33-1.19l5.86-12.32c0.791-1.689-0.458-3.58-2.26-3.58h-6.79l4.16-8.75
		c0.596-1.254,0.062-2.74-1.18-3.34C205.11,203.91,203.57,204.47,202.99,205.671z"/>
	<path d="M194.77,167.901h-26.68c-1.38,0-2.5,1.12-2.5,2.5s1.12,2.5,2.5,2.5h26.68c4.13,0.01,7.5,3.37,7.5,7.5v5.199
		c-17.351,1.284-31.078,15.801-31.078,33.473c0,18.514,15.063,33.577,33.577,33.577s33.576-15.063,33.576-33.577
		c0-17.672-13.726-32.188-31.075-33.473v-5.199C207.27,173.51,201.67,167.901,194.77,167.901z M233.345,219.073
		c0,15.757-12.819,28.577-28.576,28.577c-15.757,0-28.577-12.819-28.577-28.577c0-14.715,11.37-28.172,28.609-28.575
		C220.543,190.515,233.345,203.327,233.345,219.073z"/>
	<circle cx="158.09" cy="170.401" r="2.5"/>
</g>
</svg>
