<svg xmlns="http://www.w3.org/2000/svg" viewBox="0 0 512 512"><title>Artboard 125</title><g id="Solar_Panel" data-name="Solar Panel"><path d="M64,490.66667H448A42.66667,42.66667,0,0,0,490.66667,448V412.90855A42.41671,42.41671,0,0,0,462.25582,372.676C425.685,360.03578,354.86933,341.33333,256,341.33333S86.315,360.03578,49.74418,372.676a42.41671,42.41671,0,0,0-28.41085,40.23259V448A42.66667,42.66667,0,0,0,64,490.66667Z" style="fill:#0d9f00"/><path d="M256,362.66667h-.3112c-.08333.00016-.16471.00016-.248.00016h-.03646l-.236.00032h-.03743l-.24707.00033-.05957.00016c-.16634.00017-.335.00049-.501.001h-.06217c-.083.00033-.16439.00049-.2474.00065l-.03222.00016c-.07683.00017-.14519.00033-.222.00065l-.06152.00017-.24024.00065-.05534.00032c-.07682.00017-.16276.00049-.23958.00082h-.01335l-.25423.001-.05338.00033-.24707.001-.03809.00016-.223.00114-.05436.00032c-.08269.00033-.15593.00066-.23828.00114l-.06381.00033-.222.0013-.02767.00016c-.08236.00033-.15625.00082-.23893.00131l-.07748.00048-.23372.00147-.03679.00016-.2194.00147-.06022.00048-.24674.00163-.03288.00033-.24316.00179-.02442.00016-.25325.00195-.04883.00049-.25293.002-.01172.00016c-.07617.00065-.16829.0013-.24479.00211l-.05013.00033-.24447.00228-.04687.00032-.23308.00212-.02376.00033-.25586.00244-.04264.00032q-.25488.00268-.50977.00521l-.05436.00065-.24739.00261-.02833.00032c-.082.001-.153.00179-.2347.00261l-.03776.00048-.24511.00277-.058.00065-.21614.00261-.03874.00048-.23958.00293-.0625.00082c-.08171.001-.16244.002-.24414.00309l-.01986.00016-.24088.00326-.03777.00049c-.08138.001-.16731.00211-.249.00325l-.04492.00065-.24349.00342-.01139.00016c-.08757.00114-.16634.00228-.25391.00358l-.04883.00066-.24837.00358-.02214.00032-.22981.00342-.05111.00081c-.08138.00114-.16146.00244-.24284.00375l-.0472.00065c-.06966.00114-.15267.00244-.22233.00342l-.03711.00065-.25163.00407-.03646.00048c-.08723.00147-.17089.00293-.25813.00424l-.00163.00016c-.08691.0013-.1709.00277-.25814.00423l-.03092.00049c-.08692.00163-.1722.00293-.25912.00456l-.02213.00032-.24154.00423-.03125.00049-.24544.0044-.05209.001-.50227.00928-.041.00081c-.08659.00163-.16667.0031-.25326.00489l-.02083.00032c-.08105.00163-.15657.00309-.2373.00456l-.03874.00081-.25033.00489-.03255.00065c-.17317.00358-.33724.00683-.51009.01041l-.0459.001-.24642.005-.03125.00081c-.07487.00146-.15071.00309-.22558.00472l-.04427.001c-.08073.00162-.16341.00341-.24414.0052l-.04232.001-.23959.00521-.013.00032c-.08626.002-.16373.00375-.24967.00554l-.04557.00114c-.08627.002-.16309.00358-.24935.00569l-.0166.00033c-.07455.00163-.15723.00358-.23177.00537l-.05144.00114-.23828.0057-.0498.00114c-.06869.00162-.13347.00309-.20215.00488l-.05534.0013-.23275.00554-.05631.00146-.23959.00586-.028.00065-.21712.00553-.06153.00147-.23177.00586-.05175.0013-.21387.00553-.03581.001-.24251.00635-.0459.00114-.49317.01318-.054.00147-.24219.00667-.02637.00065-.23177.00635-.0345.001-.24805.007-.03288.001c-.08561.00228-.16276.00456-.248.007l-.00847.00016-.248.00716-.04395.00131-.24772.00716-.01693.00049c-.07975.00227-.15592.00455-.23535.007l-.03776.00114c-.07975.00228-.16016.00472-.23958.00716l-.04753.00131-.24219.00732-.00358.00016-.24837.00765-.04622.00131c-.16439.005-.32813.01025-.49252.01546l-.0459.0013c-.0791.0026-.16243.00521-.24153.00765l-.03353.00114-.23112.00749-.02767.00081-.235.00765-.05891.002-.23633.00765-.01986.00065-.22754.00765-.0459.00147-.23958.008-.03841.00131-.21778.00748-.041.0013c-.07324.00261-.15886.00554-.2321.008l-.05631.002-.23926.0083-.00163.00017c-.07877.0026-.1582.00553-.237.0083l-.056.002-.23047.00814-.04785.00163-.19922.00716-.05794.00211c-.07291.00261-.15137.00537-.22428.00814l-.06087.00212-.224.00813-.013.00049-.23568.00879-.05632.00212-.23177.00862-.04036.00147c-.06738.00244-.14779.00553-.21517.00814l-.04069.00146-.23242.00879-.05534.00212-.21582.0083-.02507.001-.22428.00863-.07389.00293c-.07259.00293-.14812.00586-.22071.00863l-.04492.00179-.19792.00781-.0625.00244-.21972.00879-.06478.0026-.18587.00749-.05469.00212-.22038.00895-.06738.00277c-.07259.00293-.15137.00618-.22363.00927l-.04167.00163-.20247.0083-.057.00244-.22266.00928-.0625.0026-.19694.00831-.03938.00162-.22689.00961-.06153.0026c-.0778.00342-.15267.00667-.23046.00993l-.01954.00081-.21875.00944-.05859.00261c-.07227.00309-.15527.00667-.22721.00992l-.04167.0018-.21224.00927-.03646.00163c-.0778.00342-.153.00667-.23079.01025l-.05436.00228c-.07194.00326-.14616.00668-.21843.00977l-.03288.00146-.22135.01009-.05534.00245-.22266.01009-.05794.0026-.18685.00863-.05468.00244-.2142.00993-.08105.00374-.17741.0083-.06185.00277-.20671.00976-.07519.00342-.209.00993L221,363.49089l-.15885.00765-.08269.0039-.20377.00977-.07943.00374-.17513.00846-.056.00277-.22168.01074-.05794.00293c-.07162.00342-.151.00733-.22233.01091l-.04916.00244-.19173.00944-.05469.0026c-.07682.00391-.14485.00733-.22168.01107l-.05924.00293-.19206.00977-.04785.00228c-.07129.00358-.14844.00748-.21973.01123l-.0664.00325-.2207.01123-.0254.0013-.21484.01107-.04785.00244c-.07682.00391-.15267.00781-.22949.01188l-.04232.00212-.20117.01058-.0472.00244-.22819.01188-.04558.00244-.23079.012-.01758.001-.2194.01172-.05338.00277-.22136.01188-.05924.00309-.18588.0101-.0498.0026-.22656.01237-.04753.0026c-.07617.00407-.15039.00814-.22656.01237l-.00912.00049c-.07617.00407-.14876.00814-.22493.01237l-.06348.00342-.22.01221-.04264.00227-.194.01091-.05469.00293c-.07617.00439-.15169.00863-.22754.01286l-.03809.00211-.21451.012-.02963.00163-.23014.01318-.04329.00244c-.08138.00456-.153.00863-.23438.01335l-.02116.00114-.22461.013-.03255.00179-.23177.01351-.04395.00244q-.10547.00635-.21126.01237l-.027.00163-.22135.01285-.06413.00375-.21745.01285-.03678.00212-.19531.01172-.06088.00358-.22363.01335-.03222.00195c-.07553.00439-.14226.00846-.21778.013l-.02669.00163-.22917.01383-.04817.00293-.22266.01351-.02962.00179-.20866.0127-.05306.00325-.22136.01367-.04655.00293-.18652.01156-.056.00342-.20768.01286-.07292.00455-.19531.01221-.03711.00244-.20866.013-.06185.00391c-.06966.00439-.15006.00944-.21972.014l-.03679.00227-.18978.012-.06087.00391-.21452.01383-.05175.00326-.19532.01253-.04752.00309-.20573.01335-.06771.00439-.21029.01367-.05273.00342c-.06413.00423-.11524.00765-.17936.01172l-.05762.00391-.21354.014-.05827.00391-.19238.01269-.03776.00245c-.06934.00472-.14388.0096-.21289.01416l-.06836.00455-.21713.01465-.01562.001c-.069.00472-.13639.00928-.20573.01383l-.06152.00424c-.069.00455-.14226.0096-.21127.01432l-.055.00374-.17448.01188-.06575.0044-.20346.01383-.0664.00472c-.07455.00505-.13965.00944-.21387.01465l-.0293.002-.192.01335-.06641.00456-.20182.014-.07324.00521-.16179.01123-.06445.00456-.20247.01416-.071.005c-.06868.00472-.13183.00927-.20052.01416l-.029.002-.19206.01367-.08561.006-.19043.01368-.07454.00537-.15788.01123-.06836.00488-.2028.01465-.06576.00472-.19531.01416-.02376.00179c-.07389.00521-.14388.01042-.21777.01579l-.057.00407-.21257.01562-.0472.00342-.18457.01351-.056.00423-.20833.0153-.06055.00456-.20214.015-.0153.00114c-.07357.00537-.14454.01074-.2181.01628l-.06055.00439-.21354.01611-.03516.00261-.18392.01383-.06966.00521c-.068.00521-.13639.01042-.20443.01546l-.05371.00407-.182.01384-.04623.00358-.20377.01562-.07422.00554-.18164.014-.07357.0057-.16764.01286-.07064.00553-.20117.01546-.058.00456-.18912.01465-.0306.00244-.21224.0166-.06576.00521-.19466.01514-.04492.00358-.1862.01481-.07226.0057c-.06771.00521-.13151.01041-.19922.01578l-.06055.00472-.15788.01254-.06868.00553-.19955.01595-.06966.00554-.16048.01285-.09245.00749c-.05208.00423-.1136.00928-.16569.01335l-.07682.00618-.194.01579-.06315.00521-.16732.01351-.05306.00439-.19954.01628-.07943.00651-.15983.01318-.06185.00505-.17871.01465-.09961.0083-.15169.01253-.10482.00879-.13867.01155-.07748.00635-.19629.01644-.0677.0057-.15495.013-.06608.00553-.19792.0166-.06641.0057c-.06705.0057-.138.01172-.20507.01725l-.03646.00309c-.06185.00538-.124.01058-.18588.01579l-.05371.00472-.20345.01726-.06738.00585c-.05143.0044-.11165.00944-.16309.014l-.05371.00456-.20247.01741-.0651.00554-.18425.016-.06282.00553-.17123.01481-.06478.0057-.20182.01758-.05566.00488c-.05632.00488-.11133.0096-.16765.01465l-.05924.00521c-.06673.0057-.13444.01172-.20117.01758l-.06446.00569-.16341.01449-.08008.007-.17741.01579-.05436.00472c-.0664.006-.13834.01237-.20475.01822l-.05664.00505-.1709.0153-.05241.00472-.19987.0179-.06933.00619-.17513.01579-.03418.00309-.19825.0179-.07356.00668-.194.01757-.06478.00586-.13867.0127-.09115.0083-.18229.0166-.07324.00667-.14779.01368-.07487.00683-.18.0166-.07585.007-.16081.01481-.11035.01026-.12337.01155-.08919.0083-.17806.01644-.09115.00863-.12305.01155-.08007.00749-.17318.01628-.09961.00928-.13705.013-.11458.01074-.13216.01253-.08561.00814-.18327.01741-.07552.00717-.13672.013-.07585.00732-.18619.01774-.07422.00716c-.05046.00472-.1071.01026-.15756.01514l-.09049.00863-.14909.01448-.08366.008-.17871.01741-.08561.0083-.12467.012-.07878.00765-.181.01758-.08333.00813-.14388.01416-.10026.00977-.14095.01383-.09668.00961-.17286.01692-.07584.00765-.13281.013-.07943.008-.17741.01758-.085.00846-.12988.01286-.12142.01221-.13412.01334-.09082.00912-.17318.01741-.07454.00749-.13151.01318-.085.00863-.17774.0179-.07617.00782-.151.01529-.05892.00586-.18522.01888-.08008.00814-.18424.01888-.05046.00521-.14909.0153-.08366.00846-.181.01872-.06575.00667-.14844.0153-.07129.00733-.17676.01839-.08723.00911-.12989.01335-.12044.0127-.125.013-.08659.00895-.17318.01807-.08658.00911-.12207.01286-.0879.00928-.16145.01692-.11068.01172-.09766.01026-.13346.01416-.126.01334-.08919.00944-.179.019-.06282.00668-.14421.01546-.07975.00846c-.05892.00635-.11589.01254-.17513.01872l-.0791.00863-.137.01465-.08268.00895-.15918.01709-.08431.00911-.13769.015-.12012.01285-.12468.01368-.07779.0083-.17839.01953-.07454.00814-.15072.01644-.04981.00537-.18033.01985-.08594.00944-.182.02-.03971.00423-.1683.01856-.06445.00716-.18457.02051-.07292.008-.12207.01368-.09049.00992-.16406.01823-.085.00961c-.05371.00586-.1058.01171-.15918.01774l-.06739.00748-.16015.01791-.06511.00732-.18164.02051-.0791.00879-.12435.014-.0765.00878-.17154.01937-.08757.00993-.14062.01579-.085.00977-.14811.01676-.082.00944-.17741.02018-.06022.007-.14681.01676-.06315.00717-.18424.02116-.07032.00813-.13574.01563-.10091.01172-.14681.01692-.07585.00879-.165.019-.08951.01041-.11915.01384-.0804.00944c-.05306.00618-.11295.013-.166.01937l-.09929.01155-.10644.01237-.099.01172-.16211.01888-.069.00814-.18653.022-.03971.00472-.15657.01839-.07064.00847c-.05762.00667-.1237.01465-.18164.02148l-.06055.00716-.14941.01774-.05892.007c-.0625.00733-.12207.01449-.18425.022l-.06445.00764-.15169.01807-.10026.012-.12468.01481-.07975.0096-.17057.02051-.082.00993-.12434.015-.07194.00863-.17513.02115-.07813.00944-.13444.01628-.10384.0127-.12663.0153-.08463.01025c-.05241.00651-.11589.01416-.1683.02051l-.08431.01041-.10254.01254-.11751.01432-.14258.01742-.08626.01057-.11035.01368-.12989.016-.11881.01465-.08236.01009-.13834.01709-.12175.01513-.10058.01254-.08822.0109-.1709.02116-.07357.00928-.123.0153-.1237.01546-.10938.01367-.09733.01221-.12565.01579-.12109.01513-.10254.01286-.09766.01237c-.05208.00651-.10709.01335-.15885.02l-.08985.01123-.09277.01172-.14225.01806-.112.01416-.09115.01156-.11588.01481-.13379.01693-.10156.013-.09571.01221-.15267.01953-.10188.013-.08789.01123-.13021.01676-.11361.01465-.10645.01367-.09667.01237-.15235.0197-.083.01074-.11132.01432-.12045.01563-.12565.01627-.08431.01107-.13965.01807-.1097.01432-.10579.01384-.07389.0096-.18816.02458-.06673.00878-.11133.01465-.15039.0197-.08528.01123-.09994.01318-.09179.012-.15137.02-.09831.013-.0931.0122-.16243.02165-.08041.01058-.10514.014-.10644.01416-.14812.01969-.06445.00863-.362.04834-.08887.01188-.138.01855-.111.015-.09473.01286-.096.01285-.15723.02116-.0752.01026-.10254.01383-.11.01481-.14258.01937-.07813.01058-.18847.02572-.05436.00748-.12142.01644-.04753.00651-.20052.02735-.05762.008-.11849.01611-.03678.00521c-.06934.00944-.13965.01905-.209.02865l-.071.00976-.17448.02409-.07942.01091-.097.01334-.09993.01384-.14812.02051-.07617.01058-.11751.01627-.01335.00179-.24316.03386-.0472.00667q-.18994.02637-.37923.0529l-.03907.00537-.18066.02539-.08626.012-.1045.01465-.09537.01351-.14388.02018-.08659.01221-.09929.01416-.14681.02067-.10026.01416-.07519.01074-.166.0236-.07649.01075-.10775.01529-.08041.01156-.15592.02214-.09147.013-.09147.01318-.14551.02083-.10417.01482-.08268.01188-.111.01595-.13086.01888-.0931.01334-.09082.01319-.15267.022-.083.012-.10156.01465-.1429.02067-.08952.013-.10352.015-.0765.01107-.15625.02278-.08854.01286-.098.01432-.13672.02-.098.01433-.09538.014-.08659.01254-.15169.02229-.08887.013-.08789.013-.14323.021-.10742.01579-.068.01009-.17188.02539-.07291.01074-.10677.01595-.08236.01221-.1569.02328-.07031.01041-.10319.0153-.13965.02084-.10612.01578-.06706.01009-.16829.02507-.08008.012-.10059.01514-.05859.00879-.19792.02962-.04883.00733-.10807.01627-.08952.01351-.15755.02376-.0638.00961-.181.02734-.06152.00928-.10775.01644-.084.01269-.14225.02165-.08789.01335-.09049.01367-.14649.02246-.10189.01546-.06217.00944-.18425.02832-.06608.01009-.098.015-.07519.01155-.16862.02588-.06869.01058-.09765.015-.1084.01677-.1364.021-.067.01042-.15853.02442-.08561.01334-.10092.01563-.06673.01025-.17448.02718-.06217.0096-.10612.01661-.07389.01139-.16179.02539-.07487.01156-.15332.02408-.08138.0127-.11133.01742-.04622.00716c-.06315.01009-.1276.02018-.19108.03011l-.05892.00927-.09961.01563-.08757.01383c-.0524.00814-.10026.01579-.15266.02409l-.07227.0114-.151.02392-.08594.01351-.10254.01628-.071.01123-.13672.02164-.09961.016-.08789.014-.10612.01677-.13346.02132-.07585.012-.17383.02783-.06347.0101-.10222.01643-.05924.00944-.195.03142-.04329.00683-.10352.01677-.06543.01041-.19466.03142-.03353.00537c-.11719.01888-.2321.03743-.349.05648l-.06706.01074-.33593.05452-.07422.01221-.16016.026-.0651.01058-.10808.01758-.07291.01188-.15755.02588-.06153.01009c-.07031.01139-.13574.02214-.20605.03369l-.02767.00456-.10254.01676-.07357.01221-.16569.02718-.06315.01042-.1097.01807-.026.00423c-.07.01172-.1403.02327-.21029.03483l-.04687.00781-.12663.02083-.11328.01888-.09245.0153-.08952.01481-.15853.02637-.05631.00944-.11263.01872-.03841.00635c-.06446.0109-.12826.02148-.19271.03222l-.05241.00879-.10742.01791-.03321.00553-.19531.03271-.07357.01237-.15657.02637-.07129.01188-.09831.0166-.06673.01124-.18424.03108-.03353.0057c-.11524.01937-.22852.03857-.3431.05794l-.06608.01123-.18034.0306-.04785.00814-.10775.01823-.05241.009-.16992.029-.06576.01123-.10123.01725-.098.01677-.1224.02083-.082.014-.126.02165-.09668.0166-.10221.01758-.055.00944-.16342.02815-.07584.013-.08789.01514-.12077.02084-.09212.01595-.11068.019-.06738.01172-.14551.02523-.08073.014-.10287.01774-.08951.01563-.11687.02034-.08723.01514-.11426.01986-.09473.0166-.10221.01774-.08106.01416-.14192.0249-.07292.0127-.10482.01839-.08138.01432-.13281.02328-.07715.01351-.10286.01806-.1071.01888-.11393.02018-.06153.01075-.15169.02685-.07.01237-.10286.01823-.07813.01384-.12988.02295-.09017.016-.08366.015c-.03938.00684-.08268.01465-.12174.02165l-.10677.01888-.069.01237-.14681.0262-.07292.013-.09277.01644-.07845.014-.14453.02588-.068.0122-.11914.02133-.08333.015-.12045.02165-.07259.013-.11458.02067-.11068.02-.07715.01383-.08626.01563-.12923.02327-.095.01725-.08106.01465-.11458.02067-.10319.01872-.085.01546-.097.01758-.11914.02165-.0791.01448-.08529.01547-.13346.02441-.08887.01611-.07389.01351-.13216.02409-.0957.01758-.0778.01432-.11394.02084-.09407.01725-.09766.0179-.07291.01351-.138.02539-.08138.015-.09571.01757-.081.015-.13672.02523-.06152.01139-.14747.02734-.04687.00863-.12077.0223-.06868.01286-.15365.02848-.043.008-.13249.02458-.0498.00944-.16244.03011-.04134.00781-.14746.02751-.0459.00846-.14518.02719-.04459.0083c-.04851.00911-.10612.02-.15463.029l-.06152.01155-.12044.02263-.04883.00927-.14876.02784-.07325.01383-.10026.01888-.08789.0166-.12044.02279-.0599.01123-.152.02881-.05111.0096-.11914.02262-.06055.0114-.15267.029-.04687.009-.138.02621-.03256.00618-.15983.03044-.04915.00944c-.05208.00976-.10286.01953-.15495.02946l-.04752.00911-.12956.02474-.04655.00879-.15918.0306-.04134.00781-.14942.02865-.02083.00407-.15918.03059-.055.01058-.151.029-.03841.00732-.13965.027-.04362.00846-.16439.03174-.0293.0057c-.04394.0083-.0931.0179-.137.02636l-.04623.009-.15983.03092-.03678.00716-.15072.0293-.04622.00895-.14095.02734-.042.00814-.16374.0319-.026.005-.16244.03174-.013.0026-.1709.03337-.03287.00634-.16927.03321-.00293.00065-.16667.03255-.04167.0083c-.11426.0223-.23014.04509-.3444.06755l-.02051.00407-.17806.03515-.00976.00179-.17643.035-.00879.00162-.18132.03581-.00944.002c-.18424.03646-.36556.07243-.54948.10889l-.02311.00472c-.24642.049-.488.09717-.7334.14632l-.0039.00082c-.4987.09977-.99252.19938-1.48731.29964l-.00163.00049c-.24739.05013-.48958.09944-.736.14974l-.00521.001q-6.23877,1.27393-12.03939,2.591a21.33333,21.33333,0,1,0,9.44955,41.60709c43.24837-9.79,89.93717-14.75407,138.76953-14.75407a21.33333,21.33333,0,0,0,0-42.66666Z" style="fill:#47cd1c"/><rect x="298.66671" y="405.33333" width="191.99996" height="85.33333" rx="42.66662" ry="42.66662" style="fill:#0e8900"/><rect x="128" y="192" width="42.66667" height="298.66667" rx="21.33331" ry="21.33331" style="fill:#e4dbff"/><circle cx="149.33333" cy="277.33333" r="21.33333" style="fill:#d1c2ff"/><rect x="149.33333" y="277.33333" width="21.33333" height="192" rx="10.66666" ry="10.66666" style="fill:#d1c2ff"/><rect x="298.66667" y="192" width="42.66667" height="298.66667" rx="21.33331" ry="21.33331" style="fill:#ac93ff"/><circle cx="320" cy="362.66667" r="21.33333" style="fill:#774dff"/><rect x="320" y="341.33333" width="21.33333" height="128" rx="10.66666" ry="10.66666" style="fill:#774dff"/><path d="M490.66667,170.66667l-.11285.06741a55.38042,55.38042,0,0,0-19.95672,74.53451l.06127.10978-.0033.00005A55.38042,55.38042,0,0,0,416.021,300.00557v.00006l-.08691-.04854a55.38042,55.38042,0,0,0-74.55166,19.96072L341.33334,320l-.06742-.11285a55.38041,55.38041,0,0,0-74.5345-19.95672l-.10979.06128,0-.00331a55.38042,55.38042,0,0,0-54.62715-54.63408h-.00006l.04854-.08691a55.38043,55.38043,0,0,0-19.96072-74.55167L192,170.66667l.11285-.06741a55.38042,55.38042,0,0,0,19.95672-74.53451l-.06127-.10979.00329,0a55.38042,55.38042,0,0,0,54.63409-54.62716v0l.08692.04853a55.38042,55.38042,0,0,0,74.55166-19.96072l.04907-.08219.06742.11285a55.38041,55.38041,0,0,0,74.5345,19.95673l.10979-.06128,0,.0033A55.38043,55.38043,0,0,0,470.67224,95.979h0l-.04854.08691a55.38042,55.38042,0,0,0,19.96073,74.55166Z" style="fill:#ff9c5e"/><circle cx="341.33333" cy="170.66667" r="85.33333" style="fill:#ff690b"/><path d="M341.33333,64a106.68117,106.68117,0,0,0-40.75781,205.26357,10.66663,10.66663,0,0,0,8.15593-19.71265,85.05317,85.05317,0,0,1-12.51954-6.44246l-.00618-.00405c-.05339-.0332-.10417-.0651-.15755-.09843l-.00619-.004c-.05143-.03224-.10319-.06479-.15429-.09714l-.01172-.00731-.14714-.09308-.02018-.01265-.14486-.0921-.01725-.011-.14193-.09064-.026-.01666-.0599-.03843-.0345-.02213-.041-.02637-.02864-.01843-.05664-.0364-.03776-.02448-.03972-.02555-.02669-.01723-.07715-.05009-.0166-.01062-.041-.02676-.03093-.02-.05664-.03686-.03581-.0234-.03808-.02482-.03451-.02244-.03678-.02411-.05436-.03558-.03353-.022-.04069-.02666-.03353-.02209-.05762-.0379-.026-.01722-.04915-.03234-.029-.01913-.055-.03629-.03-.01984-.04817-.032-.02865-.01892-.05631-.0375-.02572-.01715-.06348-.04214-.00521-.00343-.068-.04554-.02344-.01572-.06119-.04084-.0127-.00856-.06673-.04486-.01725-.01146-.14323-.09639-.01693-.01162-.07162-.0483-.00423-.00278-.068-.04619-.01628-.011c-.04882-.033-.09505-.0645-.14355-.09764l-.01693-.01162-.07194-.04891-.0026-.00179-.07-.04793-.01465-.01011-.07226-.04946-.00456-.00313-.06608-.04552-.01725-.012-.071-.04872-.00683-.00479-.06706-.04638-.013-.00887-.14518-.10073-.01465-.01028-.07194-.05-.00554-.00385-.068-.04754-.01237-.00863-.07227-.05038-.00813-.0059-.06478-.04528-.01367-.00959-.07292-.05135-.00391-.00274-.07259-.05109-.00618-.00433-.15332-.10836-.00424-.003c-.10481-.07418-.209-.14846-.31347-.22311l-.001-.00081a85.33966,85.33966,0,0,1-34.33984-53.98161l-.00033-.00061c-.01172-.06557-.02376-.1319-.03581-.19751v-.00051c-.02376-.13124-.04752-.26406-.07063-.3955l-.00033-.00167-.03353-.19344-.00163-.00828-.03287-.19231-.001-.00451c-.01074-.06309-.02213-.13-.03255-.19314l-.0013-.00681c-.01107-.06588-.02149-.12728-.03223-.19322l-.001-.00454-.03157-.19268-.0013-.008c-.01042-.06325-.02149-.13084-.03158-.19411l-.00033-.00316-.03125-.19372-.001-.00769-.0153-.09627-.00033-.00139-.01465-.09346-.0013-.00845-.01465-.0947-.001-.00672-.014-.08905-.0013-.00976-.02962-.193-.00066-.00537-.01464-.09674-.00065-.00421-.01368-.09167-.0013-.00867-.014-.095-.001-.00635-.01367-.09171-.00066-.006-.014-.09523-.00131-.00869-.01269-.08764-.0013-.01036-.01367-.09367-.00131-.00905-.01269-.09074-.001-.00531-.01334-.09619-.001-.00653-.013-.09324-.00065-.00466-.01335-.09587-.0013-.0082c-.00456-.03326-.00846-.0612-.0127-.09446l-.00032-.00124-.0127-.09406-.002-.01456-.012-.08806-.00065-.00537c-.00455-.0333-.00846-.06173-.01269-.095l-.0013-.01023c-.00879-.06383-.01693-.12708-.02539-.191l-.00131-.00944-.01237-.09528v-.00024l-.01237-.09609-.0013-.00993-.02441-.19242-.001-.00818c-.00814-.064-.01627-.1282-.02409-.1922l-.0013-.01075-.02344-.19055-.0013-.01088-.02246-.18968-.00195-.01406-.02181-.1863-.002-.01676-.01074-.09218-.00032-.00389-.01042-.09025-.00163-.0151-.01041-.09342-.00033-.00252-.01009-.09027-.00195-.01579-.01042-.09355-.00033-.00356-.01009-.09133-.0013-.01312c-.00716-.06429-.01367-.12466-.02051-.189l-.0013-.01342-.01009-.09418-.00065-.00615c-.00293-.028-.00651-.06113-.00912-.08913l-.00162-.01342-.00977-.09548-.00033-.00125-.00976-.0958-.00065-.00777-.00977-.097-.00065-.00563-.00879-.08934-.00162-.01359-.00912-.09444-.00065-.00641-.00846-.08679-.00163-.0163-.00879-.09078-.0013-.01487-.00814-.08286-.0013-.0138-.00879-.09365-.00065-.00976c-.00293-.02808-.00586-.06061-.00847-.08871l-.00065-.00952-.00879-.0955-.001-.0094-.00814-.08939-.00065-.00936-.00879-.09623-.00065-.00751-.00782-.09017-.001-.01-.00814-.09271-.0013-.01624-.00716-.08256-.001-.01353-.00781-.09094-.0013-.01833-.00717-.08362-.00065-.00946c-.0026-.031-.00521-.06067-.00748-.09165l-.00163-.02057-.00651-.07955-.0013-.01365-.00717-.09092-.0013-.019c-.00228-.02817-.00455-.05434-.00651-.08254l-.001-.011-.00684-.09068-.00163-.0203-.00618-.08214-.001-.01155-.00684-.09123-.0013-.01849-.00651-.08958-.00032-.00283-.00684-.092-.0013-.022c-.00228-.02824-.00423-.058-.00619-.08622l-.00032-.0049-.00684-.09424-.001-.01644-.00619-.09153-.00032-.002-.00619-.09209-.0013-.02136-.00619-.08984v-.00163l-.00618-.09233-.0013-.02059-.01172-.18457-.0013-.02065c-.00359-.06231-.00749-.1217-.01107-.18406l-.0013-.022-.01075-.18174-.0013-.02372-.00521-.09052-.00032-.00462-.00456-.08653-.0013-.02366-.01009-.18312-.001-.021-.00488-.09314v-.00122l-.00488-.09316-.00066-.01632-.00488-.0945v-.00468c-.00163-.0284-.00293-.05792-.00423-.08634l-.001-.02281-.00455-.09088-.00033-.00968-.00391-.083-.001-.022-.00391-.09133-.00065-.01068-.00358-.08033-.001-.02474-.00358-.08872-.001-.01605-.00293-.07638-.001-.02551c-.0013-.03133-.00261-.05733-.00358-.08867l-.00065-.01538-.00293-.07741-.001-.02336-.00325-.089-.001-.01911-.0026-.07426-.001-.0249-.00293-.08813-.00065-.0197-.00261-.0746-.001-.02287c-.00065-.02853-.002-.06122-.00293-.08974l-.00033-.0173-.0026-.08091-.00065-.0168-.00261-.09192-.00065-.01772-.00228-.07864-.00065-.019-.0026-.091-.00033-.01866-.00228-.0812-.00032-.01475-.00261-.095-.00032-.01228-.00195-.0846-.00033-.01571-.00228-.09049-.00032-.02189-.00163-.07831-.00065-.01674-.00163-.09013-.00065-.02242-.0013-.07737-.00033-.0174-.00195-.09-.00033-.02209-.0013-.07892-.00033-.01613-.0013-.0916-.00032-.01926-.00131-.084-.00032-.01143-.0013-.09371v-.01664l-.00131-.09091v-.00494l-.001-.09265-.00033-.02395-.00065-.07881-.00032-.01443-.00065-.08984-.00033-.02435-.00065-.08295v-.00989l-.00065-.09165v-.02263l-.00065-.08471v-.00889l-.00033-.09148V170.968l-.00032-.08747v-.00681L256,170.78261v-.11594h0a85.33335,85.33335,0,0,1,85.33333-85.33334h0l.08366,0,.02409,0,.0625.00011.02441.00005.08366.00022h.00163l.08073.00031.02572.00011.0638.0003.02083.00012.085.00049.00684,0,.07552.00052.02669.00021.05892.00047.02669.00022.08171.00074.0153.00015.06641.00067.029.00031.0638.00072.01888.00022.084.001.01563.00021.068.0009.02539.00036.06511.00093.01953.00029.08268.00128.01986.00032.06217.001.0293.0005.06608.00116.01628.0003.084.00156.01693.00034.06771.00133.02343.00047.06934.00144.01562.00033.08236.0018.02214.0005.06217.00142.02539.00059.08008.00192.00228.00007.085.00211.02116.00055.0638.00167.02376.00063.08073.00219.00261.00008.08235.00232.0267.00077.05566.00164.0306.00089.08008.00245.00651.0002.07584.00238.02767.00088.05762.00188.02669.00087.07878.00266.02279.00078.06152.00213.029.001.05632.002.02766.001.08008.00294.01595.00061.06869.0026.02409.00092.06738.00263.01595.00062.08236.00328.02116.00087.06445.00264.02441.001.06315.00267.02149.0009.082.00354.01628.00071.069.00307.02148.001.07227.00328.012.00054.08171.00379.02408.00112.06218.003.02344.00111.07324.00356.01009.00048.08366.00415.01888.00094.06575.00334.02344.0012.07878.00408.00325.00016.08366.00441.02116.00114.0651.00351.02181.00118.07943.00435.00391.00022.08268.00464.02116.00119.06575.00375.02116.00123.083.0048.00521.00032.07487.00443.02832.00168.06022.00363.02311.0014.08073.005.01465.0009.07031.00439.02084.00132.06575.00417.02083.00133.08236.00532.01139.00075.07.00457.02637.00175.06348.00424.01953.0013.07975.0054.02441.00168.06153.00422.02213.00154.06673.00466.01921.00135.08171.00581.01627.00114.06576.00476.02506.0018.07357.00538.00749.00056.08463.00626.01725.0013.06934.0052.01693.00128.07584.00579.01042.0008.08333.00645.01693.00131.068.00534.02019.00159.07356.00584.01075.00088.08008.00644.02506.002.06413.00524.01725.00142.08333.00689.00131.00011.08268.00692.02181.00185.06315.00534.02181.00189.16536.01428.02116.00186.07064.00621.01139.001.08692.00774.00163.00017.083.00746.0153.0014.07227.00661.014.00127.08431.00778.01009.00094.07161.0067.02442.00228.06543.0062.01627.00153.08138.00779.02018.00194.06283.00607.02572.0025.06347.0062.01823.00179.08106.008.0192.00193.06478.00645.02311.00232.071.00716.01041.00106.082.00838.02116.00217.06153.00635.026.0027.06868.00713.01172.00124.082.0086.01986.00212.06315.0067.02441.00262.16309.01761.01953.00212.0638.007.02377.00263.07291.008.00847.00094.07845.00877.02832.00314.055.00622.02767.00314.15918.01818.02734.00316.0586.00681.02311.0027.08008.00935.014.00166.06478.00766.03028.00356.054.00647.02832.00337.07878.00947.01139.00139.068.00825.02734.00333.05859.00719.02344.00285.07943.00982.01725.00214.06315.00785.02637.00332.0638.008.01725.00218.08269.01048.01269.00163.06478.00827.02995.00384.05566.00717.02507.00326.07812.01014.02116.00277.05925.00777.028.00367.05762.00763.02441.00321.0778.01037.02279.003.05631.00756.03028.0041.057.00772.026.00354.07194.00979.03386.00466.04655.00641.03255.00446.057.00792.03548.00491.06445.009.02832.004.05046.0071.03222.00455.06543.00928.02539.0036.06511.0093.02864.00413.05372.00771.027.00394.07.01012.028.00411.06087.00886.02669.00392.055.00812.02637.00386.07813.0116.01464.00221.06641.00988.026.00393.05957.009.02018.003.08073.01224.0127.00192.06933.01059.02247.00346.05794.00891.02571.00394.07585.01178.02279.00351.05892.00918.02767.00432.05892.00926.02083.00327.07682.01213.02442.00388.05957.00948.02343.00376.06674.01071.01367.00218.0804.013.01888.00308.06022.00978.02865.00465.06282.01027.0153.00253.07748.01274.02441.004.05859.00973.02605.00429.0651.01085.01432.00239.0765.01283.026.00441.05729.00966.02539.0043.07813.01331.00358.0006.07357.01261.029.00493.05534.00956.02571.00444.0765.01324.01465.00252.06673.01167.02214.00389.05957.01042.02506.00444.07845.01384.00684.00123.07226.01277.02247.004.06738.01208.013.00231.0804.01442.01921.0035.0625.0113.02116.00382.0664.01211.016.00289.08236.01512.00554.001.07291.01343.02149.00393.06933.01288.0114.0021.0804.015.0192.00357.05958.01118.026.0049.05989.01128.02116.004.07813.01484.0166.00312.06445.01232.02149.00408.07649.01471.00261.00048.08008.01542.02278.00447.06022.01164.02051.004.068.01328.01661.00326.07487.01466.02246.00444.05859.01153.02409.00479.15788.0314.02246.00451.05957.012.02148.00431.07976.01606.00423.00082.07552.01534.02051.00421.06543.01334.015.003.08105.01668.00977.002.068.014.027.00561.05632.01166.02213.00461.0778.01616.01563.00332.06478.01357.02213.00461.06445.01354.0153.00326.08073.01707.0114.00244.068.01448.02116.00448.06868.01465.01075.00234.07942.01709.01921.00409.06217.01346.02084.00451.07291.01578.00586.00132.08073.0176.0179.00391.06153.01347.02409.00529.07129.01571.00586.00134.07877.01743.02279.00509.05729.01273.02441.00547.06934.01551.00911.002.07748.01742.02344.0053.055.01247.027.00611.15429.035.02344.00539.06055.01389.01855.00426.15755.03632.02409.00563.05534.01287.02539.00592.07715.018.00716.00169.07064.01659.02246.00531.06185.01458.0179.00423.0778.01847.01563.00368.06315.015.02409.00573.05729.01375.02311.00548.07585.01824.01823.00444.05761.01391.029.007.05631.01369.02083.005.07748.01886.015.00365.0638.01563.02214.00538.06315.01558.01628.004.0778.01923.01725.00425.06055.015.02408.006.068.01693.00911.00231.0778.01942.02149.00539.05989.01507.01986.005.07031.01774.00944.00239.07748.0197.01953.005.06054.01536.02084.00538.1582.04058.01628.00412.06477.01675.01726.00448.07487.0194.01595.00417.06608.01721.02116.00547.05924.01549.02116.00556.07748.02038.00618.0016.07161.01886.02214.00587.06055.016.0179.00477.07715.02055.01335.00358.06575.01757.02181.00584.05534.01482.02539.00681.07487.02014.01465.004.06315.01711.02344.00633.05989.0163.01823.00491.07389.02018.02442.00665.056.01537.02344.0064.05859.01613.02018.00553.07324.02025.02572.00708.04915.01367.03451.00958.04525.01255.02864.008.07.01954.03.00836.0511.01434.02539.00717.0586.01648.02018.0057.07194.02032.02441.007.05339.0151.028.00794.0625.01786.01791.00515.06673.01906.02865.00824.05273.01511.02376.00691.07292.021.01367.004.06478.0187.02376.00687.05469.016.02539.00735.07389.02156.012.00351.06348.01865.02539.00743.05468.01607.02442.00721.07194.02122.02181.00646.057.01692.02149.00637.06217.01848.0166.005.07683.023.01334.004.06153.01844.02506.00757.058.01741.01953.00588.07487.02257.0179.00546.05957.0181.02148.00653.05957.01815.02019.0061.07356.02252.02051.00623.056.01722.02409.00734.06543.02018.01074.00328.07683.0238.01692.00521.06315.01963.01563.00482.07519.02334.00391.00124.07813.02443.0166.00523.05794.01815.02441.00763.0739.02332.001.00024.07748.02453.01725.00545.06283.01994.01627.00509.07813.02491.00032.00007.07682.02455.01758.00562.0625.02.01628.00522.07715.02481.00781.00256.06771.02179.02246.00732.06413.02074.00976.00316.08073.0262.00261.00086.07324.02395.01888.00615.06282.02049.01433.00473.07715.02535.01139.00372.06575.02176.01921.00626.06966.02306.00521.00174.0791.02622.01237.00414.06706.02237.01465.00487.07421.0248.00261.0009.0804.02691.00944.00317.06739.02271.01692.00577.15658.0529.00814.00276.06966.02373.01465.005.1556.05317.01171.004.06967.024.01009.00346c.05175.01773.10677.03681.1582.05463l.01107.00372.069.024.01172.00407.1556.05428.01464.00516.06446.02251.015.00533.15625.055.01042.00374.07259.02567.00651.00228.15885.05653.00977.00351.07585.02714.00227.00083c.054.01926.10515.03765.15886.057l.012.00436c.07943.0286.16081.05815.24024.087l.00293.0011q.12255.04464.24511.0896l.00163.00067c.08171.03.16471.06066.24609.0909l.00033,0a85.01926,85.01926,0,0,1,13.77474,6.57511,10.66668,10.66668,0,0,0,10.8431-18.37221A106.589,106.589,0,0,0,341.33333,64Z" style="fill:#ff8132"/><path d="M341.33333,256a85.33335,85.33335,0,0,0,85.33334-85.33333v-.11595l-.00033-.09113v-.00681l-.00032-.08746v-.02218l-.00033-.09147v-.00889l-.00065-.08472v-.02262l-.00065-.09166v-.00989l-.00065-.08294-.00033-.02435-.00065-.08985-.00033-.01442-.00065-.07882-.00032-.02395-.001-.09265V169.622l-.0013-.0909v-.01665l-.0013-.0937-.00033-.01144-.0013-.084-.00033-.01927-.0013-.09159-.00032-.01614-.00131-.07892-.00032-.02209-.002-.09-.00033-.01739-.0013-.07737-.00065-.02242-.00163-.09013-.00065-.01675-.00163-.0783-.00032-.0219-.00228-.09049-.00033-.01571-.00195-.08459-.00033-.01229-.0026-.09495-.00033-.01475-.00228-.0812-.00032-.01865-.00261-.091-.00065-.019-.00227-.07863-.00066-.01772-.0026-.09192-.00065-.01681-.00261-.08091-.00032-.01729-.00293-.08974-.001-.02287-.0026-.07461-.00065-.01969-.00293-.08814-.001-.0249-.0026-.07426-.001-.0191-.00325-.089-.001-.02336-.00293-.07741-.00065-.01538-.00358-.08867-.001-.02551-.00293-.07637-.001-.01606-.00358-.08872-.001-.02474-.00358-.08032-.00065-.01068-.00391-.09133-.001-.022-.0039-.083-.00033-.00969-.00456-.09088-.001-.0228-.00423-.08635V166.417l-.00489-.0945-.00065-.01632-.00488-.09316v-.00122l-.00488-.09314-.001-.021-.01009-.18313-.0013-.02366-.00456-.08653-.00033-.00462-.0052-.09051-.00131-.02372-.01074-.18175-.0013-.02195-.01107-.18406-.0013-.02065c-.00391-.05986-.00814-.12474-.01172-.18457l-.0013-.02059-.00619-.09233V164.978l-.00618-.08985-.0013-.02136-.00619-.09208-.00032-.002-.00619-.09153-.001-.01644-.00683-.09424-.00033-.0049c-.002-.02773-.0039-.05849-.00618-.08622l-.0013-.022-.00684-.092-.00033-.00283-.00651-.08958-.0013-.0185-.00683-.09122-.001-.01156-.00619-.08213-.00162-.02031-.00684-.09067-.001-.011-.00651-.08254-.0013-.019-.00716-.09092-.0013-.01366-.00651-.07955-.00163-.02056-.00749-.09166-.00065-.00946-.00716-.08362-.0013-.01833-.00781-.09094-.001-.01353-.00716-.08256-.0013-.01624-.00814-.09271-.001-.01-.00781-.09017-.00065-.0075-.00879-.09624-.00065-.00935-.00814-.0894-.001-.0094-.00879-.0955-.00065-.00952-.00846-.08871-.00065-.00976-.00879-.09365-.0013-.01379-.00814-.08287-.0013-.01487-.00879-.09078-.00163-.0163c-.0026-.02752-.00553-.05928-.00846-.08679l-.00065-.00641-.00912-.09444-.00163-.01359-.00878-.08933-.00066-.00564-.00976-.097-.00065-.00778-.00977-.0958-.00032-.00124-.00977-.09548-.00163-.01343-.00911-.08913-.00065-.00615-.01009-.09417-.00131-.01343-.0205-.189-.00131-.01312-.01009-.09133-.00032-.00356-.01042-.09354-.00195-.01579c-.00326-.03164-.00651-.05866-.01009-.09027l-.00033-.00253c-.00325-.03163-.00683-.0618-.01042-.09342l-.00162-.0151-.01042-.09025-.00033-.00388c-.0039-.03162-.00716-.06059-.01074-.09219l-.002-.01676-.02181-.1863-.00195-.01406-.02246-.18968-.00131-.01088-.02343-.19055-.00131-.01074c-.00781-.063-.01595-.12919-.02408-.1922l-.001-.00818c-.00781-.063-.01628-.12946-.02442-.19243l-.0013-.00992-.01237-.09609v-.00025l-.01237-.09527-.0013-.00944c-.00814-.06291-.01693-.12812-.02539-.191l-.0013-.01024-.0127-.095-.00065-.00537-.012-.08805-.002-.01457-.01269-.09405-.00033-.00125-.01269-.09446-.0013-.0082-.01335-.09586-.00065-.00466-.013-.09324-.001-.00653-.01335-.0962-.001-.00531-.0127-.09073-.0013-.00906-.01367-.09367-.0013-.01035-.0127-.08765-.0013-.00869-.014-.09523-.00065-.006-.01367-.09172-.001-.00635-.014-.095-.00131-.00866-.01367-.09168-.00065-.00421-.01465-.09674-.00065-.00537c-.00944-.06252-.01986-.13049-.02962-.19295l-.0013-.00977-.014-.089-.001-.00671-.01465-.09471-.0013-.00844-.01465-.09347-.00032-.00138c-.00488-.03119-.01009-.06511-.0153-.09627l-.001-.00769-.03125-.19373-.00032-.00315-.03158-.19412-.0013-.008c-.01042-.06435-.02116-.1284-.03158-.19269l-.001-.00454-.03223-.19321-.0013-.00682-.03255-.19313-.001-.00452c-.01074-.06421-.02181-.12815-.03288-.1923l-.00163-.00828-.03352-.19344-.00033-.00167c-.02344-.13233-.04688-.26339-.07064-.39551v-.00051l-.03581-.19751-.00032-.00061a85.34511,85.34511,0,0,0-34.33984-53.98161l-.001-.00081c-.10514-.07516-.208-.14844-.31348-.2231l-.00423-.003-.15332-.10835-.00618-.00434-.0726-.05108-.0039-.00275-.07292-.05135-.01367-.00958-.06478-.04529-.00814-.0059-.07226-.05038-.01237-.00862-.068-.04755-.00553-.00384-.07194-.05-.01465-.01028-.14518-.10072-.013-.00887-.06706-.04639-.00684-.00478-.071-.04873-.01725-.012-.06608-.04551-.00456-.00314-.07227-.04946-.01464-.01011-.07-.04793-.0026-.00179-.07194-.04891-.01693-.01162-.14356-.09763-.01627-.011-.068-.04618-.00423-.00279-.07161-.0483-.01693-.01162-.14323-.09639-.01725-.01146-.06673-.04486-.0127-.00856-.0612-.04083-.02343-.01573-.068-.04553-.00521-.00344-.06347-.04214-.02572-.01715-.05631-.03749-.02865-.01892-.04818-.032-.02994-.01983-.055-.0363-.029-.01912-.04915-.03235-.026-.01721-.05762-.03791-.03353-.02209-.04069-.02665-.03353-.022L387.98047,99.2l-.03679-.02411-.0345-.02244-.03809-.02482-.0358-.0234-.05664-.03686-.03093-.02-.041-.02675-.01661-.01062-.07714-.05009-.0267-.01724-.03971-.02555-.03776-.02447-.05664-.0364-.02865-.01843-.041-.02637-.03451-.02214-.05989-.03843-.026-.01666q-.0708-.04545-.14192-.09064l-.01726-.01094-.14485-.09211-.02018-.01265-.14714-.09308-.01172-.0073-.1543-.09715-.00618-.004c-.05469-.03416-.10287-.06439-.15755-.09843l-.00619-.00405a85.06661,85.06661,0,0,0-12.57617-6.46578,21.33339,21.33339,0,0,0-16.25553,39.4488,42.68114,42.68114,0,0,1-16.28972,82.12544h0a42.39406,42.39406,0,0,1-30.12239-12.44906,21.3332,21.3332,0,0,0-30.13933,30.2,85.07628,85.07628,0,0,0,49.92481,24.296l.00423.00048.12923.01549.00456.00057c.08919.01062.17676.0209.266.03126l.00065,0q.20068.02328.40137.04559l.00032.00005.06674.00735.00065.00008.06217.00683.00651.00073.06315.0069.00293.0003.0625.00678.00521.00055.06543.00706.00033,0,.06087.0065.00879.00092.05957.00634.00683.0007.0599.00632.00716.00075.06283.00654.00358.00038.06022.00623.00814.00084.06152.00635.00488.00046.06185.00631.00554.00056.06445.00655.00163.00015.06315.00634.00488.0005.06445.00642.00228.0002.0612.006.00749.00073.06217.0061.00423.00042.06283.00611.00456.00042.06575.00636.00065.00005.06315.006.00521.0005.06348.006.00358.00032.05892.00553.01009.001.05566.00517.01237.00116.05241.00486.0153.0014.05111.00467.01725.00159.04655.00423.02149.00193.04817.00433.01856.00168.04817.00432.01921.00168.0485.00431.01953.00172.04655.00407.02051.0018.05111.00443.01562.00135.04785.00411.02084.00179.05078.00433.0153.00131.055.00465.01172.001.05534.00464.01269.001.05274.00438.015.00123.05632.0046.01074.00089.05794.00471.00912.00073.05761.00465.01042.00085.05176.0041.01725.00138.04785.00376.02084.00165.04589.00359.02116.00165.04688.00361.02116.00165.04427.00339.02344.00178.0524.004.01335.001.056.00418.01139.00087.05176.00382.0179.00132.04655.00342.02116.00154.04851.00353.0192.00137.04883.00351.01823.00131.05338.0038.014.001.04948.00347.01921.00136.0498.00345.0179.00123.04688.00323.02148.00146.0433.00293.02539.00172.04362.00292.02311.00155.04915.00324.01856.00122.05078.00334.01628.00107.05013.00322.01855.0012.04753.003.02018.0013.05046.00316.01725.0011.05208.00323.0153.001.05078.0031.01823.00111.04753.00289.02018.00123.054.00324.013.00076.05208.00307.0166.001.05306.0031.01432.00083.05437.00311.01367.00079.06152.00349.00521.0003.0599.00333.00879.0005.055.003.014.00077.05143.00279.01693.00092.0524.0028.01563.00084.04785.00251.02116.00111.04753.00247.02018.001.04752.00243.02051.00105.0485.00244.01986.001.04395.00217.02474.00124.04329.0021.02474.0012.04264.002.02572.00122.042.002.02637.00124.04166.00192.02637.00122.03972.00182.02929.00133.03451.00154.03385.00151.03906.00172.02832.00124.03874.00168.03028.00129.03645.00156.03158.00133.04069.00169.02669.00111.05176.0021.01562.00064.04818.00194.02116.00083.0472.00185.02083.00083.04558.00173.02311.00089.05208.002.0153.00058.04883.00179.02051.00076.04557.00164.02279.00082.043.00151.02571.00091.04.00138.029.001.03679.00124.03125.00105.0485.0016.01888.00061.05046.00162.01822.00058.04655.00146.02246.0007.05665.00173.01041.00031.06153.00184.00683.0002.0485.0014.02149.00061.04687.00133.02116.00059.05111.00139.01725.00048.042.00111.028.00074.03711.001.0306.00079.05078.00127.01725.00043.043.001.02669.00065.04655.00108.02116.00049.04655.00106.02246.0005.03809.00083.03125.00067.03157.00068.03711.00077.0293.00059.03939.00079.03125.00061.03678.00071.04395.00082.02441.00046.0446.00079.02408.00043.04232.00071.0267.00046.04557.00074.02278.00037.04.00062.0293.00045.029.00042.04.00059.03711.00051.03092.00043.057.00074.01139.00015.04525.00055.02442.00031.05924.00068.00846.00009.13607.0014.00163,0,.137.00119h.00065l.13412.001.00391,0,.068.00041h.00065l.056.00029.01335.00006.11751.00048.02051.00007.11.00028.16569.00016Z" style="fill:#d34000"/><path d="M341.33333,128a42.66668,42.66668,0,0,0-42.66666,42.66667h0v.08966l.00032.0428v.06535l.00033.0293v.03717l.00032.03037.00033.03585.00032.02946.00033.03727v.02967l.00065.03662.00033.02877.00032.038.00033.02919.00065.03958.00032.02533.00066.04506.00032.02183.001.06533.00032.01743.001.04731.00065.02878.00065.03789.00065.02858.00065.03683.00065.02905.001.03827.00065.02824.001.036.00065.03115.001.03562.00065.02932.0013.03841.00065.027.0013.04112.00065.02478.00131.04152.00065.02506.00162.05115.001.02476.002.05489.00065.02185.00163.04324.001.02744.0013.038.0013.02893.00131.03762.001.02687.00163.03949.0013.02706.00163.039.001.02617.00162.04054.00131.02554.002.04374.001.02075.00227.04663.001.02041.0026.0569.00033.008.00326.06559.001.01864.00261.04817.001.01943.00228.0457.0013.0234.00228.04274.00163.02431.00228.04061.0013.02556.0026.042.00131.02305.00228.0423.00162.024.00261.04232.0013.02364.0026.04177.00163.024.00326.04942.001.01515c.00293.04529.00554.08659.00879.13184l.001.01487.00358.05064.0013.02024.00326.04531.00162.02232.00293.04187.002.02647.00293.03929.00195.02535.00293.03947.002.02709.00293.03978.002.02421.00358.04293.00162.02238.00391.05021.0013.01381.00456.058.00065.00824.01107.131.00163.01868.0039.046.00228.024.00358.04008.00228.0267.00358.039.00228.02543.00358.04065.00228.02317.0039.04379.002.02185.00423.04252.00195.02289.00423.044.00228.0212.00456.04879.00163.01579.00553.05448.00261.02887.00488.04533.0026.028.00391.037.0026.02618.00424.03895.00292.0285.00359.03432.00325.03127.00358.03349.00358.031.00358.03408.00326.02891.0039.03693.00326.02793.00423.03784.00293.02576.00456.0402.0026.02489.015.12784.00162.01492.00619.05029.00228.02018.00521.043.00293.02442.00488.04154.00293.02313.00488.04014.00326.02578.00488.039.00325.02608.00489.03774.00325.02586.00554.04287.0026.02061.00586.04687.00228.017.00683.05158.00163.01351.01758.13059.00065.00472.00814.05939.002.01391.00684.05087.00228.01536.00651.04854.00293.01976.00618.04429.00293.02014.00619.04413.00325.02142.00619.04413.00293.01941.00651.04582.00293.019.00748.05239.00163.01054c.00977.06492.01921.12892.0293.19374l.0026.01693.00749.04881.00228.0145.00748.04912.00293.01774.00717.04695.00293.018.00716.04523.00325.02026.00716.045.00293.01858.00782.04781.0026.01552.00879.05444.0013.009.00944.056.00163.00932c.01042.06455.02148.12963.03255.19409l.00163.01035.00911.05239.00293.01681.00814.04836.0026.01463.00879.04907.00293.01686.00814.047.00326.01748.00781.04488.00358.02028.00846.04767.00261.0142.01041.05711.001.00616c.016.08611.03158.17208.04785.258l.00228.01152.00977.05184.00293.01519.00879.04706.00358.01872.00879.045.00358.019.00878.04531.00359.0176.00944.04846.00293.01443.01074.05448.00163.00814c.01269.06525.02539.128.03873.19316l.001.00561.01172.05646.00358.01788.00911.04466.00423.01977.00879.04377.00424.01971.00944.04456.00358.01709.00976.04754.00358.01579.01042.04987.0026.01233.01107.05141.00261.01286.01269.05867.00065.00315c.014.06484.028.12871.04232.19345l.00033.00215.01367.06169.0013.00527.01269.056.00293.01316.0114.05048.00293.0131.01106.04936.00326.01458.01139.05028.00293.01255.01172.04989.00293.01373.01335.05737.001.00377c.01986.08595.04.17087.06055.25665v.00073l.015.06165.00163.0071.01335.055.0026.01064.01237.05127.00326.01379.01269.05166.00228.00891.01367.05505.002.00859.01432.058.001.004.01562.062.00033.00127c.01595.06406.0319.12707.0485.191l.001.00467.01432.05612.00358.01324.01335.05141.00227.00908.01335.052.00358.01343.013.04984.00326.01233.01334.05058.00326.01184.01432.05517.00163.00576.01595.0591.001.00369c.02246.0849.04492.168.06836.25266l.001.00385.016.05839.002.00687.015.05467.00293.0103.01465.053.0026.00846.0153.05485.002.0074.01627.05736.0013.00425.01661.05912.001.00377c.02995.10544.0599.20894.0905.31406l.001.00291.01693.05827.00228.00734.01627.05483.00228.00818.01563.05276.00325.01043.016.05368.002.007c.04329.14417.08789.29082.13248.43435l.00261.00781.0166.05357.00293.00885.0166.05274.00293.00952.01693.05346.00195.00708.01758.05522.00228.00655c.05241.16527.10644.3315.16081.49587l.00032.00045.041.12374.00032.0003q.09327.27918.19076.55646v.00012l.02083.05947.0013.00381c.058.1643.11589.3257.17578.48907l.00065.002a42.80348,42.80348,0,0,0,22.40007,24.17254h0q.29492.1344.5918.26418l.0013.00063.05762.02509.00227.001.056.02447.00391.00159c.11882.05165.23633.10191.35579.15252l.00261.001.05631.02387.00521.00213.05306.02232.00847.00346.05143.02159.00716.003.05046.021.01041.00434.05143.0214.00586.00234.0573.0237.001.00037c.09994.04128.1989.0816.29948.12213l.00521.00207.05338.02147.00944.00386.05014.02.00944.00379.04947.01977.01107.00444.04753.01886.01237.00492.04622.01823.014.00545.05078.02.00651.00256q.14941.05873.29981.11636l.00781.00305.05143.01959.01172.00448.04492.01715.01725.00661.0446.01689.01335.00508.04492.017.01562.00588.0472.01766.0114.00431.0511.01915.00814.00305.0586.02173.0013.00049.12077.04465.00944.00352.0485.01774.02051.00759.03873.01406.01953.00712.04069.01487.01889.00682.042.01512.01627.00588.043.01548.01888.00677.041.01477.01758.00627.043.01528.01758.00627.04851.01727.00976.00344.05176.01823.00944.00335.06022.02122.00293.00094.05664.01982.01237.00437.04818.01668.01562.00541.04134.01431.02344.00813.03646.0126.02344.008.03613.01237.02311.008.03711.01259.02409.00818.03288.01115.027.0092.0371.01255.02116.0071.057.01916.0013.00037.12142.04051.01888.00628.04.01319.02409.00789.03581.0118.02669.00879.0319.01042.029.00942.02995.00976.0306.01.02962.00955.029.00935.0306.00989.0306.00979.028.009.03125.01.02572.0082.03548.01125.01726.00553.13509.04259.02213.007.03711.01156.02181.00684.03581.01108.02539.00782.0332.01031.02637.0081.0332.01025.0267.00814.03417.01048.02409.00734.03549.01083.02506.00759.03483.01051.02344.00712.03678.01109.01791.00535c.0524.01579.10286.03081.15559.04641l.00131.00039.043.01267.01725.00511.04036.0119.01921.00562.03906.01141.02083.006.04037.01178.01823.00525.04069.01172.01986.00574.03971.01149.01986.00562.03938.01125.01953.00557.04232.01211.00749.00211c.09147.02594.18522.05211.277.07746l.00781.00221.04753.01309.01269.00345.0446.01217.01627.00448.04362.01184.015.00407.04557.01235.013.0035.0472.01271.01009.00273.04916.01316.00911.0024c.11263.03.22754.06016.3405.0893l.00227.00063.05567.0143.00325.00085.05079.013.012.00308.0472.01194.0127.00325.04687.01182.012.00306.04916.01228.00781.002.05111.01269.00814.002q.14258.03543.2858.07l.00065.00017.05176.01243.01009.00238.04981.01192.00944.00224.04817.01143.014.0033.04785.01135.00879.002.05209.0122.00553.00132q.23193.05412.46517.10584l.00423.001.05534.01222.00391.00086.05566.0122.00391.00082q1.53612.33562,3.11393.55987a10.66667,10.66667,0,0,0,2.99153-21.12255,21.33626,21.33626,0,0,1,3.0459-42.45356,10.66666,10.66666,0,1,0,0-21.33333Z" style="fill:#ffceaf"/><path d="M30.16988,158.16988l192,192a42.66668,42.66668,0,0,0,30.16989,12.49678h208.157a30.16986,30.16986,0,0,0,30.16986-30.16986v0a30.16985,30.16985,0,0,0-8.83655-21.33331l-192-192a42.66667,42.66667,0,0,0-30.16989-12.49677H51.50319a30.16986,30.16986,0,0,0-30.16986,30.16986v0A30.16985,30.16985,0,0,0,30.16988,158.16988Z" style="fill:#774dff"/><path d="M32.03743,127.217q-.28905,0-.58138.01562A10.66618,10.66618,0,0,0,21.377,138.45605a30.17165,30.17165,0,0,0,6.7793,17.4891h0l.02669.03255.0013.00147.02572.03157.00228.00277.02409.02913.00521.00619.02343.02848.00326.00407.02506.03.00228.00309.026.03093.00066.00113q.09668.11548.194.23015l.0013.00163.02539.03011.00325.00358.02377.02783.00553.00651.02246.02653.00619.00716.02213.02555.00716.00847.02181.02523.00684.008.02213.02539.00717.0083.02181.02523.00683.008.02246.02571.00586.00684.02344.02669.00326.00407c.04654.05322.09342.10628.14.15918l.00065.00065.02474.028.00521.0057.02213.0249.00782.00879.02213.0249.00716.00782.02181.02441.00814.00928.02149.02392.00813.009.02149.02392.00814.00912.02181.02392.00781.00879.02213.02425.00716.008.02312.02555.00488.00537.02474.027.00521.006c.04459.04883.08952.09782.13476.14649l.00944.01041.01856.02019.012.013.01791.0192.013.01384.0179.0192.0127.01351.01692.01839.01433.0153.0166.01758.01432.0153.016.01709.0153.01611.01628.01726.014.01481.01693.0179.01432.01514.01661.01774.01464.01514.01628.01741.0166.01725.01432.015.01791.01888.02409.0249.02018.02116.01139.01188.02018.02083.01368.01416.01757.01823.01368.01433.01823.01871.014.01465.01693.01726.01562.01611.01563.01611.016.01644.016.01611.01563.01579.01627.01693.0153.01546.01693.01742.01465.01464.01757.01775.01433.01464.0179.01823.01367.01384.01888.01888.01335.01351.02051.02067.01139.01139.0319.03206h0L210.665,338.665a10.66662,10.66662,0,1,0,15.08463-15.08512L45.25521,143.08545a8.823,8.823,0,0,1-2.57585-5.7736A10.66648,10.66648,0,0,0,32.03743,127.217Z" style="fill:#3412d4"/><path d="M479.34375,326.84717a10.67116,10.67116,0,0,0-10.30339,7.93538,8.83636,8.83636,0,0,1-8.54362,6.55078H252.33984a21.36948,21.36948,0,0,1-4.11718-.40088,10.66665,10.66665,0,0,0-4.12761,20.93018,42.65288,42.65288,0,0,0,6.32585.76091l.002.00016.06218.0026.00488.00033.06185.0026.00358.00016.06055.00245.00651.00032.05924.00228.00716.00033.056.00211.01139.00049.05437.002.01172.00033.05208.00179.01465.00065.05143.00163.01432.00049.05013.00162.0166.00049.04818.00147.01823.00048.04492.00131.02181.00065.04525.00114.01953.00065.04655.00114.01953.00049.0472.00114.01856.00048.04362.001.02343.00049.04167.00081.02376.00049.04069.00081.02539.00049.04232.00082.02311.00032.04265.00065.02311.00049.04394.00065.02181.00033.04232.00049.02377.00032.04459.00049.02084.00033.04557.00032.02051.00033.04655.00032.0192.00016.04395.00033.02246.00016.04.00017.026.00016.04166.00016.02377.00016.13183.00017H460.557l.02962-.00017h.01823l.02929-.00016h.01563l.0306-.00016.01595-.00016.03841-.00033h.00651l.04557-.00033.01042-.00016.03581-.00032.01432-.00017.0293-.00032.0192-.00033.028-.00032.01627-.00033.03549-.00049.00976-.00016.04525-.00065.01107-.00033.03353-.00048.01692-.00033.0306-.00065.01367-.00033.03223-.00065.01562-.00032.0293-.00065.0166-.00049.04069-.001.01921-.00049.029-.00081.01563-.00033.02994-.00081.0166-.00049.03093-.001.014-.00032.03385-.00114.012-.00033.09016-.00309.015-.00049.03027-.001.0166-.00065.028-.001.01888-.00081.02995-.00114.01367-.00049.043-.00179.00228-.00016.04655-.002.00813-.00032.03516-.00147.01693-.00081.029-.0013.0166-.00066.029-.00146.01628-.00081.0319-.00147.01367-.00065.04232-.00212.02148-.00114.02311-.00113.01986-.001.026-.00147.01921-.001.026-.00147.01888-.001.02637-.00163.01888-.001.04264-.00244.014-.00081.03027-.00179.01921-.00131.02506-.00146.02018-.0013.02507-.00147.01921-.0013.029-.00179.01595-.001.043-.00293.014-.001.03028-.002.01823-.0013.02669-.00179.0192-.0013.02572-.00195.01823-.00114.02734-.00212.01856-.0013.04232-.00309.00748-.00049.03581-.00277.02051-.00163.02474-.00179.01985-.00162.02474-.002.01921-.00146.028-.00228.01661-.0013.03125-.00261.0166-.0013.03971-.00325.014-.00131.03157-.0026.01563-.0013.028-.00244.01791-.00163.02636-.00228.01921-.00179.02962-.0026.01367-.00114.04265-.00391.01758-.00163.02734-.0026.01855-.00179.02539-.00228.01921-.00195.026-.00245.01856-.00179.02767-.0026.01627-.00163.04232-.00423.01888-.00195.02441-.00244.02312-.00228.0205-.00212.02181-.00228.02377-.00244.02018-.00211.029-.0031.01367-.00146.03483-.00375.02735-.00292.02441-.00261.02181-.00244.02116-.00228.02214-.00244.02311-.0026.02116-.00245.02115-.00244.02279-.0026.02637-.00293.02734-.00326.03125-.00358.01986-.00228.02311-.00276.02149-.00261.02246-.00276.02148-.00261.02507-.00293.01692-.00211.03125-.00391.01693-.002.03874-.00489.01692-.00211.02637-.00342.01823-.00228.028-.00358.01595-.00212.02767-.00341.01692-.00228.0319-.00423.01172-.00147.043-.00569.01465-.002.0293-.00407.01692-.00211.02637-.00375.01953-.0026.02442-.00342.01855-.00244.026-.00374.01888-.00261.04069-.00569.01725-.00245.026-.00374.01855-.0026.02637-.00391.01855-.0026.02344-.00342.02051-.00293.026-.00391.01693-.00244.043-.00651.00293-.00032.03938-.006.01921-.00276.02279-.00358.02278-.00342.02214-.00342.01888-.00293.02669-.00423.01758-.00261.03743-.00586.00489-.00081.042-.00667.01595-.00261.03-.00472.01321-.00211.02976-.00489.01627-.0026.02995-.00488.013-.00212.03581-.00586.00814-.00146.043-.007.013-.00228.03059-.00521.01465-.00244.03158-.00537.01107-.002.03255-.00538.01367-.00244.03874-.00667.00325-.00065.04362-.00765.014-.00244.03-.00521.01692-.00293.02507-.00456.01921-.00342.02669-.00472.0153-.00276.03418-.00619.00846-.00162.04427-.008.00456-.001.03776-.00683.01693-.00326.026-.00472.01758-.00342.02506-.00455.01986-.00375.02278-.00439.01954-.00374.02962-.00554.02148-.00423.03451-.00651.01107-.00212.03125-.00618.01627-.00309.02735-.00537.01595-.0031.02669-.00537.01725-.00342.03093-.006.01171-.00244.04069-.00814.01954-.0039.02343-.00472.01921-.00391.02279-.00472.02181-.00439.01953-.00407.02278-.00472.02019-.00407.02311-.00489.03971-.0083.013-.00276.02832-.00586.01953-.00423.02442-.005.01692-.00358.02767-.006.015-.0031.0319-.007.01107-.00228.04069-.009.01888-.00407.02441-.00537.0166-.00359.02735-.006.01627-.00358.026-.00586.01758-.0039.02442-.00538.01888-.00423.04069-.00911.00813-.00195.03321-.00749.01855-.00423.02344-.00537.02116-.00489.01953-.00439.02279-.00521.0205-.00488.02149-.00489.0319-.00748.01042-.00244.04036-.00944.0127-.0031.02929-.00683.01693-.00407.02572-.00619.0166-.0039.02539-.00619.01823-.00423.03092-.00749.01009-.00244.04069-.00993.0166-.00407.0267-.00651.01627-.00406.02637-.00652.016-.0039.02767-.00684.01563-.0039.027-.00684.0153-.00374.04037-.01026.01269-.00309.03028-.00765.0153-.00391.02636-.00683.01726-.0044.02474-.00618.0179-.00472.03223-.0083.00781-.00195.04329-.01124.00586-.00162.03581-.00928.014-.00374.028-.00733.0153-.00407.02865-.00765.014-.00358.02963-.008.01269-.00342.04167-.01107.00358-.001.03808-.01026.0153-.00423.02637-.00716.01628-.0044.02571-.007.01726-.00472.02929-.00813.01075-.00293.03483-.00961.012-.00341.03809-.01058.01041-.00293.03125-.00863.01367-.00391.0293-.00813.01432-.00407.02572-.00733.01693-.00488.03125-.00879.00976-.00277.04134-.01188.01172-.00341.02995-.00863.01432-.00407.02767-.008.01563-.00455.02864-.00847.01172-.00341.03386-.00993.00879-.00261.042-.01237.00749-.00228.03255-.0096.01562-.00456.02832-.00846.01237-.00374.02995-.009.0127-.00391.03548-.01058.00553-.00179.08464-.02572.01074-.00325.0306-.00944.014-.00423.028-.00879.01367-.00407.02637-.0083.01725-.00537.03483-.01075.00977-.00309.03515-.01107.014-.00439.02995-.00944.01107-.00342.02995-.00944.01334-.00439.0306-.00977.01074-.00342.08334-.02669.00944-.00309.03125-.01009.014-.00456.02963-.0096.01009-.00342.03287-.01058.01042-.00342.03581-.01188.00521-.00163.041-.01367.01042-.00342.03255-.01074.01009-.00342.03028-.01009.013-.00439.03027-.01009.01107-.00391.03548-.01188.00521-.00179.085-.02881.00683-.00244.03484-.01188.00813-.00293.03418-.01172.00879-.00293c.05534-.01921.11166-.03874.167-.05827l.00944-.00326.03256-.01155.01009-.00358.03483-.01237.00553-.002.08431-.03011.00521-.00195.03776-.01351.00423-.00163.03744-.0135.00683-.00245.03581-.013.00586-.00211.03971-.01449.00228-.001.08334-.03059.00781-.00293.03483-.01286.00684-.00244.03743-.014.00358-.0013c.04232-.01579.08366-.03125.12565-.04737l.00814-.00293.03223-.01237.01172-.00423.03157-.0122.00781-.00293c.041-.01563.08334-.03191.12435-.04786l.00619-.00244.03678-.01416.00456-.00179.03678-.01448.00586-.00212.03906-.0153.002-.00081.08463-.03337.00228-.00081.03971-.01579.00359-.00146.03873-.01547.00293-.0013.03972-.01579.0026-.001.08431-.034.001-.00049.03938-.01595.00651-.00277.03418-.01383.00782-.00326.03515-.01432.00586-.00244.083-.03418.00065-.00016.03906-.01628.00814-.00342.03288-.01367.00846-.00342.03353-.01416.00684-.00293.082-.0345.00163-.00065.03873-.01644.00749-.00326.03255-.01383.00879-.00374.03483-.01482.00489-.00211.03841-.01644.0026-.00114c.04134-.01774.083-.036.12435-.05387l.00325-.00147.03646-.01579.00651-.00293c.055-.02408.10938-.048.16407-.07242l.002-.00082c.07-.03109.13835-.06185.208-.09342l.00032-.00033.03972-.01806.00325-.00131.165-.07584.00033-.00017.04134-.0192h0a30.23743,30.23743,0,0,0,16.46875-19.66374,10.67608,10.67608,0,0,0-10.32943-13.35693Z" style="fill:#602fff"/><path d="M110.342,174.6951l12.95351,12.95351A14.85658,14.85658,0,0,0,133.80066,192h43.31258a14.85658,14.85658,0,0,0,10.50519-25.36177l-12.95351-12.95351a14.85662,14.85662,0,0,0-10.50519-4.35139H120.84715A14.85658,14.85658,0,0,0,110.342,174.6951Z" style="fill:#d1c2ff"/><path d="M238.342,174.6951l12.95351,12.95351A14.85658,14.85658,0,0,0,261.80066,192h43.31258a14.85658,14.85658,0,0,0,10.50519-25.36177l-12.95351-12.95351a14.85662,14.85662,0,0,0-10.50519-4.35139H248.84715A14.85658,14.85658,0,0,0,238.342,174.6951Z" style="fill:#d1c2ff"/><path d="M174.342,238.6951l12.95351,12.95351A14.85658,14.85658,0,0,0,197.80066,256h43.31258a14.85658,14.85658,0,0,0,10.50519-25.36177l-12.95351-12.95351a14.85662,14.85662,0,0,0-10.50519-4.35139H184.84715A14.85658,14.85658,0,0,0,174.342,238.6951Z" style="fill:#d1c2ff"/><path d="M302.342,238.6951l12.95351,12.95351A14.85658,14.85658,0,0,0,325.80066,256h43.31258a14.85658,14.85658,0,0,0,10.50519-25.36177l-12.95351-12.95351a14.85662,14.85662,0,0,0-10.50519-4.35139H312.84715A14.85658,14.85658,0,0,0,302.342,238.6951Z" style="fill:#d1c2ff"/><path d="M238.342,302.6951l12.95351,12.95351A14.85658,14.85658,0,0,0,261.80066,320h43.31258a14.85658,14.85658,0,0,0,10.50519-25.36177l-12.95351-12.95351a14.85662,14.85662,0,0,0-10.50519-4.35139H248.84715A14.85658,14.85658,0,0,0,238.342,302.6951Z" style="fill:#d1c2ff"/><path d="M366.342,302.6951l12.95351,12.95351A14.85658,14.85658,0,0,0,389.80066,320h43.31258a14.85658,14.85658,0,0,0,10.50519-25.36177l-12.95351-12.95351a14.85662,14.85662,0,0,0-10.50519-4.35139H376.84715A14.85658,14.85658,0,0,0,366.342,302.6951Z" style="fill:#d1c2ff"/><path d="M190.28619,184.01823a14.69118,14.69118,0,0,0-2.668-17.38021s-.20182-.20312-.556-.55729-.86068-.85938-1.46745-1.46745c-.60677-.60677-1.31641-1.3151-2.07422-2.07422-.75911-.75911-1.569-1.56771-2.3789-2.3776s-1.61849-1.61979-2.37761-2.37891-1.46745-1.46745-2.07552-2.07422l-1.46745-1.46744-.556-.556a14.85619,14.85619,0,0,0-10.5052-4.35157H121.49322a10.66667,10.66667,0,1,0,0,21.33334h39.98307L166.031,175.22A10.66793,10.66793,0,0,0,174.77317,192H177.113A14.597,14.597,0,0,0,190.28619,184.01823Z" style="fill:#9a7bff"/><path d="M249.49322,170.66667h39.98307L294.031,175.22A10.66793,10.66793,0,0,0,302.77317,192H305.113a14.85508,14.85508,0,0,0,10.50521-25.362s-.20182-.20312-.556-.55729-.86068-.85938-1.46745-1.46745c-.60677-.60677-1.31641-1.3151-2.07422-2.07422-.75911-.75911-1.569-1.56771-2.3789-2.3776s-1.61849-1.61979-2.37761-2.37891-1.46745-1.46745-2.07552-2.07422l-1.46745-1.46744-.556-.556a14.85619,14.85619,0,0,0-10.5052-4.35157H249.49322a10.66667,10.66667,0,0,0,0,21.33334Z" style="fill:#9a7bff"/><path d="M254.28619,248.01823a14.69118,14.69118,0,0,0-2.668-17.38021s-.20182-.20312-.556-.55729-.86068-.85938-1.46745-1.46745c-.60677-.60677-1.31641-1.3151-2.07422-2.07422-.75911-.75911-1.569-1.56771-2.3789-2.3776s-1.61849-1.61979-2.37761-2.37891-1.46745-1.46745-2.07552-2.07422l-1.46745-1.46744-.556-.556a14.85619,14.85619,0,0,0-10.5052-4.35157H185.49322a10.66667,10.66667,0,0,0,0,21.33334h39.98307l4.55469,4.55338A10.66793,10.66793,0,0,0,238.77317,256H241.113A14.597,14.597,0,0,0,254.28619,248.01823Z" style="fill:#9a7bff"/><path d="M382.28619,248.01823a14.69118,14.69118,0,0,0-2.668-17.38021s-.20182-.20312-.556-.55729-.86068-.85938-1.46745-1.46745c-.60677-.60677-1.31641-1.3151-2.07422-2.07422-.75911-.75911-1.569-1.56771-2.3789-2.3776s-1.61849-1.61979-2.37761-2.37891-1.46745-1.46745-2.07552-2.07422l-1.46745-1.46744-.556-.556a14.85619,14.85619,0,0,0-10.5052-4.35157H313.49322a10.66667,10.66667,0,0,0,0,21.33334h39.98307l4.55469,4.55338A10.66793,10.66793,0,0,0,366.77317,256H369.113A14.597,14.597,0,0,0,382.28619,248.01823Z" style="fill:#9a7bff"/><path d="M315.06223,294.08073c-.35417-.35417-.86068-.85938-1.46745-1.46745-.60677-.60677-1.31641-1.3151-2.07422-2.07422-.75911-.75911-1.569-1.56771-2.3789-2.3776s-1.61849-1.61979-2.37761-2.37891-1.46745-1.46745-2.07552-2.07422l-1.46745-1.46744-.556-.556a14.85619,14.85619,0,0,0-10.5052-4.35157H249.49322a10.66667,10.66667,0,0,0,0,21.33334h39.98307l4.55469,4.55338A10.66793,10.66793,0,0,0,302.77317,320H305.113a14.85508,14.85508,0,0,0,10.50521-25.362S315.4164,294.4349,315.06223,294.08073Z" style="fill:#9a7bff"/><path d="M443.61822,294.638s-.20182-.20312-.556-.55729-.86068-.85938-1.46745-1.46745c-.60677-.60677-1.31641-1.3151-2.07422-2.07422-.75911-.75911-1.569-1.56771-2.3789-2.3776s-1.61849-1.61979-2.37761-2.37891-1.46745-1.46745-2.07552-2.07422l-1.46745-1.46744-.556-.556a14.85619,14.85619,0,0,0-10.5052-4.35157H377.49322a10.66667,10.66667,0,0,0,0,21.33334h39.98307l4.55469,4.55338A10.66793,10.66793,0,0,0,430.77317,320H433.113a14.85508,14.85508,0,0,0,10.50521-25.362Z" style="fill:#9a7bff"/><path d="M234.66667,490.66667s21.76107-55.43849,78.03931-83.17652a19.86823,19.86823,0,0,1,22.93683,3.48267l0,0A19.42806,19.42806,0,0,1,337.205,436.684l-4.07872,6.39677a18.14011,18.14011,0,0,0,16.225,26.2526h.00005a17.9374,17.9374,0,0,0,17.0288-11.9209c7.53262-21.51559,31.22985-70.76335,69.94466-92.07556a22.36667,22.36667,0,0,1,26.456,3.9734l0,0a22.11169,22.11169,0,0,1,5.18757,23.35049C461.64988,409.87712,448,447.51556,448,490.66667Z" style="fill:#47cd1c"/><path d="M311.1888,409.65739a10.61665,10.61665,0,0,0-5.18913,1.35482,151.53982,151.53982,0,0,0-13.5179,8.516l-.00325.00228-.2129.15039-.01009.00716-.20507.14567-.0153.0109-.10124.07194-.001.00065-.099.07048-.015.01091-.09668.06884-.01888.01367-.08463.06039-.01726.01237-.09472.068-.02051.01465c-.02962.02116-.0599.04313-.08952.06413l-.01172.00846-.08821.06364-.029.02067-.08626.06234-.0319.02295-.06641.048-.02929.02116-.0892.06445-.02408.01742-.07683.05566-.02148.01563-.08561.06217-.03483.02523-.07455.0542-.03255.0236-.069.05029-.03809.028-.08138.05924-.0345.02507-.054.03955-.04264.03125-.07585.0555-.04069.03-.05469.0402-.05371.03939-.06347.04655-.03842.02832-.0638.047-.05078.03743-.05469.04037-.04264.03141-.06575.04866-.05372.03955-.04459.03321-.08724.06461-.028.02067-.057.04216-.02963.0223-.084.06217-.03743.028-.05339.03971-.03516.0262-.08268.06169-.03743.028-.054.04036-.00163.0013-.11491.08594-.03711.028-.068.051-.04883.03662-.055.04134-.027.02035-.09831.07389-.02571.01953-.057.04281-.0153.01155-.10644.08057-.02474.01872-.05632.04231-.00521.00407-.123.09326-.012.00912c-.1722.1307-.349.2653-.52018.39632l-.00846.00667c-.06641.05062-.12728.09733-.19336.14812l-.00326.0026-.19336.1486-.01009.00781-.12467.096-.00033.00033c-.1289.09961-.26107.202-.38965.30192l-.012.00911c-3.58366,2.78516-6.96061,5.65609-10.13672,8.57031l-.0013.00114c-.05827.05339-.11393.1045-.17188.15788l-.00488.0044c-.09668.089-.18652.172-.28288.26106l-.00553.00489c-.05534.05127-.109.10091-.16406.15218l-.015.01367c-.05534.05127-.10677.099-.16178.15023l-.00944.00862-.10254.09554-.00814.00765-.05534.05144-.00065.00065c-.0332.03125-.069.06445-.10254.0957l-.01985.01872c-.05274.049-.10059.09391-.153.14306l-.02344.022c-.02864.02669-.06185.05778-.09017.08463l-.01237.01156-.04882.04573-.02246.02116-.08627.08106-.01692.01578-.05079.04786-.01041.01009-.09245.08707-.02181.02051-.151.14274-.02311.02181-.07585.07178-.0293.02783-.04427.042-.027.02588-.07.06641-.03418.03239-.03939.03743-.04981.04737-.0485.04638-.03808.0363-.03646.03467-.06283.06006-.03548.03369-.04264.04085-.0446.04281-.05045.04817-.03549.034-.04948.04769-.043.04118-.04753.04541-.03255.03141-.0638.06136-.03288.03174-.04427.04264-.03028.02914-.0664.064-.029.02816-.056.054-.02246.02148-.06674.06462-.02669.02571-.07064.06869-.01562.01513-.06283.06071-.02116.02084-.07259.07047-.01888.01823-.0612.05957-.01953.019-.07226.07048-.01986.01937-.07.06836-.00748.00716c-.02442.02392-.05111.05013-.07585.07389l-.0179.01774-.0765.07471-.00781.00765-.07259.07129-.013.01269-.07812.07666-.01009.00993c-.026.02572-.04981.04916-.07617.07471l-.00521.00537c-.027.02653-.05436.05322-.08106.07975l-.00813.008c-.055.054-.11166.11-.16635.16406l-.00293.00293a177.18115,177.18115,0,0,0-14.21614,15.86312,10.66653,10.66653,0,1,0,16.7054,13.26758,142.06321,142.06321,0,0,1,41.85873-36.16488,10.66812,10.66812,0,0,0-5.209-19.98242ZM446.778,362.6665a21.62943,21.62943,0,0,0-10.45312,2.67041c-38.71484,21.31218-62.41211,70.5599-69.94466,92.07552h0l-.01432.04053-.00554.0153-.00879.02556-.00651.01757-.00814.02279-.00618.01758-.00879.02376-.00618.01742-.00847.02311-.00618.01693-.00879.02441-.00619.01644-.00879.02425-.00586.01628-.00911.02376-.00651.01774-.00846.02262-.00651.01758-.00879.02279-.00651.0179-.00977.02507-.00521.01432-.01074.02767-.00521.01334c-.01009.02686-.02051.05306-.03092.07992l-.00456.01221-.01107.02815-.00618.01579-.00912.02311-.00748.019-.00879.02132-.00716.01823-.00847.02165-.00716.01774-.00944.02278-.00684.01758-.00879.021-.00781.01937-.00879.02132-.00716.01774-.00944.02262-.00683.01677-.0101.02425-.00651.01562-.00911.022-.00749.01806-.01041.02442-.00619.01448-.0166.03939-.00326.00765-.013.03109-.00781.01806-.00911.02116-.00814.01823-.00912.02132-.00683.01628-.01042.02376-.00716.01644-.00977.02181-.00781.01823-.00911.02034-.00879.0197-.00847.01937-.00846.01855-.00911.02083-.00847.01856-.00911.02034-.00814.01823-.00944.02051-.00846.01888-.01042.02279-.00684.01465-.01464.03206-.00326.00684-.0179.03922-.002.00375-.01562.034-.00781.01628-.01042.02246-.00781.0166-.01042.02165-.00846.0179-.00944.02035-.00879.01823-.00944.02-.00879.01806-.01009.02132-.00814.01677-.01009.02067-.00879.01839-.00944.01937-.00944.01888-.00879.01839-.01009.01986-.00944.0192-.00879.01839-.01009.01986-.00912.01823-.01041.02132-.00814.01644-.01888.03695-.00781.01562-.01107.022-.00912.0179-.01009.01986-.00976.0192-.00912.01791-.01009.01953-.00944.01823-.01009.01969-.00944.0179-.00944.01856-.01009.0192-.00977.01872-.01009.019-.00911.01758-.01074.01986-.00944.01839-.00977.0179-.01009.01921-.00944.0179-.01042.01954-.00911.01676-.01107.02018-.00586.0114-.04818.08821-.00488.00895-.01172.02149-.00911.01644-.0114.02067-.00846.01513-.012.02181-.00847.01514-.012.02132-.00814.015-.01172.0205-.00944.01709-.01107.0197-.00911.01562-.01205.02132-.00878.01579-.0114.01986-.01009.01774-.01042.01807-.01139.01953L365,460.41862l-.00977.01693-.01106.01953-.00912.0153-.02344.04-.00911.01562-.01107.019-.01009.01693-.01237.02084-.00879.01464-.013.02214-.00846.01383-.012.02019-.00944.01611-.01237.02034-.00911.015-.01237.02083-.00879.01432-.013.02133-.00944.01562-.01139.01872-.01075.01725-.01171.01921-.00977.01562-.012.01953-.00912.01465-.01335.02165-.00781.01237-.01367.02213-.00944.01514-.0306.04867-.00325.0052-.01628.02572-.00586.00911-.01367.02165-.00944.01433-.0127.02034-.00911.01416-.01367.02116-.00912.01383-.01367.02133-.00846.01285-.014.02181-.00912.01384-.01367.021-.00846.01286-.01432.02181-.00814.0127-.015.0223-.00716.0109-.0153.02344-.00748.0109-.01563.02377-.0039.00586-.0625.09277-.00131.002-.0179.02621-.00521.00781-.01562.02295-.00814.01172-.015.02181-.00846.01237-.01432.02067-.00912.01351-.015.02132-.00846.0122-.015.02133-.00879.01269-.015.02132-.00879.0127-.01432.02051-.00912.01285-.01562.02214-.00684.0096-.0166.0236-.00716.00977-.01693.02392-.00456.00619c-.0205.029-.041.05745-.06185.0861l-.00455.00618-.016.02181-.00847.01156-.01432.01969-.01042.01433-.01464.01985-.00912.01237-.01595.022-.00846.01106-.01628.02214-.00781.01058-.01628.02165-.00911.01237-.01563.02083-.00814.0109-.01692.02247-.00716.00976-.01758.02311-.00651.00863-.01823.02409-.00456.00586c-.03841.05062-.07682.10042-.11588.15055l-.00261.00326-.02051.02653-.00455.00569-.01986.02523-.00553.00732-.01791.0223-.00846.01074-.01725.022-.00749.0096-.0179.02246-.00717.00895-.0192.02393-.00554.007-.0192.02392-.00684.00847-.01953.02425-.00391.00472-.02148.02653-.00358.00456q-.07227.08886-.14551.17675l-.00456.00521-.02148.02572-.00391.005-.02083.02458-.00618.00732-.01986.02344-.00619.00749-.0192.02246-.00846.01025-.01823.021-.00717.00863-.01953.02295-.00618.007-.02084.02426-.00325.0039q-.102.11817-.20573.23438l-.00228.00244-.02409.02669-.00293.00342-.02376.02653-.00325.00342-.02344.02588-.00358.00406-.02344.026-.00326.00341-.02376.02588-.00358.00423c-.06966.076-.1403.15186-.21094.22657l-.0039.0039-.02409.02539-.00326.00342-.02441.02556-.00326.00358-.02408.02506-.00391.00407-.02376.02458-.00424.00439-.02474.02588-.00065.00065q-.13769.14185-.27864.28093l-.00033.00032-.026.02572-.00358.00342-.02572.02539-.002.00179-.02669.0262-.00163.0013q-.16944.16528-.34375.326l-.00033.00033q-.20361.18774-.4121.36849l-.00163.0013a18.1559,18.1559,0,0,1-10.30013,4.34505,10.66706,10.66706,0,0,0,.94564,21.291q.47412,0,.95638-.04248a39.329,39.329,0,0,0,33.63346-26.04883c7.10286-20.28841,28.80436-63.20947,60.09766-80.436a.445.445,0,0,1,.166-.02571h0a1.35842,1.35842,0,0,1,.82129.30875,10.66669,10.66669,0,1,0,13.53581-16.48925,22.70637,22.70637,0,0,0-13.57455-5.139h-.00032l-.05729-.002-.00586-.00017-.05534-.00179-.00554-.00016q-.14208-.00416-.28418-.00651l-.01757-.00033-.041-.00065-.02376-.00032-.03809-.00049-.028-.00033-.03483-.00032-.0306-.00017-.03321-.00016-.0358-.00016-.028-.00016-.05729-.00017Z" style="fill:#8ae963"/><circle cx="138.31353" cy="181.33333" r="10.66667" style="fill:#e4dbff"/><circle cx="180.9802" cy="181.33333" r="10.66667" style="fill:#ac93ff"/><circle cx="159.64686" cy="160" r="10.66667" style="fill:#ac93ff"/><circle cx="116.9802" cy="160" r="10.66667" style="fill:#ac93ff"/><circle cx="266.31353" cy="181.33333" r="10.66667" style="fill:#e4dbff"/><circle cx="308.9802" cy="181.33333" r="10.66667" style="fill:#ac93ff"/><circle cx="287.64686" cy="160" r="10.66667" style="fill:#ac93ff"/><circle cx="244.9802" cy="160" r="10.66667" style="fill:#ac93ff"/><circle cx="202.31353" cy="245.33333" r="10.66667" style="fill:#e4dbff"/><circle cx="244.9802" cy="245.33333" r="10.66667" style="fill:#ac93ff"/><circle cx="223.64686" cy="224" r="10.66667" style="fill:#ac93ff"/><circle cx="180.9802" cy="224" r="10.66667" style="fill:#ac93ff"/><circle cx="330.31353" cy="245.33333" r="10.66667" style="fill:#e4dbff"/><circle cx="372.9802" cy="245.33333" r="10.66667" style="fill:#ac93ff"/><circle cx="351.64686" cy="224" r="10.66667" style="fill:#ac93ff"/><circle cx="308.9802" cy="224" r="10.66667" style="fill:#ac93ff"/><circle cx="266.31353" cy="309.33333" r="10.66667" style="fill:#e4dbff"/><circle cx="308.9802" cy="309.33333" r="10.66667" style="fill:#ac93ff"/><circle cx="287.64686" cy="288" r="10.66667" style="fill:#ac93ff"/><circle cx="244.9802" cy="288" r="10.66667" style="fill:#ac93ff"/><circle cx="394.31353" cy="309.33333" r="10.66667" style="fill:#e4dbff"/><circle cx="436.9802" cy="309.33333" r="10.66667" style="fill:#ac93ff"/><circle cx="415.64686" cy="288" r="10.66667" style="fill:#ac93ff"/><circle cx="372.9802" cy="288" r="10.66667" style="fill:#ac93ff"/><rect x="256" y="320" width="213.33333" height="21.33333" rx="10.66666" ry="10.66666" style="fill:#845eff"/><rect x="64" y="128" width="213.33333" height="21.33333" rx="10.66666" ry="10.66666" style="fill:#845eff"/><rect x="85.33333" y="128" width="64" height="21.33333" rx="10.66666" ry="10.66666" style="fill:#ac93ff"/><rect x="213.33333" y="128" width="64" height="21.33333" rx="10.66666" ry="10.66666" style="fill:#ac93ff"/></g></svg>