<?xml version="1.0" encoding="iso-8859-1"?>
<!-- Generator: Adobe Illustrator 19.0.0, SVG Export Plug-In . SVG Version: 6.00 Build 0)  -->
<svg xmlns="http://www.w3.org/2000/svg" xmlns:xlink="http://www.w3.org/1999/xlink" version="1.1" id="Layer_1" x="0px" y="0px" viewBox="0 0 512 512" style="enable-background:new 0 0 512 512;" xml:space="preserve">
<g>
	<rect x="147.672" y="422.643" style="fill:#ACACAD;" width="44.194" height="54.752"/>
	<rect x="320.135" y="422.643" style="fill:#ACACAD;" width="44.194" height="54.752"/>
</g>
<rect x="104.556" y="44.145" style="fill:#427AA1;" width="302.888" height="348.257"/>
<path style="fill:#17688C;" d="M147.672,327.878V108.669c0-16.856,13.664-30.522,30.522-30.522h229.251V44.145H104.556v348.258  h302.888V358.4H178.193C161.336,358.4,147.672,344.736,147.672,327.878z"/>
<path style="fill:#EBF2FA;" d="M256,331.992c-65.676,0-119.107-53.431-119.107-119.107S190.324,93.777,256,93.777  s119.107,53.431,119.107,119.107S321.676,331.992,256,331.992z"/>
<path style="fill:#DAE3EA;" d="M311.835,307.2c-65.676,0-119.107-53.431-119.107-119.107c0-37.498,17.424-70.999,44.595-92.848  c-56.834,8.991-100.43,58.317-100.43,117.639c0,65.676,53.431,119.107,119.107,119.107c28.177,0,54.096-9.842,74.513-26.26  C324.426,306.694,318.188,307.2,311.835,307.2z"/>
<path style="fill:#FFD94C;" d="M227.285,213.423h-23.366c-4.627,0-6.637-5.855-2.984-8.696l78.627-61.153  c3.45-2.684,8.413,0.196,7.795,4.524l-8.386,58.701c-0.418,2.928,1.854,5.547,4.811,5.547h23.183c4.751,0,6.68,6.116,2.787,8.841  l-86.581,60.607c-3.75,2.625-8.717-0.916-7.46-5.316l16.246-56.858C232.845,216.513,230.514,213.423,227.285,213.423z"/>
<path style="fill:#F7CA3E;" d="M250.365,255.956l16.246-62.352c0.887-3.405-1.444-6.794-4.673-6.794h-23.366  c-4.01,0-6.046-4.818-4.143-8.133l-33.492,26.049c-3.653,2.841-1.644,8.696,2.984,8.696h23.366c3.229,0,5.56,3.09,4.673,6.195  l-16.246,56.859c-1.258,4.401,3.71,7.941,7.46,5.316l28.858-20.201C250.595,260.353,249.762,258.267,250.365,255.956z"/>
<g>
	<path style="fill:#05668D;" d="M104.556,62.518V25.726c0-10.025,8.155-18.181,18.181-18.181h266.527   c10.025,0,18.181,8.155,18.181,18.181v36.792H104.556z"/>
	<path style="fill:#05668D;" d="M122.737,429.002c-10.025,0-18.181-8.155-18.181-18.181v-36.792h302.888v36.792   c0,10.025-8.155,18.181-18.181,18.181H122.737z"/>
</g>
<g>
	<path style="fill:#055F7A;" d="M186.871,7.545h-64.135c-10.026,0-18.181,8.155-18.181,18.181v36.792h64.135V25.726   C168.691,15.701,176.846,7.545,186.871,7.545z"/>
	<path style="fill:#055F7A;" d="M168.691,410.821v-36.792h-64.135v36.792c0,10.025,8.155,18.181,18.181,18.181h64.135   C176.846,429.002,168.691,420.847,168.691,410.821z"/>
</g>
<g>
	<path style="fill:#7F7F7F;" d="M136.893,497.858v-20.221c0-3.643,2.953-6.597,6.597-6.597h52.558c3.643,0,6.597,2.953,6.597,6.597   v20.221c0,3.643-2.953,6.597-6.597,6.597h-52.558C139.846,504.455,136.893,501.501,136.893,497.858z"/>
	<path style="fill:#7F7F7F;" d="M309.356,497.858v-20.221c0-3.643,2.953-6.597,6.597-6.597h52.558c3.643,0,6.597,2.953,6.597,6.597   v20.221c0,3.643-2.953,6.597-6.597,6.597h-52.558C312.309,504.455,309.356,501.501,309.356,497.858z"/>
</g>
<path d="M389.263,0H122.737c-14.185,0-25.726,11.541-25.726,25.726v385.095c0,14.185,11.541,25.726,25.726,25.726h17.39v26.947  h-2.695c-4.465,0-8.084,3.62-8.084,8.084v32.337c0,4.465,3.62,8.084,8.084,8.084h64.674c4.465,0,8.084-3.62,8.084-8.084v-32.337  c0-4.465-3.62-8.084-8.084-8.084h-2.695v-26.947h113.179v26.947h-2.695c-4.465,0-8.084,3.62-8.084,8.084v32.337  c0,4.465,3.62,8.084,8.084,8.084h64.674c4.465,0,8.084-3.62,8.084-8.084v-32.337c0-4.465-3.62-8.084-8.084-8.084h-2.695v-26.947  h17.39c14.185,0,25.726-11.541,25.726-25.726V25.726C414.989,11.541,403.448,0,389.263,0z M194.021,495.832h-48.505v-16.168h2.695  h43.116h2.695V495.832z M156.295,463.495v-26.947h26.947v26.947H156.295z M366.484,495.832h-48.505v-16.168h2.695h43.116h2.695  V495.832z M328.758,463.495v-26.947h26.947v26.947H328.758z M398.821,410.821c0,5.27-4.288,9.558-9.558,9.558h-25.474h-43.116  H191.326h-43.116h-25.474c-5.27,0-9.558-4.288-9.558-9.558v-28.169h285.642V410.821z M398.821,366.484H113.179V70.063h285.642  V366.484z M398.821,53.895H113.179V25.726c0-5.27,4.288-9.558,9.558-9.558h266.527c5.27,0,9.558,4.288,9.558,9.558V53.895z"/>
<path d="M299.122,314.604c-13.933,5.93-29.323,9.077-45.471,8.74c-58.418-1.219-106.182-48.406-108.076-106.806  c-2.07-63.807,50.284-116.155,114.092-114.078c58.052,1.89,105.098,49.122,106.77,107.182c0.966,33.544-13.106,63.89-35.96,84.782  c-3.346,3.058-3.414,8.31-0.209,11.515l0.1,0.1c3.026,3.026,7.906,3.145,11.064,0.255c25.829-23.641,41.861-57.819,41.2-95.659  c-1.191-68.271-57.097-123.73-125.374-124.398c-71.795-0.701-130.168,58.658-127.844,130.806  c2.12,65.835,55.146,119.501,120.953,122.37c19.612,0.855,38.305-2.781,55.14-9.959c5.188-2.212,6.445-9.01,2.457-12.998  c-0.04-0.04-0.08-0.08-0.12-0.12C305.554,314.048,302.1,313.336,299.122,314.604z"/>
<path d="M327.976,209.413c-1.365-2.892-4.414-4.613-7.612-4.613h-33.485l9.461-66.225c0.466-3.262-1.095-6.481-3.945-8.135  c-2.851-1.655-6.42-1.413-9.021,0.611l-29.279,22.773c-3.838,2.986-4.192,8.659-0.753,12.097l0,0  c2.883,2.883,7.461,3.168,10.68,0.665l13.482-10.487l-7.949,55.642c-0.46,3.226,1.057,6.51,4.071,8.215  c1.255,0.709,2.7,1.013,4.141,1.013h17.26l-68.11,47.676l15.237-53.329c0.477-1.671,0.508-3.465-0.077-5.103  c-1.19-3.336-4.285-5.414-7.636-5.414h-19.554l17.808-13.85c3.838-2.986,4.192-8.659,0.753-12.097l0,0  c-2.883-2.883-7.461-3.168-10.68-0.665l-36.406,28.316c-3.022,2.35-4.018,6.541-2.241,10.054c1.408,2.781,4.39,4.412,7.508,4.412  h32.094l-18.614,65.147c-0.941,3.291,0.293,6.818,3.081,8.804c1.403,1,3.047,1.501,4.692,1.501c1.621,0,3.243-0.487,4.636-1.462  l107.789-75.453C328.502,217.272,329.686,213.037,327.976,209.413z"/>
<g>
</g>
<g>
</g>
<g>
</g>
<g>
</g>
<g>
</g>
<g>
</g>
<g>
</g>
<g>
</g>
<g>
</g>
<g>
</g>
<g>
</g>
<g>
</g>
<g>
</g>
<g>
</g>
<g>
</g>
</svg>
